<?xml version="1.0" encoding="utf-8" standalone="no"?>
<!DOCTYPE svg PUBLIC "-//W3C//DTD SVG 1.1//EN"
  "http://www.w3.org/Graphics/SVG/1.1/DTD/svg11.dtd">
<!-- Created with matplotlib (https://matplotlib.org/) -->
<svg height="252.018125pt" version="1.1" viewBox="0 0 384.20483 252.018125" width="384.20483pt" xmlns="http://www.w3.org/2000/svg" xmlns:xlink="http://www.w3.org/1999/xlink">
 <defs>
  <style type="text/css">
*{stroke-linecap:butt;stroke-linejoin:round;}
  </style>
 </defs>
 <g id="figure_1">
  <g id="patch_1">
   <path d="M 0 252.018125 
L 384.20483 252.018125 
L 384.20483 0 
L 0 0 
z
" style="fill:none;"/>
  </g>
  <g id="axes_1">
   <g id="patch_2">
    <path d="M 36.465625 228.14 
L 371.265625 228.14 
L 371.265625 10.7 
L 36.465625 10.7 
z
" style="fill:#ffffff;"/>
   </g>
   <g id="patch_3">
    <path clip-path="url(#p8a07eb2e2e)" d="M 51.683807 228.14 
L 53.374716 228.14 
L 53.374716 228.116924 
L 51.683807 228.116924 
z
" style="fill:#1f77b4;opacity:0.5;"/>
   </g>
   <g id="patch_4">
    <path clip-path="url(#p8a07eb2e2e)" d="M 53.374716 228.14 
L 55.065625 228.14 
L 55.065625 228.14 
L 53.374716 228.14 
z
" style="fill:#1f77b4;opacity:0.5;"/>
   </g>
   <g id="patch_5">
    <path clip-path="url(#p8a07eb2e2e)" d="M 55.065625 228.14 
L 56.756534 228.14 
L 56.756534 228.116924 
L 55.065625 228.116924 
z
" style="fill:#1f77b4;opacity:0.5;"/>
   </g>
   <g id="patch_6">
    <path clip-path="url(#p8a07eb2e2e)" d="M 56.756534 228.14 
L 58.447443 228.14 
L 58.447443 228.116924 
L 56.756534 228.116924 
z
" style="fill:#1f77b4;opacity:0.5;"/>
   </g>
   <g id="patch_7">
    <path clip-path="url(#p8a07eb2e2e)" d="M 58.447443 228.14 
L 60.138352 228.14 
L 60.138352 228.14 
L 58.447443 228.14 
z
" style="fill:#1f77b4;opacity:0.5;"/>
   </g>
   <g id="patch_8">
    <path clip-path="url(#p8a07eb2e2e)" d="M 60.138352 228.14 
L 61.829261 228.14 
L 61.829261 228.116924 
L 60.138352 228.116924 
z
" style="fill:#1f77b4;opacity:0.5;"/>
   </g>
   <g id="patch_9">
    <path clip-path="url(#p8a07eb2e2e)" d="M 61.829261 228.14 
L 63.52017 228.14 
L 63.52017 228.116924 
L 61.829261 228.116924 
z
" style="fill:#1f77b4;opacity:0.5;"/>
   </g>
   <g id="patch_10">
    <path clip-path="url(#p8a07eb2e2e)" d="M 63.52017 228.14 
L 65.21108 228.14 
L 65.21108 228.14 
L 63.52017 228.14 
z
" style="fill:#1f77b4;opacity:0.5;"/>
   </g>
   <g id="patch_11">
    <path clip-path="url(#p8a07eb2e2e)" d="M 65.21108 228.14 
L 66.901989 228.14 
L 66.901989 228.14 
L 65.21108 228.14 
z
" style="fill:#1f77b4;opacity:0.5;"/>
   </g>
   <g id="patch_12">
    <path clip-path="url(#p8a07eb2e2e)" d="M 66.901989 228.14 
L 68.592898 228.14 
L 68.592898 228.14 
L 66.901989 228.14 
z
" style="fill:#1f77b4;opacity:0.5;"/>
   </g>
   <g id="patch_13">
    <path clip-path="url(#p8a07eb2e2e)" d="M 68.592898 228.14 
L 70.283807 228.14 
L 70.283807 228.14 
L 68.592898 228.14 
z
" style="fill:#1f77b4;opacity:0.5;"/>
   </g>
   <g id="patch_14">
    <path clip-path="url(#p8a07eb2e2e)" d="M 70.283807 228.14 
L 71.974716 228.14 
L 71.974716 228.14 
L 70.283807 228.14 
z
" style="fill:#1f77b4;opacity:0.5;"/>
   </g>
   <g id="patch_15">
    <path clip-path="url(#p8a07eb2e2e)" d="M 71.974716 228.14 
L 73.665625 228.14 
L 73.665625 228.14 
L 71.974716 228.14 
z
" style="fill:#1f77b4;opacity:0.5;"/>
   </g>
   <g id="patch_16">
    <path clip-path="url(#p8a07eb2e2e)" d="M 73.665625 228.14 
L 75.356534 228.14 
L 75.356534 228.14 
L 73.665625 228.14 
z
" style="fill:#1f77b4;opacity:0.5;"/>
   </g>
   <g id="patch_17">
    <path clip-path="url(#p8a07eb2e2e)" d="M 75.356534 228.14 
L 77.047443 228.14 
L 77.047443 228.116924 
L 75.356534 228.116924 
z
" style="fill:#1f77b4;opacity:0.5;"/>
   </g>
   <g id="patch_18">
    <path clip-path="url(#p8a07eb2e2e)" d="M 77.047443 228.14 
L 78.738352 228.14 
L 78.738352 228.14 
L 77.047443 228.14 
z
" style="fill:#1f77b4;opacity:0.5;"/>
   </g>
   <g id="patch_19">
    <path clip-path="url(#p8a07eb2e2e)" d="M 78.738352 228.14 
L 80.429261 228.14 
L 80.429261 228.14 
L 78.738352 228.14 
z
" style="fill:#1f77b4;opacity:0.5;"/>
   </g>
   <g id="patch_20">
    <path clip-path="url(#p8a07eb2e2e)" d="M 80.429261 228.14 
L 82.12017 228.14 
L 82.12017 228.14 
L 80.429261 228.14 
z
" style="fill:#1f77b4;opacity:0.5;"/>
   </g>
   <g id="patch_21">
    <path clip-path="url(#p8a07eb2e2e)" d="M 82.12017 228.14 
L 83.81108 228.14 
L 83.81108 228.116924 
L 82.12017 228.116924 
z
" style="fill:#1f77b4;opacity:0.5;"/>
   </g>
   <g id="patch_22">
    <path clip-path="url(#p8a07eb2e2e)" d="M 83.81108 228.14 
L 85.501989 228.14 
L 85.501989 228.14 
L 83.81108 228.14 
z
" style="fill:#1f77b4;opacity:0.5;"/>
   </g>
   <g id="patch_23">
    <path clip-path="url(#p8a07eb2e2e)" d="M 85.501989 228.14 
L 87.192898 228.14 
L 87.192898 228.14 
L 85.501989 228.14 
z
" style="fill:#1f77b4;opacity:0.5;"/>
   </g>
   <g id="patch_24">
    <path clip-path="url(#p8a07eb2e2e)" d="M 87.192898 228.14 
L 88.883807 228.14 
L 88.883807 228.14 
L 87.192898 228.14 
z
" style="fill:#1f77b4;opacity:0.5;"/>
   </g>
   <g id="patch_25">
    <path clip-path="url(#p8a07eb2e2e)" d="M 88.883807 228.14 
L 90.574716 228.14 
L 90.574716 228.14 
L 88.883807 228.14 
z
" style="fill:#1f77b4;opacity:0.5;"/>
   </g>
   <g id="patch_26">
    <path clip-path="url(#p8a07eb2e2e)" d="M 90.574716 228.14 
L 92.265625 228.14 
L 92.265625 228.14 
L 90.574716 228.14 
z
" style="fill:#1f77b4;opacity:0.5;"/>
   </g>
   <g id="patch_27">
    <path clip-path="url(#p8a07eb2e2e)" d="M 92.265625 228.14 
L 93.956534 228.14 
L 93.956534 228.14 
L 92.265625 228.14 
z
" style="fill:#1f77b4;opacity:0.5;"/>
   </g>
   <g id="patch_28">
    <path clip-path="url(#p8a07eb2e2e)" d="M 93.956534 228.14 
L 95.647443 228.14 
L 95.647443 228.14 
L 93.956534 228.14 
z
" style="fill:#1f77b4;opacity:0.5;"/>
   </g>
   <g id="patch_29">
    <path clip-path="url(#p8a07eb2e2e)" d="M 95.647443 228.14 
L 97.338352 228.14 
L 97.338352 227.95539 
L 95.647443 227.95539 
z
" style="fill:#1f77b4;opacity:0.5;"/>
   </g>
   <g id="patch_30">
    <path clip-path="url(#p8a07eb2e2e)" d="M 97.338352 228.14 
L 99.029261 228.14 
L 99.029261 228.093848 
L 97.338352 228.093848 
z
" style="fill:#1f77b4;opacity:0.5;"/>
   </g>
   <g id="patch_31">
    <path clip-path="url(#p8a07eb2e2e)" d="M 99.029261 228.14 
L 100.72017 228.14 
L 100.72017 228.14 
L 99.029261 228.14 
z
" style="fill:#1f77b4;opacity:0.5;"/>
   </g>
   <g id="patch_32">
    <path clip-path="url(#p8a07eb2e2e)" d="M 100.72017 228.14 
L 102.41108 228.14 
L 102.41108 228.14 
L 100.72017 228.14 
z
" style="fill:#1f77b4;opacity:0.5;"/>
   </g>
   <g id="patch_33">
    <path clip-path="url(#p8a07eb2e2e)" d="M 102.41108 228.14 
L 104.101989 228.14 
L 104.101989 228.14 
L 102.41108 228.14 
z
" style="fill:#1f77b4;opacity:0.5;"/>
   </g>
   <g id="patch_34">
    <path clip-path="url(#p8a07eb2e2e)" d="M 104.101989 228.14 
L 105.792898 228.14 
L 105.792898 228.093848 
L 104.101989 228.093848 
z
" style="fill:#1f77b4;opacity:0.5;"/>
   </g>
   <g id="patch_35">
    <path clip-path="url(#p8a07eb2e2e)" d="M 105.792898 228.14 
L 107.483807 228.14 
L 107.483807 228.14 
L 105.792898 228.14 
z
" style="fill:#1f77b4;opacity:0.5;"/>
   </g>
   <g id="patch_36">
    <path clip-path="url(#p8a07eb2e2e)" d="M 107.483807 228.14 
L 109.174716 228.14 
L 109.174716 228.14 
L 107.483807 228.14 
z
" style="fill:#1f77b4;opacity:0.5;"/>
   </g>
   <g id="patch_37">
    <path clip-path="url(#p8a07eb2e2e)" d="M 109.174716 228.14 
L 110.865625 228.14 
L 110.865625 228.116924 
L 109.174716 228.116924 
z
" style="fill:#1f77b4;opacity:0.5;"/>
   </g>
   <g id="patch_38">
    <path clip-path="url(#p8a07eb2e2e)" d="M 110.865625 228.14 
L 112.556534 228.14 
L 112.556534 228.093848 
L 110.865625 228.093848 
z
" style="fill:#1f77b4;opacity:0.5;"/>
   </g>
   <g id="patch_39">
    <path clip-path="url(#p8a07eb2e2e)" d="M 112.556534 228.14 
L 114.247443 228.14 
L 114.247443 228.070771 
L 112.556534 228.070771 
z
" style="fill:#1f77b4;opacity:0.5;"/>
   </g>
   <g id="patch_40">
    <path clip-path="url(#p8a07eb2e2e)" d="M 114.247443 228.14 
L 115.938352 228.14 
L 115.938352 228.116924 
L 114.247443 228.116924 
z
" style="fill:#1f77b4;opacity:0.5;"/>
   </g>
   <g id="patch_41">
    <path clip-path="url(#p8a07eb2e2e)" d="M 115.938352 228.14 
L 117.629261 228.14 
L 117.629261 228.116924 
L 115.938352 228.116924 
z
" style="fill:#1f77b4;opacity:0.5;"/>
   </g>
   <g id="patch_42">
    <path clip-path="url(#p8a07eb2e2e)" d="M 117.629261 228.14 
L 119.32017 228.14 
L 119.32017 228.024619 
L 117.629261 228.024619 
z
" style="fill:#1f77b4;opacity:0.5;"/>
   </g>
   <g id="patch_43">
    <path clip-path="url(#p8a07eb2e2e)" d="M 119.32017 228.14 
L 121.01108 228.14 
L 121.01108 228.024619 
L 119.32017 228.024619 
z
" style="fill:#1f77b4;opacity:0.5;"/>
   </g>
   <g id="patch_44">
    <path clip-path="url(#p8a07eb2e2e)" d="M 121.01108 228.14 
L 122.701989 228.14 
L 122.701989 228.024619 
L 121.01108 228.024619 
z
" style="fill:#1f77b4;opacity:0.5;"/>
   </g>
   <g id="patch_45">
    <path clip-path="url(#p8a07eb2e2e)" d="M 122.701989 228.14 
L 124.392898 228.14 
L 124.392898 226.801581 
L 122.701989 226.801581 
z
" style="fill:#1f77b4;opacity:0.5;"/>
   </g>
   <g id="patch_46">
    <path clip-path="url(#p8a07eb2e2e)" d="M 124.392898 228.14 
L 126.083807 228.14 
L 126.083807 224.217048 
L 124.392898 224.217048 
z
" style="fill:#1f77b4;opacity:0.5;"/>
   </g>
   <g id="patch_47">
    <path clip-path="url(#p8a07eb2e2e)" d="M 126.083807 228.14 
L 127.774716 228.14 
L 127.774716 213.00202 
L 126.083807 213.00202 
z
" style="fill:#1f77b4;opacity:0.5;"/>
   </g>
   <g id="patch_48">
    <path clip-path="url(#p8a07eb2e2e)" d="M 127.774716 228.14 
L 129.465625 228.14 
L 129.465625 165.11893 
L 127.774716 165.11893 
z
" style="fill:#1f77b4;opacity:0.5;"/>
   </g>
   <g id="patch_49">
    <path clip-path="url(#p8a07eb2e2e)" d="M 129.465625 228.14 
L 131.156534 228.14 
L 131.156534 176.287805 
L 129.465625 176.287805 
z
" style="fill:#1f77b4;opacity:0.5;"/>
   </g>
   <g id="patch_50">
    <path clip-path="url(#p8a07eb2e2e)" d="M 131.156534 228.14 
L 132.847443 228.14 
L 132.847443 154.503883 
L 131.156534 154.503883 
z
" style="fill:#1f77b4;opacity:0.5;"/>
   </g>
   <g id="patch_51">
    <path clip-path="url(#p8a07eb2e2e)" d="M 132.847443 228.14 
L 134.538352 228.14 
L 134.538352 67.137434 
L 132.847443 67.137434 
z
" style="fill:#1f77b4;opacity:0.5;"/>
   </g>
   <g id="patch_52">
    <path clip-path="url(#p8a07eb2e2e)" d="M 134.538352 228.14 
L 136.229261 228.14 
L 136.229261 128.404714 
L 134.538352 128.404714 
z
" style="fill:#1f77b4;opacity:0.5;"/>
   </g>
   <g id="patch_53">
    <path clip-path="url(#p8a07eb2e2e)" d="M 136.229261 228.14 
L 137.92017 228.14 
L 137.92017 127.527819 
L 136.229261 127.527819 
z
" style="fill:#1f77b4;opacity:0.5;"/>
   </g>
   <g id="patch_54">
    <path clip-path="url(#p8a07eb2e2e)" d="M 137.92017 228.14 
L 139.61108 228.14 
L 139.61108 21.054286 
L 137.92017 21.054286 
z
" style="fill:#1f77b4;opacity:0.5;"/>
   </g>
   <g id="patch_55">
    <path clip-path="url(#p8a07eb2e2e)" d="M 139.61108 228.14 
L 141.301989 228.14 
L 141.301989 141.742751 
L 139.61108 141.742751 
z
" style="fill:#1f77b4;opacity:0.5;"/>
   </g>
   <g id="patch_56">
    <path clip-path="url(#p8a07eb2e2e)" d="M 141.301989 228.14 
L 142.992898 228.14 
L 142.992898 131.843066 
L 141.301989 131.843066 
z
" style="fill:#1f77b4;opacity:0.5;"/>
   </g>
   <g id="patch_57">
    <path clip-path="url(#p8a07eb2e2e)" d="M 142.992898 228.14 
L 144.683807 228.14 
L 144.683807 131.727685 
L 142.992898 131.727685 
z
" style="fill:#1f77b4;opacity:0.5;"/>
   </g>
   <g id="patch_58">
    <path clip-path="url(#p8a07eb2e2e)" d="M 144.683807 228.14 
L 146.374716 228.14 
L 146.374716 202.640812 
L 144.683807 202.640812 
z
" style="fill:#1f77b4;opacity:0.5;"/>
   </g>
   <g id="patch_59">
    <path clip-path="url(#p8a07eb2e2e)" d="M 146.374716 228.14 
L 148.065625 228.14 
L 148.065625 213.925068 
L 146.374716 213.925068 
z
" style="fill:#1f77b4;opacity:0.5;"/>
   </g>
   <g id="patch_60">
    <path clip-path="url(#p8a07eb2e2e)" d="M 148.065625 228.14 
L 149.756534 228.14 
L 149.756534 220.732544 
L 148.065625 220.732544 
z
" style="fill:#1f77b4;opacity:0.5;"/>
   </g>
   <g id="patch_61">
    <path clip-path="url(#p8a07eb2e2e)" d="M 149.756534 228.14 
L 151.447443 228.14 
L 151.447443 227.101572 
L 149.756534 227.101572 
z
" style="fill:#1f77b4;opacity:0.5;"/>
   </g>
   <g id="patch_62">
    <path clip-path="url(#p8a07eb2e2e)" d="M 151.447443 228.14 
L 153.138352 228.14 
L 153.138352 227.609248 
L 151.447443 227.609248 
z
" style="fill:#1f77b4;opacity:0.5;"/>
   </g>
   <g id="patch_63">
    <path clip-path="url(#p8a07eb2e2e)" d="M 153.138352 228.14 
L 154.829261 228.14 
L 154.829261 227.770781 
L 153.138352 227.770781 
z
" style="fill:#1f77b4;opacity:0.5;"/>
   </g>
   <g id="patch_64">
    <path clip-path="url(#p8a07eb2e2e)" d="M 154.829261 228.14 
L 156.52017 228.14 
L 156.52017 227.886162 
L 154.829261 227.886162 
z
" style="fill:#1f77b4;opacity:0.5;"/>
   </g>
   <g id="patch_65">
    <path clip-path="url(#p8a07eb2e2e)" d="M 156.52017 228.14 
L 158.21108 228.14 
L 158.21108 227.978467 
L 156.52017 227.978467 
z
" style="fill:#1f77b4;opacity:0.5;"/>
   </g>
   <g id="patch_66">
    <path clip-path="url(#p8a07eb2e2e)" d="M 158.21108 228.14 
L 159.901989 228.14 
L 159.901989 228.116924 
L 158.21108 228.116924 
z
" style="fill:#1f77b4;opacity:0.5;"/>
   </g>
   <g id="patch_67">
    <path clip-path="url(#p8a07eb2e2e)" d="M 159.901989 228.14 
L 161.592898 228.14 
L 161.592898 228.116924 
L 159.901989 228.116924 
z
" style="fill:#1f77b4;opacity:0.5;"/>
   </g>
   <g id="patch_68">
    <path clip-path="url(#p8a07eb2e2e)" d="M 161.592898 228.14 
L 163.283807 228.14 
L 163.283807 228.093848 
L 161.592898 228.093848 
z
" style="fill:#1f77b4;opacity:0.5;"/>
   </g>
   <g id="patch_69">
    <path clip-path="url(#p8a07eb2e2e)" d="M 163.283807 228.14 
L 164.974716 228.14 
L 164.974716 228.093848 
L 163.283807 228.093848 
z
" style="fill:#1f77b4;opacity:0.5;"/>
   </g>
   <g id="patch_70">
    <path clip-path="url(#p8a07eb2e2e)" d="M 164.974716 228.14 
L 166.665625 228.14 
L 166.665625 228.001543 
L 164.974716 228.001543 
z
" style="fill:#1f77b4;opacity:0.5;"/>
   </g>
   <g id="patch_71">
    <path clip-path="url(#p8a07eb2e2e)" d="M 166.665625 228.14 
L 168.356534 228.14 
L 168.356534 228.116924 
L 166.665625 228.116924 
z
" style="fill:#1f77b4;opacity:0.5;"/>
   </g>
   <g id="patch_72">
    <path clip-path="url(#p8a07eb2e2e)" d="M 168.356534 228.14 
L 170.047443 228.14 
L 170.047443 228.070771 
L 168.356534 228.070771 
z
" style="fill:#1f77b4;opacity:0.5;"/>
   </g>
   <g id="patch_73">
    <path clip-path="url(#p8a07eb2e2e)" d="M 170.047443 228.14 
L 171.738352 228.14 
L 171.738352 227.724629 
L 170.047443 227.724629 
z
" style="fill:#1f77b4;opacity:0.5;"/>
   </g>
   <g id="patch_74">
    <path clip-path="url(#p8a07eb2e2e)" d="M 171.738352 228.14 
L 173.429261 228.14 
L 173.429261 228.14 
L 171.738352 228.14 
z
" style="fill:#1f77b4;opacity:0.5;"/>
   </g>
   <g id="patch_75">
    <path clip-path="url(#p8a07eb2e2e)" d="M 173.429261 228.14 
L 175.12017 228.14 
L 175.12017 228.14 
L 173.429261 228.14 
z
" style="fill:#1f77b4;opacity:0.5;"/>
   </g>
   <g id="patch_76">
    <path clip-path="url(#p8a07eb2e2e)" d="M 175.12017 228.14 
L 176.81108 228.14 
L 176.81108 228.14 
L 175.12017 228.14 
z
" style="fill:#1f77b4;opacity:0.5;"/>
   </g>
   <g id="patch_77">
    <path clip-path="url(#p8a07eb2e2e)" d="M 176.81108 228.14 
L 178.501989 228.14 
L 178.501989 228.14 
L 176.81108 228.14 
z
" style="fill:#1f77b4;opacity:0.5;"/>
   </g>
   <g id="patch_78">
    <path clip-path="url(#p8a07eb2e2e)" d="M 178.501989 228.14 
L 180.192898 228.14 
L 180.192898 228.14 
L 178.501989 228.14 
z
" style="fill:#1f77b4;opacity:0.5;"/>
   </g>
   <g id="patch_79">
    <path clip-path="url(#p8a07eb2e2e)" d="M 180.192898 228.14 
L 181.883807 228.14 
L 181.883807 228.14 
L 180.192898 228.14 
z
" style="fill:#1f77b4;opacity:0.5;"/>
   </g>
   <g id="patch_80">
    <path clip-path="url(#p8a07eb2e2e)" d="M 181.883807 228.14 
L 183.574716 228.14 
L 183.574716 228.14 
L 181.883807 228.14 
z
" style="fill:#1f77b4;opacity:0.5;"/>
   </g>
   <g id="patch_81">
    <path clip-path="url(#p8a07eb2e2e)" d="M 183.574716 228.14 
L 185.265625 228.14 
L 185.265625 228.14 
L 183.574716 228.14 
z
" style="fill:#1f77b4;opacity:0.5;"/>
   </g>
   <g id="patch_82">
    <path clip-path="url(#p8a07eb2e2e)" d="M 185.265625 228.14 
L 186.956534 228.14 
L 186.956534 228.116924 
L 185.265625 228.116924 
z
" style="fill:#1f77b4;opacity:0.5;"/>
   </g>
   <g id="patch_83">
    <path clip-path="url(#p8a07eb2e2e)" d="M 186.956534 228.14 
L 188.647443 228.14 
L 188.647443 228.14 
L 186.956534 228.14 
z
" style="fill:#1f77b4;opacity:0.5;"/>
   </g>
   <g id="patch_84">
    <path clip-path="url(#p8a07eb2e2e)" d="M 188.647443 228.14 
L 190.338352 228.14 
L 190.338352 228.14 
L 188.647443 228.14 
z
" style="fill:#1f77b4;opacity:0.5;"/>
   </g>
   <g id="patch_85">
    <path clip-path="url(#p8a07eb2e2e)" d="M 190.338352 228.14 
L 192.029261 228.14 
L 192.029261 228.14 
L 190.338352 228.14 
z
" style="fill:#1f77b4;opacity:0.5;"/>
   </g>
   <g id="patch_86">
    <path clip-path="url(#p8a07eb2e2e)" d="M 192.029261 228.14 
L 193.72017 228.14 
L 193.72017 228.14 
L 192.029261 228.14 
z
" style="fill:#1f77b4;opacity:0.5;"/>
   </g>
   <g id="patch_87">
    <path clip-path="url(#p8a07eb2e2e)" d="M 193.72017 228.14 
L 195.41108 228.14 
L 195.41108 228.14 
L 193.72017 228.14 
z
" style="fill:#1f77b4;opacity:0.5;"/>
   </g>
   <g id="patch_88">
    <path clip-path="url(#p8a07eb2e2e)" d="M 195.41108 228.14 
L 197.101989 228.14 
L 197.101989 228.14 
L 195.41108 228.14 
z
" style="fill:#1f77b4;opacity:0.5;"/>
   </g>
   <g id="patch_89">
    <path clip-path="url(#p8a07eb2e2e)" d="M 197.101989 228.14 
L 198.792898 228.14 
L 198.792898 228.14 
L 197.101989 228.14 
z
" style="fill:#1f77b4;opacity:0.5;"/>
   </g>
   <g id="patch_90">
    <path clip-path="url(#p8a07eb2e2e)" d="M 198.792898 228.14 
L 200.483807 228.14 
L 200.483807 228.14 
L 198.792898 228.14 
z
" style="fill:#1f77b4;opacity:0.5;"/>
   </g>
   <g id="patch_91">
    <path clip-path="url(#p8a07eb2e2e)" d="M 200.483807 228.14 
L 202.174716 228.14 
L 202.174716 228.14 
L 200.483807 228.14 
z
" style="fill:#1f77b4;opacity:0.5;"/>
   </g>
   <g id="patch_92">
    <path clip-path="url(#p8a07eb2e2e)" d="M 202.174716 228.14 
L 203.865625 228.14 
L 203.865625 228.14 
L 202.174716 228.14 
z
" style="fill:#1f77b4;opacity:0.5;"/>
   </g>
   <g id="patch_93">
    <path clip-path="url(#p8a07eb2e2e)" d="M 203.865625 228.14 
L 205.556534 228.14 
L 205.556534 228.14 
L 203.865625 228.14 
z
" style="fill:#1f77b4;opacity:0.5;"/>
   </g>
   <g id="patch_94">
    <path clip-path="url(#p8a07eb2e2e)" d="M 205.556534 228.14 
L 207.247443 228.14 
L 207.247443 228.14 
L 205.556534 228.14 
z
" style="fill:#1f77b4;opacity:0.5;"/>
   </g>
   <g id="patch_95">
    <path clip-path="url(#p8a07eb2e2e)" d="M 207.247443 228.14 
L 208.938352 228.14 
L 208.938352 228.14 
L 207.247443 228.14 
z
" style="fill:#1f77b4;opacity:0.5;"/>
   </g>
   <g id="patch_96">
    <path clip-path="url(#p8a07eb2e2e)" d="M 208.938352 228.14 
L 210.629261 228.14 
L 210.629261 228.14 
L 208.938352 228.14 
z
" style="fill:#1f77b4;opacity:0.5;"/>
   </g>
   <g id="patch_97">
    <path clip-path="url(#p8a07eb2e2e)" d="M 210.629261 228.14 
L 212.32017 228.14 
L 212.32017 228.14 
L 210.629261 228.14 
z
" style="fill:#1f77b4;opacity:0.5;"/>
   </g>
   <g id="patch_98">
    <path clip-path="url(#p8a07eb2e2e)" d="M 212.32017 228.14 
L 214.01108 228.14 
L 214.01108 228.14 
L 212.32017 228.14 
z
" style="fill:#1f77b4;opacity:0.5;"/>
   </g>
   <g id="patch_99">
    <path clip-path="url(#p8a07eb2e2e)" d="M 214.01108 228.14 
L 215.701989 228.14 
L 215.701989 228.14 
L 214.01108 228.14 
z
" style="fill:#1f77b4;opacity:0.5;"/>
   </g>
   <g id="patch_100">
    <path clip-path="url(#p8a07eb2e2e)" d="M 215.701989 228.14 
L 217.392898 228.14 
L 217.392898 228.14 
L 215.701989 228.14 
z
" style="fill:#1f77b4;opacity:0.5;"/>
   </g>
   <g id="patch_101">
    <path clip-path="url(#p8a07eb2e2e)" d="M 217.392898 228.14 
L 219.083807 228.14 
L 219.083807 228.14 
L 217.392898 228.14 
z
" style="fill:#1f77b4;opacity:0.5;"/>
   </g>
   <g id="patch_102">
    <path clip-path="url(#p8a07eb2e2e)" d="M 219.083807 228.14 
L 220.774716 228.14 
L 220.774716 228.14 
L 219.083807 228.14 
z
" style="fill:#1f77b4;opacity:0.5;"/>
   </g>
   <g id="patch_103">
    <path clip-path="url(#p8a07eb2e2e)" d="M 220.774716 228.14 
L 222.465625 228.14 
L 222.465625 228.093848 
L 220.774716 228.093848 
z
" style="fill:#1f77b4;opacity:0.5;"/>
   </g>
   <g id="patch_104">
    <path clip-path="url(#p8a07eb2e2e)" d="M 222.465625 228.14 
L 224.156534 228.14 
L 224.156534 228.14 
L 222.465625 228.14 
z
" style="fill:#1f77b4;opacity:0.5;"/>
   </g>
   <g id="patch_105">
    <path clip-path="url(#p8a07eb2e2e)" d="M 224.156534 228.14 
L 225.847443 228.14 
L 225.847443 228.116924 
L 224.156534 228.116924 
z
" style="fill:#1f77b4;opacity:0.5;"/>
   </g>
   <g id="patch_106">
    <path clip-path="url(#p8a07eb2e2e)" d="M 225.847443 228.14 
L 227.538352 228.14 
L 227.538352 228.14 
L 225.847443 228.14 
z
" style="fill:#1f77b4;opacity:0.5;"/>
   </g>
   <g id="patch_107">
    <path clip-path="url(#p8a07eb2e2e)" d="M 227.538352 228.14 
L 229.229261 228.14 
L 229.229261 228.116924 
L 227.538352 228.116924 
z
" style="fill:#1f77b4;opacity:0.5;"/>
   </g>
   <g id="patch_108">
    <path clip-path="url(#p8a07eb2e2e)" d="M 229.229261 228.14 
L 230.92017 228.14 
L 230.92017 228.070771 
L 229.229261 228.070771 
z
" style="fill:#1f77b4;opacity:0.5;"/>
   </g>
   <g id="patch_109">
    <path clip-path="url(#p8a07eb2e2e)" d="M 230.92017 228.14 
L 232.61108 228.14 
L 232.61108 228.14 
L 230.92017 228.14 
z
" style="fill:#1f77b4;opacity:0.5;"/>
   </g>
   <g id="patch_110">
    <path clip-path="url(#p8a07eb2e2e)" d="M 232.61108 228.14 
L 234.301989 228.14 
L 234.301989 228.14 
L 232.61108 228.14 
z
" style="fill:#1f77b4;opacity:0.5;"/>
   </g>
   <g id="patch_111">
    <path clip-path="url(#p8a07eb2e2e)" d="M 234.301989 228.14 
L 235.992898 228.14 
L 235.992898 228.024619 
L 234.301989 228.024619 
z
" style="fill:#1f77b4;opacity:0.5;"/>
   </g>
   <g id="patch_112">
    <path clip-path="url(#p8a07eb2e2e)" d="M 235.992898 228.14 
L 237.683807 228.14 
L 237.683807 227.978467 
L 235.992898 227.978467 
z
" style="fill:#1f77b4;opacity:0.5;"/>
   </g>
   <g id="patch_113">
    <path clip-path="url(#p8a07eb2e2e)" d="M 237.683807 228.14 
L 239.374716 228.14 
L 239.374716 228.14 
L 237.683807 228.14 
z
" style="fill:#1f77b4;opacity:0.5;"/>
   </g>
   <g id="patch_114">
    <path clip-path="url(#p8a07eb2e2e)" d="M 239.374716 228.14 
L 241.065625 228.14 
L 241.065625 227.1708 
L 239.374716 227.1708 
z
" style="fill:#1f77b4;opacity:0.5;"/>
   </g>
   <g id="patch_115">
    <path clip-path="url(#p8a07eb2e2e)" d="M 241.065625 228.14 
L 242.756534 228.14 
L 242.756534 228.14 
L 241.065625 228.14 
z
" style="fill:#1f77b4;opacity:0.5;"/>
   </g>
   <g id="patch_116">
    <path clip-path="url(#p8a07eb2e2e)" d="M 242.756534 228.14 
L 244.447443 228.14 
L 244.447443 225.024715 
L 242.756534 225.024715 
z
" style="fill:#1f77b4;opacity:0.5;"/>
   </g>
   <g id="patch_117">
    <path clip-path="url(#p8a07eb2e2e)" d="M 244.447443 228.14 
L 246.138352 228.14 
L 246.138352 228.14 
L 244.447443 228.14 
z
" style="fill:#1f77b4;opacity:0.5;"/>
   </g>
   <g id="patch_118">
    <path clip-path="url(#p8a07eb2e2e)" d="M 246.138352 228.14 
L 247.829261 228.14 
L 247.829261 223.893981 
L 246.138352 223.893981 
z
" style="fill:#1f77b4;opacity:0.5;"/>
   </g>
   <g id="patch_119">
    <path clip-path="url(#p8a07eb2e2e)" d="M 247.829261 228.14 
L 249.52017 228.14 
L 249.52017 228.14 
L 247.829261 228.14 
z
" style="fill:#1f77b4;opacity:0.5;"/>
   </g>
   <g id="patch_120">
    <path clip-path="url(#p8a07eb2e2e)" d="M 249.52017 228.14 
L 251.21108 228.14 
L 251.21108 218.471077 
L 249.52017 218.471077 
z
" style="fill:#1f77b4;opacity:0.5;"/>
   </g>
   <g id="patch_121">
    <path clip-path="url(#p8a07eb2e2e)" d="M 251.21108 228.14 
L 252.901989 228.14 
L 252.901989 228.14 
L 251.21108 228.14 
z
" style="fill:#1f77b4;opacity:0.5;"/>
   </g>
   <g id="patch_122">
    <path clip-path="url(#p8a07eb2e2e)" d="M 252.901989 228.14 
L 254.592898 228.14 
L 254.592898 216.140382 
L 252.901989 216.140382 
z
" style="fill:#1f77b4;opacity:0.5;"/>
   </g>
   <g id="patch_123">
    <path clip-path="url(#p8a07eb2e2e)" d="M 254.592898 228.14 
L 256.283807 228.14 
L 256.283807 228.14 
L 254.592898 228.14 
z
" style="fill:#1f77b4;opacity:0.5;"/>
   </g>
   <g id="patch_124">
    <path clip-path="url(#p8a07eb2e2e)" d="M 256.283807 228.14 
L 257.974716 228.14 
L 257.974716 212.586649 
L 256.283807 212.586649 
z
" style="fill:#1f77b4;opacity:0.5;"/>
   </g>
   <g id="patch_125">
    <path clip-path="url(#p8a07eb2e2e)" d="M 257.974716 228.14 
L 259.665625 228.14 
L 259.665625 228.14 
L 257.974716 228.14 
z
" style="fill:#1f77b4;opacity:0.5;"/>
   </g>
   <g id="patch_126">
    <path clip-path="url(#p8a07eb2e2e)" d="M 259.665625 228.14 
L 261.356534 228.14 
L 261.356534 212.540497 
L 259.665625 212.540497 
z
" style="fill:#1f77b4;opacity:0.5;"/>
   </g>
   <g id="patch_127">
    <path clip-path="url(#p8a07eb2e2e)" d="M 261.356534 228.14 
L 263.047443 228.14 
L 263.047443 228.14 
L 261.356534 228.14 
z
" style="fill:#1f77b4;opacity:0.5;"/>
   </g>
   <g id="patch_128">
    <path clip-path="url(#p8a07eb2e2e)" d="M 263.047443 228.14 
L 264.738352 228.14 
L 264.738352 207.37143 
L 263.047443 207.37143 
z
" style="fill:#1f77b4;opacity:0.5;"/>
   </g>
   <g id="patch_129">
    <path clip-path="url(#p8a07eb2e2e)" d="M 264.738352 228.14 
L 266.429261 228.14 
L 266.429261 204.325374 
L 264.738352 204.325374 
z
" style="fill:#1f77b4;opacity:0.5;"/>
   </g>
   <g id="patch_130">
    <path clip-path="url(#p8a07eb2e2e)" d="M 266.429261 228.14 
L 268.12017 228.14 
L 268.12017 228.14 
L 266.429261 228.14 
z
" style="fill:#1f77b4;opacity:0.5;"/>
   </g>
   <g id="patch_131">
    <path clip-path="url(#p8a07eb2e2e)" d="M 268.12017 228.14 
L 269.81108 228.14 
L 269.81108 228.14 
L 268.12017 228.14 
z
" style="fill:#1f77b4;opacity:0.5;"/>
   </g>
   <g id="patch_132">
    <path clip-path="url(#p8a07eb2e2e)" d="M 269.81108 228.14 
L 271.501989 228.14 
L 271.501989 203.033107 
L 269.81108 203.033107 
z
" style="fill:#1f77b4;opacity:0.5;"/>
   </g>
   <g id="patch_133">
    <path clip-path="url(#p8a07eb2e2e)" d="M 271.501989 228.14 
L 273.192898 228.14 
L 273.192898 204.994583 
L 271.501989 204.994583 
z
" style="fill:#1f77b4;opacity:0.5;"/>
   </g>
   <g id="patch_134">
    <path clip-path="url(#p8a07eb2e2e)" d="M 273.192898 228.14 
L 274.883807 228.14 
L 274.883807 228.14 
L 273.192898 228.14 
z
" style="fill:#1f77b4;opacity:0.5;"/>
   </g>
   <g id="patch_135">
    <path clip-path="url(#p8a07eb2e2e)" d="M 274.883807 228.14 
L 276.574716 228.14 
L 276.574716 198.71786 
L 274.883807 198.71786 
z
" style="fill:#1f77b4;opacity:0.5;"/>
   </g>
   <g id="patch_136">
    <path clip-path="url(#p8a07eb2e2e)" d="M 276.574716 228.14 
L 278.265625 228.14 
L 278.265625 228.14 
L 276.574716 228.14 
z
" style="fill:#1f77b4;opacity:0.5;"/>
   </g>
   <g id="patch_137">
    <path clip-path="url(#p8a07eb2e2e)" d="M 278.265625 228.14 
L 279.956534 228.14 
L 279.956534 203.171564 
L 278.265625 203.171564 
z
" style="fill:#1f77b4;opacity:0.5;"/>
   </g>
   <g id="patch_138">
    <path clip-path="url(#p8a07eb2e2e)" d="M 279.956534 228.14 
L 281.647443 228.14 
L 281.647443 228.14 
L 279.956534 228.14 
z
" style="fill:#1f77b4;opacity:0.5;"/>
   </g>
   <g id="patch_139">
    <path clip-path="url(#p8a07eb2e2e)" d="M 281.647443 228.14 
L 283.338352 228.14 
L 283.338352 201.786993 
L 281.647443 201.786993 
z
" style="fill:#1f77b4;opacity:0.5;"/>
   </g>
   <g id="patch_140">
    <path clip-path="url(#p8a07eb2e2e)" d="M 283.338352 228.14 
L 285.029261 228.14 
L 285.029261 228.14 
L 283.338352 228.14 
z
" style="fill:#1f77b4;opacity:0.5;"/>
   </g>
   <g id="patch_141">
    <path clip-path="url(#p8a07eb2e2e)" d="M 285.029261 228.14 
L 286.72017 228.14 
L 286.72017 213.325087 
L 285.029261 213.325087 
z
" style="fill:#1f77b4;opacity:0.5;"/>
   </g>
   <g id="patch_142">
    <path clip-path="url(#p8a07eb2e2e)" d="M 286.72017 228.14 
L 288.41108 228.14 
L 288.41108 228.14 
L 286.72017 228.14 
z
" style="fill:#1f77b4;opacity:0.5;"/>
   </g>
   <g id="patch_143">
    <path clip-path="url(#p8a07eb2e2e)" d="M 288.41108 228.14 
L 290.101989 228.14 
L 290.101989 215.632706 
L 288.41108 215.632706 
z
" style="fill:#1f77b4;opacity:0.5;"/>
   </g>
   <g id="patch_144">
    <path clip-path="url(#p8a07eb2e2e)" d="M 290.101989 228.14 
L 291.792898 228.14 
L 291.792898 228.14 
L 290.101989 228.14 
z
" style="fill:#1f77b4;opacity:0.5;"/>
   </g>
   <g id="patch_145">
    <path clip-path="url(#p8a07eb2e2e)" d="M 291.792898 228.14 
L 293.483807 228.14 
L 293.483807 221.747896 
L 291.792898 221.747896 
z
" style="fill:#1f77b4;opacity:0.5;"/>
   </g>
   <g id="patch_146">
    <path clip-path="url(#p8a07eb2e2e)" d="M 293.483807 228.14 
L 295.174716 228.14 
L 295.174716 228.14 
L 293.483807 228.14 
z
" style="fill:#1f77b4;opacity:0.5;"/>
   </g>
   <g id="patch_147">
    <path clip-path="url(#p8a07eb2e2e)" d="M 295.174716 228.14 
L 296.865625 228.14 
L 296.865625 224.286277 
L 295.174716 224.286277 
z
" style="fill:#1f77b4;opacity:0.5;"/>
   </g>
   <g id="patch_148">
    <path clip-path="url(#p8a07eb2e2e)" d="M 296.865625 228.14 
L 298.556534 228.14 
L 298.556534 228.14 
L 296.865625 228.14 
z
" style="fill:#1f77b4;opacity:0.5;"/>
   </g>
   <g id="patch_149">
    <path clip-path="url(#p8a07eb2e2e)" d="M 298.556534 228.14 
L 300.247443 228.14 
L 300.247443 226.755429 
L 298.556534 226.755429 
z
" style="fill:#1f77b4;opacity:0.5;"/>
   </g>
   <g id="patch_150">
    <path clip-path="url(#p8a07eb2e2e)" d="M 300.247443 228.14 
L 301.938352 228.14 
L 301.938352 227.424638 
L 300.247443 227.424638 
z
" style="fill:#1f77b4;opacity:0.5;"/>
   </g>
   <g id="patch_151">
    <path clip-path="url(#p8a07eb2e2e)" d="M 301.938352 228.14 
L 303.629261 228.14 
L 303.629261 228.14 
L 301.938352 228.14 
z
" style="fill:#1f77b4;opacity:0.5;"/>
   </g>
   <g id="patch_152">
    <path clip-path="url(#p8a07eb2e2e)" d="M 303.629261 228.14 
L 305.32017 228.14 
L 305.32017 228.14 
L 303.629261 228.14 
z
" style="fill:#1f77b4;opacity:0.5;"/>
   </g>
   <g id="patch_153">
    <path clip-path="url(#p8a07eb2e2e)" d="M 305.32017 228.14 
L 307.01108 228.14 
L 307.01108 227.863086 
L 305.32017 227.863086 
z
" style="fill:#1f77b4;opacity:0.5;"/>
   </g>
   <g id="patch_154">
    <path clip-path="url(#p8a07eb2e2e)" d="M 307.01108 228.14 
L 308.701989 228.14 
L 308.701989 228.047695 
L 307.01108 228.047695 
z
" style="fill:#1f77b4;opacity:0.5;"/>
   </g>
   <g id="patch_155">
    <path clip-path="url(#p8a07eb2e2e)" d="M 308.701989 228.14 
L 310.392898 228.14 
L 310.392898 228.14 
L 308.701989 228.14 
z
" style="fill:#1f77b4;opacity:0.5;"/>
   </g>
   <g id="patch_156">
    <path clip-path="url(#p8a07eb2e2e)" d="M 310.392898 228.14 
L 312.083807 228.14 
L 312.083807 228.116924 
L 310.392898 228.116924 
z
" style="fill:#1f77b4;opacity:0.5;"/>
   </g>
   <g id="patch_157">
    <path clip-path="url(#p8a07eb2e2e)" d="M 312.083807 228.14 
L 313.774716 228.14 
L 313.774716 228.14 
L 312.083807 228.14 
z
" style="fill:#1f77b4;opacity:0.5;"/>
   </g>
   <g id="patch_158">
    <path clip-path="url(#p8a07eb2e2e)" d="M 313.774716 228.14 
L 315.465625 228.14 
L 315.465625 228.024619 
L 313.774716 228.024619 
z
" style="fill:#1f77b4;opacity:0.5;"/>
   </g>
   <g id="patch_159">
    <path clip-path="url(#p8a07eb2e2e)" d="M 315.465625 228.14 
L 317.156534 228.14 
L 317.156534 228.14 
L 315.465625 228.14 
z
" style="fill:#1f77b4;opacity:0.5;"/>
   </g>
   <g id="patch_160">
    <path clip-path="url(#p8a07eb2e2e)" d="M 317.156534 228.14 
L 318.847443 228.14 
L 318.847443 228.116924 
L 317.156534 228.116924 
z
" style="fill:#1f77b4;opacity:0.5;"/>
   </g>
   <g id="patch_161">
    <path clip-path="url(#p8a07eb2e2e)" d="M 318.847443 228.14 
L 320.538352 228.14 
L 320.538352 228.14 
L 318.847443 228.14 
z
" style="fill:#1f77b4;opacity:0.5;"/>
   </g>
   <g id="patch_162">
    <path clip-path="url(#p8a07eb2e2e)" d="M 320.538352 228.14 
L 322.229261 228.14 
L 322.229261 228.093848 
L 320.538352 228.093848 
z
" style="fill:#1f77b4;opacity:0.5;"/>
   </g>
   <g id="patch_163">
    <path clip-path="url(#p8a07eb2e2e)" d="M 322.229261 228.14 
L 323.92017 228.14 
L 323.92017 228.14 
L 322.229261 228.14 
z
" style="fill:#1f77b4;opacity:0.5;"/>
   </g>
   <g id="patch_164">
    <path clip-path="url(#p8a07eb2e2e)" d="M 323.92017 228.14 
L 325.61108 228.14 
L 325.61108 228.14 
L 323.92017 228.14 
z
" style="fill:#1f77b4;opacity:0.5;"/>
   </g>
   <g id="patch_165">
    <path clip-path="url(#p8a07eb2e2e)" d="M 325.61108 228.14 
L 327.301989 228.14 
L 327.301989 228.116924 
L 325.61108 228.116924 
z
" style="fill:#1f77b4;opacity:0.5;"/>
   </g>
   <g id="patch_166">
    <path clip-path="url(#p8a07eb2e2e)" d="M 327.301989 228.14 
L 328.992898 228.14 
L 328.992898 228.14 
L 327.301989 228.14 
z
" style="fill:#1f77b4;opacity:0.5;"/>
   </g>
   <g id="patch_167">
    <path clip-path="url(#p8a07eb2e2e)" d="M 328.992898 228.14 
L 330.683807 228.14 
L 330.683807 228.14 
L 328.992898 228.14 
z
" style="fill:#1f77b4;opacity:0.5;"/>
   </g>
   <g id="patch_168">
    <path clip-path="url(#p8a07eb2e2e)" d="M 330.683807 228.14 
L 332.374716 228.14 
L 332.374716 228.14 
L 330.683807 228.14 
z
" style="fill:#1f77b4;opacity:0.5;"/>
   </g>
   <g id="patch_169">
    <path clip-path="url(#p8a07eb2e2e)" d="M 332.374716 228.14 
L 334.065625 228.14 
L 334.065625 228.14 
L 332.374716 228.14 
z
" style="fill:#1f77b4;opacity:0.5;"/>
   </g>
   <g id="patch_170">
    <path clip-path="url(#p8a07eb2e2e)" d="M 334.065625 228.14 
L 335.756534 228.14 
L 335.756534 228.14 
L 334.065625 228.14 
z
" style="fill:#1f77b4;opacity:0.5;"/>
   </g>
   <g id="patch_171">
    <path clip-path="url(#p8a07eb2e2e)" d="M 335.756534 228.14 
L 337.447443 228.14 
L 337.447443 228.14 
L 335.756534 228.14 
z
" style="fill:#1f77b4;opacity:0.5;"/>
   </g>
   <g id="patch_172">
    <path clip-path="url(#p8a07eb2e2e)" d="M 337.447443 228.14 
L 339.138352 228.14 
L 339.138352 228.14 
L 337.447443 228.14 
z
" style="fill:#1f77b4;opacity:0.5;"/>
   </g>
   <g id="patch_173">
    <path clip-path="url(#p8a07eb2e2e)" d="M 339.138352 228.14 
L 340.829261 228.14 
L 340.829261 228.14 
L 339.138352 228.14 
z
" style="fill:#1f77b4;opacity:0.5;"/>
   </g>
   <g id="patch_174">
    <path clip-path="url(#p8a07eb2e2e)" d="M 340.829261 228.14 
L 342.52017 228.14 
L 342.52017 228.14 
L 340.829261 228.14 
z
" style="fill:#1f77b4;opacity:0.5;"/>
   </g>
   <g id="patch_175">
    <path clip-path="url(#p8a07eb2e2e)" d="M 342.52017 228.14 
L 344.21108 228.14 
L 344.21108 228.14 
L 342.52017 228.14 
z
" style="fill:#1f77b4;opacity:0.5;"/>
   </g>
   <g id="patch_176">
    <path clip-path="url(#p8a07eb2e2e)" d="M 344.21108 228.14 
L 345.901989 228.14 
L 345.901989 228.14 
L 344.21108 228.14 
z
" style="fill:#1f77b4;opacity:0.5;"/>
   </g>
   <g id="patch_177">
    <path clip-path="url(#p8a07eb2e2e)" d="M 345.901989 228.14 
L 347.592898 228.14 
L 347.592898 228.14 
L 345.901989 228.14 
z
" style="fill:#1f77b4;opacity:0.5;"/>
   </g>
   <g id="patch_178">
    <path clip-path="url(#p8a07eb2e2e)" d="M 347.592898 228.14 
L 349.283807 228.14 
L 349.283807 228.14 
L 347.592898 228.14 
z
" style="fill:#1f77b4;opacity:0.5;"/>
   </g>
   <g id="patch_179">
    <path clip-path="url(#p8a07eb2e2e)" d="M 349.283807 228.14 
L 350.974716 228.14 
L 350.974716 228.116924 
L 349.283807 228.116924 
z
" style="fill:#1f77b4;opacity:0.5;"/>
   </g>
   <g id="patch_180">
    <path clip-path="url(#p8a07eb2e2e)" d="M 350.974716 228.14 
L 352.665625 228.14 
L 352.665625 228.14 
L 350.974716 228.14 
z
" style="fill:#1f77b4;opacity:0.5;"/>
   </g>
   <g id="patch_181">
    <path clip-path="url(#p8a07eb2e2e)" d="M 352.665625 228.14 
L 354.356534 228.14 
L 354.356534 228.14 
L 352.665625 228.14 
z
" style="fill:#1f77b4;opacity:0.5;"/>
   </g>
   <g id="patch_182">
    <path clip-path="url(#p8a07eb2e2e)" d="M 354.356534 228.14 
L 356.047443 228.14 
L 356.047443 228.093848 
L 354.356534 228.093848 
z
" style="fill:#1f77b4;opacity:0.5;"/>
   </g>
   <g id="matplotlib.axis_1">
    <g id="xtick_1">
     <g id="line2d_1">
      <defs>
       <path d="M 0 0 
L 0 3.5 
" id="mbd382cf5f3" style="stroke:#000000;stroke-width:0.8;"/>
      </defs>
      <g>
       <use style="stroke:#000000;stroke-width:0.8;" x="50.415625" xlink:href="#mbd382cf5f3" y="228.14"/>
      </g>
     </g>
     <g id="text_1">
      <!-- 0 -->
      <defs>
       <path d="M 31.78125 66.40625 
Q 24.171875 66.40625 20.328125 58.90625 
Q 16.5 51.421875 16.5 36.375 
Q 16.5 21.390625 20.328125 13.890625 
Q 24.171875 6.390625 31.78125 6.390625 
Q 39.453125 6.390625 43.28125 13.890625 
Q 47.125 21.390625 47.125 36.375 
Q 47.125 51.421875 43.28125 58.90625 
Q 39.453125 66.40625 31.78125 66.40625 
z
M 31.78125 74.21875 
Q 44.046875 74.21875 50.515625 64.515625 
Q 56.984375 54.828125 56.984375 36.375 
Q 56.984375 17.96875 50.515625 8.265625 
Q 44.046875 -1.421875 31.78125 -1.421875 
Q 19.53125 -1.421875 13.0625 8.265625 
Q 6.59375 17.96875 6.59375 36.375 
Q 6.59375 54.828125 13.0625 64.515625 
Q 19.53125 74.21875 31.78125 74.21875 
z
" id="DejaVuSans-48"/>
      </defs>
      <g transform="translate(47.234375 242.738437)scale(0.1 -0.1)">
       <use xlink:href="#DejaVuSans-48"/>
      </g>
     </g>
    </g>
    <g id="xtick_2">
     <g id="line2d_2">
      <g>
       <use style="stroke:#000000;stroke-width:0.8;" x="113.824716" xlink:href="#mbd382cf5f3" y="228.14"/>
      </g>
     </g>
     <g id="text_2">
      <!-- 50 -->
      <defs>
       <path d="M 10.796875 72.90625 
L 49.515625 72.90625 
L 49.515625 64.59375 
L 19.828125 64.59375 
L 19.828125 46.734375 
Q 21.96875 47.46875 24.109375 47.828125 
Q 26.265625 48.1875 28.421875 48.1875 
Q 40.625 48.1875 47.75 41.5 
Q 54.890625 34.8125 54.890625 23.390625 
Q 54.890625 11.625 47.5625 5.09375 
Q 40.234375 -1.421875 26.90625 -1.421875 
Q 22.3125 -1.421875 17.546875 -0.640625 
Q 12.796875 0.140625 7.71875 1.703125 
L 7.71875 11.625 
Q 12.109375 9.234375 16.796875 8.0625 
Q 21.484375 6.890625 26.703125 6.890625 
Q 35.15625 6.890625 40.078125 11.328125 
Q 45.015625 15.765625 45.015625 23.390625 
Q 45.015625 31 40.078125 35.4375 
Q 35.15625 39.890625 26.703125 39.890625 
Q 22.75 39.890625 18.8125 39.015625 
Q 14.890625 38.140625 10.796875 36.28125 
z
" id="DejaVuSans-53"/>
      </defs>
      <g transform="translate(107.462216 242.738437)scale(0.1 -0.1)">
       <use xlink:href="#DejaVuSans-53"/>
       <use x="63.623047" xlink:href="#DejaVuSans-48"/>
      </g>
     </g>
    </g>
    <g id="xtick_3">
     <g id="line2d_3">
      <g>
       <use style="stroke:#000000;stroke-width:0.8;" x="177.233807" xlink:href="#mbd382cf5f3" y="228.14"/>
      </g>
     </g>
     <g id="text_3">
      <!-- 100 -->
      <defs>
       <path d="M 12.40625 8.296875 
L 28.515625 8.296875 
L 28.515625 63.921875 
L 10.984375 60.40625 
L 10.984375 69.390625 
L 28.421875 72.90625 
L 38.28125 72.90625 
L 38.28125 8.296875 
L 54.390625 8.296875 
L 54.390625 0 
L 12.40625 0 
z
" id="DejaVuSans-49"/>
      </defs>
      <g transform="translate(167.690057 242.738437)scale(0.1 -0.1)">
       <use xlink:href="#DejaVuSans-49"/>
       <use x="63.623047" xlink:href="#DejaVuSans-48"/>
       <use x="127.246094" xlink:href="#DejaVuSans-48"/>
      </g>
     </g>
    </g>
    <g id="xtick_4">
     <g id="line2d_4">
      <g>
       <use style="stroke:#000000;stroke-width:0.8;" x="240.642898" xlink:href="#mbd382cf5f3" y="228.14"/>
      </g>
     </g>
     <g id="text_4">
      <!-- 150 -->
      <g transform="translate(231.099148 242.738437)scale(0.1 -0.1)">
       <use xlink:href="#DejaVuSans-49"/>
       <use x="63.623047" xlink:href="#DejaVuSans-53"/>
       <use x="127.246094" xlink:href="#DejaVuSans-48"/>
      </g>
     </g>
    </g>
    <g id="xtick_5">
     <g id="line2d_5">
      <g>
       <use style="stroke:#000000;stroke-width:0.8;" x="304.051989" xlink:href="#mbd382cf5f3" y="228.14"/>
      </g>
     </g>
     <g id="text_5">
      <!-- 200 -->
      <defs>
       <path d="M 19.1875 8.296875 
L 53.609375 8.296875 
L 53.609375 0 
L 7.328125 0 
L 7.328125 8.296875 
Q 12.9375 14.109375 22.625 23.890625 
Q 32.328125 33.6875 34.8125 36.53125 
Q 39.546875 41.84375 41.421875 45.53125 
Q 43.3125 49.21875 43.3125 52.78125 
Q 43.3125 58.59375 39.234375 62.25 
Q 35.15625 65.921875 28.609375 65.921875 
Q 23.96875 65.921875 18.8125 64.3125 
Q 13.671875 62.703125 7.8125 59.421875 
L 7.8125 69.390625 
Q 13.765625 71.78125 18.9375 73 
Q 24.125 74.21875 28.421875 74.21875 
Q 39.75 74.21875 46.484375 68.546875 
Q 53.21875 62.890625 53.21875 53.421875 
Q 53.21875 48.921875 51.53125 44.890625 
Q 49.859375 40.875 45.40625 35.40625 
Q 44.1875 33.984375 37.640625 27.21875 
Q 31.109375 20.453125 19.1875 8.296875 
z
" id="DejaVuSans-50"/>
      </defs>
      <g transform="translate(294.508239 242.738437)scale(0.1 -0.1)">
       <use xlink:href="#DejaVuSans-50"/>
       <use x="63.623047" xlink:href="#DejaVuSans-48"/>
       <use x="127.246094" xlink:href="#DejaVuSans-48"/>
      </g>
     </g>
    </g>
    <g id="xtick_6">
     <g id="line2d_6">
      <g>
       <use style="stroke:#000000;stroke-width:0.8;" x="367.46108" xlink:href="#mbd382cf5f3" y="228.14"/>
      </g>
     </g>
     <g id="text_6">
      <!-- 250 -->
      <g transform="translate(357.91733 242.738437)scale(0.1 -0.1)">
       <use xlink:href="#DejaVuSans-50"/>
       <use x="63.623047" xlink:href="#DejaVuSans-53"/>
       <use x="127.246094" xlink:href="#DejaVuSans-48"/>
      </g>
     </g>
    </g>
   </g>
   <g id="matplotlib.axis_2">
    <g id="ytick_1">
     <g id="line2d_7">
      <defs>
       <path d="M 0 0 
L -3.5 0 
" id="mf70dc8e744" style="stroke:#000000;stroke-width:0.8;"/>
      </defs>
      <g>
       <use style="stroke:#000000;stroke-width:0.8;" x="36.465625" xlink:href="#mf70dc8e744" y="228.14"/>
      </g>
     </g>
     <g id="text_7">
      <!-- 0.00 -->
      <defs>
       <path d="M 10.6875 12.40625 
L 21 12.40625 
L 21 0 
L 10.6875 0 
z
" id="DejaVuSans-46"/>
      </defs>
      <g transform="translate(7.2 231.939219)scale(0.1 -0.1)">
       <use xlink:href="#DejaVuSans-48"/>
       <use x="63.623047" xlink:href="#DejaVuSans-46"/>
       <use x="95.410156" xlink:href="#DejaVuSans-48"/>
       <use x="159.033203" xlink:href="#DejaVuSans-48"/>
      </g>
     </g>
    </g>
    <g id="ytick_2">
     <g id="line2d_8">
      <g>
       <use style="stroke:#000000;stroke-width:0.8;" x="36.465625" xlink:href="#mf70dc8e744" y="191.254405"/>
      </g>
     </g>
     <g id="text_8">
      <!-- 0.02 -->
      <g transform="translate(7.2 195.053624)scale(0.1 -0.1)">
       <use xlink:href="#DejaVuSans-48"/>
       <use x="63.623047" xlink:href="#DejaVuSans-46"/>
       <use x="95.410156" xlink:href="#DejaVuSans-48"/>
       <use x="159.033203" xlink:href="#DejaVuSans-50"/>
      </g>
     </g>
    </g>
    <g id="ytick_3">
     <g id="line2d_9">
      <g>
       <use style="stroke:#000000;stroke-width:0.8;" x="36.465625" xlink:href="#mf70dc8e744" y="154.36881"/>
      </g>
     </g>
     <g id="text_9">
      <!-- 0.04 -->
      <defs>
       <path d="M 37.796875 64.3125 
L 12.890625 25.390625 
L 37.796875 25.390625 
z
M 35.203125 72.90625 
L 47.609375 72.90625 
L 47.609375 25.390625 
L 58.015625 25.390625 
L 58.015625 17.1875 
L 47.609375 17.1875 
L 47.609375 0 
L 37.796875 0 
L 37.796875 17.1875 
L 4.890625 17.1875 
L 4.890625 26.703125 
z
" id="DejaVuSans-52"/>
      </defs>
      <g transform="translate(7.2 158.168029)scale(0.1 -0.1)">
       <use xlink:href="#DejaVuSans-48"/>
       <use x="63.623047" xlink:href="#DejaVuSans-46"/>
       <use x="95.410156" xlink:href="#DejaVuSans-48"/>
       <use x="159.033203" xlink:href="#DejaVuSans-52"/>
      </g>
     </g>
    </g>
    <g id="ytick_4">
     <g id="line2d_10">
      <g>
       <use style="stroke:#000000;stroke-width:0.8;" x="36.465625" xlink:href="#mf70dc8e744" y="117.483216"/>
      </g>
     </g>
     <g id="text_10">
      <!-- 0.06 -->
      <defs>
       <path d="M 33.015625 40.375 
Q 26.375 40.375 22.484375 35.828125 
Q 18.609375 31.296875 18.609375 23.390625 
Q 18.609375 15.53125 22.484375 10.953125 
Q 26.375 6.390625 33.015625 6.390625 
Q 39.65625 6.390625 43.53125 10.953125 
Q 47.40625 15.53125 47.40625 23.390625 
Q 47.40625 31.296875 43.53125 35.828125 
Q 39.65625 40.375 33.015625 40.375 
z
M 52.59375 71.296875 
L 52.59375 62.3125 
Q 48.875 64.0625 45.09375 64.984375 
Q 41.3125 65.921875 37.59375 65.921875 
Q 27.828125 65.921875 22.671875 59.328125 
Q 17.53125 52.734375 16.796875 39.40625 
Q 19.671875 43.65625 24.015625 45.921875 
Q 28.375 48.1875 33.59375 48.1875 
Q 44.578125 48.1875 50.953125 41.515625 
Q 57.328125 34.859375 57.328125 23.390625 
Q 57.328125 12.15625 50.6875 5.359375 
Q 44.046875 -1.421875 33.015625 -1.421875 
Q 20.359375 -1.421875 13.671875 8.265625 
Q 6.984375 17.96875 6.984375 36.375 
Q 6.984375 53.65625 15.1875 63.9375 
Q 23.390625 74.21875 37.203125 74.21875 
Q 40.921875 74.21875 44.703125 73.484375 
Q 48.484375 72.75 52.59375 71.296875 
z
" id="DejaVuSans-54"/>
      </defs>
      <g transform="translate(7.2 121.282434)scale(0.1 -0.1)">
       <use xlink:href="#DejaVuSans-48"/>
       <use x="63.623047" xlink:href="#DejaVuSans-46"/>
       <use x="95.410156" xlink:href="#DejaVuSans-48"/>
       <use x="159.033203" xlink:href="#DejaVuSans-54"/>
      </g>
     </g>
    </g>
    <g id="ytick_5">
     <g id="line2d_11">
      <g>
       <use style="stroke:#000000;stroke-width:0.8;" x="36.465625" xlink:href="#mf70dc8e744" y="80.597621"/>
      </g>
     </g>
     <g id="text_11">
      <!-- 0.08 -->
      <defs>
       <path d="M 31.78125 34.625 
Q 24.75 34.625 20.71875 30.859375 
Q 16.703125 27.09375 16.703125 20.515625 
Q 16.703125 13.921875 20.71875 10.15625 
Q 24.75 6.390625 31.78125 6.390625 
Q 38.8125 6.390625 42.859375 10.171875 
Q 46.921875 13.96875 46.921875 20.515625 
Q 46.921875 27.09375 42.890625 30.859375 
Q 38.875 34.625 31.78125 34.625 
z
M 21.921875 38.8125 
Q 15.578125 40.375 12.03125 44.71875 
Q 8.5 49.078125 8.5 55.328125 
Q 8.5 64.0625 14.71875 69.140625 
Q 20.953125 74.21875 31.78125 74.21875 
Q 42.671875 74.21875 48.875 69.140625 
Q 55.078125 64.0625 55.078125 55.328125 
Q 55.078125 49.078125 51.53125 44.71875 
Q 48 40.375 41.703125 38.8125 
Q 48.828125 37.15625 52.796875 32.3125 
Q 56.78125 27.484375 56.78125 20.515625 
Q 56.78125 9.90625 50.3125 4.234375 
Q 43.84375 -1.421875 31.78125 -1.421875 
Q 19.734375 -1.421875 13.25 4.234375 
Q 6.78125 9.90625 6.78125 20.515625 
Q 6.78125 27.484375 10.78125 32.3125 
Q 14.796875 37.15625 21.921875 38.8125 
z
M 18.3125 54.390625 
Q 18.3125 48.734375 21.84375 45.5625 
Q 25.390625 42.390625 31.78125 42.390625 
Q 38.140625 42.390625 41.71875 45.5625 
Q 45.3125 48.734375 45.3125 54.390625 
Q 45.3125 60.0625 41.71875 63.234375 
Q 38.140625 66.40625 31.78125 66.40625 
Q 25.390625 66.40625 21.84375 63.234375 
Q 18.3125 60.0625 18.3125 54.390625 
z
" id="DejaVuSans-56"/>
      </defs>
      <g transform="translate(7.2 84.396839)scale(0.1 -0.1)">
       <use xlink:href="#DejaVuSans-48"/>
       <use x="63.623047" xlink:href="#DejaVuSans-46"/>
       <use x="95.410156" xlink:href="#DejaVuSans-48"/>
       <use x="159.033203" xlink:href="#DejaVuSans-56"/>
      </g>
     </g>
    </g>
    <g id="ytick_6">
     <g id="line2d_12">
      <g>
       <use style="stroke:#000000;stroke-width:0.8;" x="36.465625" xlink:href="#mf70dc8e744" y="43.712026"/>
      </g>
     </g>
     <g id="text_12">
      <!-- 0.10 -->
      <g transform="translate(7.2 47.511245)scale(0.1 -0.1)">
       <use xlink:href="#DejaVuSans-48"/>
       <use x="63.623047" xlink:href="#DejaVuSans-46"/>
       <use x="95.410156" xlink:href="#DejaVuSans-49"/>
       <use x="159.033203" xlink:href="#DejaVuSans-48"/>
      </g>
     </g>
    </g>
   </g>
   <g id="patch_183">
    <path d="M 36.465625 228.14 
L 36.465625 10.7 
" style="fill:none;stroke:#000000;stroke-linecap:square;stroke-linejoin:miter;stroke-width:0.8;"/>
   </g>
   <g id="patch_184">
    <path d="M 371.265625 228.14 
L 371.265625 10.7 
" style="fill:none;stroke:#000000;stroke-linecap:square;stroke-linejoin:miter;stroke-width:0.8;"/>
   </g>
   <g id="patch_185">
    <path d="M 36.465625 228.14 
L 371.265625 228.14 
" style="fill:none;stroke:#000000;stroke-linecap:square;stroke-linejoin:miter;stroke-width:0.8;"/>
   </g>
   <g id="patch_186">
    <path d="M 36.465625 10.7 
L 371.265625 10.7 
" style="fill:none;stroke:#000000;stroke-linecap:square;stroke-linejoin:miter;stroke-width:0.8;"/>
   </g>
  </g>
 </g>
 <defs>
  <clipPath id="p8a07eb2e2e">
   <rect height="217.44" width="334.8" x="36.465625" y="10.7"/>
  </clipPath>
 </defs>
</svg>
