<?xml version="1.0" encoding="utf-8" standalone="no"?>
<!DOCTYPE svg PUBLIC "-//W3C//DTD SVG 1.1//EN"
  "http://www.w3.org/Graphics/SVG/1.1/DTD/svg11.dtd">
<!-- Created with matplotlib (https://matplotlib.org/) -->
<svg height="252.018125pt" version="1.1" viewBox="0 0 401.053125 252.018125" width="401.053125pt" xmlns="http://www.w3.org/2000/svg" xmlns:xlink="http://www.w3.org/1999/xlink">
 <defs>
  <style type="text/css">
*{stroke-linecap:butt;stroke-linejoin:round;}
  </style>
 </defs>
 <g id="figure_1">
  <g id="patch_1">
   <path d="M 0 252.018125 
L 401.053125 252.018125 
L 401.053125 0 
L 0 0 
z
" style="fill:none;"/>
  </g>
  <g id="axes_1">
   <g id="patch_2">
    <path d="M 55.553125 228.14 
L 390.353125 228.14 
L 390.353125 10.7 
L 55.553125 10.7 
z
" style="fill:#ffffff;"/>
   </g>
   <g id="patch_3">
    <path clip-path="url(#p70e8c0aafb)" d="M 70.771307 228.14 
L 73.814943 228.14 
L 73.814943 21.054286 
L 70.771307 21.054286 
z
" style="fill:#1f77b4;opacity:0.5;"/>
   </g>
   <g id="patch_4">
    <path clip-path="url(#p70e8c0aafb)" d="M 73.814943 228.14 
L 76.85858 228.14 
L 76.85858 228.14 
L 73.814943 228.14 
z
" style="fill:#1f77b4;opacity:0.5;"/>
   </g>
   <g id="patch_5">
    <path clip-path="url(#p70e8c0aafb)" d="M 76.85858 228.14 
L 79.902216 228.14 
L 79.902216 228.14 
L 76.85858 228.14 
z
" style="fill:#1f77b4;opacity:0.5;"/>
   </g>
   <g id="patch_6">
    <path clip-path="url(#p70e8c0aafb)" d="M 79.902216 228.14 
L 82.945852 228.14 
L 82.945852 228.14 
L 79.902216 228.14 
z
" style="fill:#1f77b4;opacity:0.5;"/>
   </g>
   <g id="patch_7">
    <path clip-path="url(#p70e8c0aafb)" d="M 82.945852 228.14 
L 85.989489 228.14 
L 85.989489 228.14 
L 82.945852 228.14 
z
" style="fill:#1f77b4;opacity:0.5;"/>
   </g>
   <g id="patch_8">
    <path clip-path="url(#p70e8c0aafb)" d="M 85.989489 228.14 
L 89.033125 228.14 
L 89.033125 228.14 
L 85.989489 228.14 
z
" style="fill:#1f77b4;opacity:0.5;"/>
   </g>
   <g id="patch_9">
    <path clip-path="url(#p70e8c0aafb)" d="M 89.033125 228.14 
L 92.076761 228.14 
L 92.076761 228.14 
L 89.033125 228.14 
z
" style="fill:#1f77b4;opacity:0.5;"/>
   </g>
   <g id="patch_10">
    <path clip-path="url(#p70e8c0aafb)" d="M 92.076761 228.14 
L 95.120398 228.14 
L 95.120398 228.14 
L 92.076761 228.14 
z
" style="fill:#1f77b4;opacity:0.5;"/>
   </g>
   <g id="patch_11">
    <path clip-path="url(#p70e8c0aafb)" d="M 95.120398 228.14 
L 98.164034 228.14 
L 98.164034 228.14 
L 95.120398 228.14 
z
" style="fill:#1f77b4;opacity:0.5;"/>
   </g>
   <g id="patch_12">
    <path clip-path="url(#p70e8c0aafb)" d="M 98.164034 228.14 
L 101.20767 228.14 
L 101.20767 228.14 
L 98.164034 228.14 
z
" style="fill:#1f77b4;opacity:0.5;"/>
   </g>
   <g id="patch_13">
    <path clip-path="url(#p70e8c0aafb)" d="M 101.20767 228.14 
L 104.251307 228.14 
L 104.251307 228.14 
L 101.20767 228.14 
z
" style="fill:#1f77b4;opacity:0.5;"/>
   </g>
   <g id="patch_14">
    <path clip-path="url(#p70e8c0aafb)" d="M 104.251307 228.14 
L 107.294943 228.14 
L 107.294943 228.14 
L 104.251307 228.14 
z
" style="fill:#1f77b4;opacity:0.5;"/>
   </g>
   <g id="patch_15">
    <path clip-path="url(#p70e8c0aafb)" d="M 107.294943 228.14 
L 110.33858 228.14 
L 110.33858 228.14 
L 107.294943 228.14 
z
" style="fill:#1f77b4;opacity:0.5;"/>
   </g>
   <g id="patch_16">
    <path clip-path="url(#p70e8c0aafb)" d="M 110.33858 228.14 
L 113.382216 228.14 
L 113.382216 228.14 
L 110.33858 228.14 
z
" style="fill:#1f77b4;opacity:0.5;"/>
   </g>
   <g id="patch_17">
    <path clip-path="url(#p70e8c0aafb)" d="M 113.382216 228.14 
L 116.425852 228.14 
L 116.425852 228.14 
L 113.382216 228.14 
z
" style="fill:#1f77b4;opacity:0.5;"/>
   </g>
   <g id="patch_18">
    <path clip-path="url(#p70e8c0aafb)" d="M 116.425852 228.14 
L 119.469489 228.14 
L 119.469489 228.14 
L 116.425852 228.14 
z
" style="fill:#1f77b4;opacity:0.5;"/>
   </g>
   <g id="patch_19">
    <path clip-path="url(#p70e8c0aafb)" d="M 119.469489 228.14 
L 122.513125 228.14 
L 122.513125 228.14 
L 119.469489 228.14 
z
" style="fill:#1f77b4;opacity:0.5;"/>
   </g>
   <g id="patch_20">
    <path clip-path="url(#p70e8c0aafb)" d="M 122.513125 228.14 
L 125.556761 228.14 
L 125.556761 228.14 
L 122.513125 228.14 
z
" style="fill:#1f77b4;opacity:0.5;"/>
   </g>
   <g id="patch_21">
    <path clip-path="url(#p70e8c0aafb)" d="M 125.556761 228.14 
L 128.600398 228.14 
L 128.600398 228.14 
L 125.556761 228.14 
z
" style="fill:#1f77b4;opacity:0.5;"/>
   </g>
   <g id="patch_22">
    <path clip-path="url(#p70e8c0aafb)" d="M 128.600398 228.14 
L 131.644034 228.14 
L 131.644034 228.14 
L 128.600398 228.14 
z
" style="fill:#1f77b4;opacity:0.5;"/>
   </g>
   <g id="patch_23">
    <path clip-path="url(#p70e8c0aafb)" d="M 131.644034 228.14 
L 134.68767 228.14 
L 134.68767 228.14 
L 131.644034 228.14 
z
" style="fill:#1f77b4;opacity:0.5;"/>
   </g>
   <g id="patch_24">
    <path clip-path="url(#p70e8c0aafb)" d="M 134.68767 228.14 
L 137.731307 228.14 
L 137.731307 228.14 
L 134.68767 228.14 
z
" style="fill:#1f77b4;opacity:0.5;"/>
   </g>
   <g id="patch_25">
    <path clip-path="url(#p70e8c0aafb)" d="M 137.731307 228.14 
L 140.774943 228.14 
L 140.774943 228.14 
L 137.731307 228.14 
z
" style="fill:#1f77b4;opacity:0.5;"/>
   </g>
   <g id="patch_26">
    <path clip-path="url(#p70e8c0aafb)" d="M 140.774943 228.14 
L 143.81858 228.14 
L 143.81858 228.14 
L 140.774943 228.14 
z
" style="fill:#1f77b4;opacity:0.5;"/>
   </g>
   <g id="patch_27">
    <path clip-path="url(#p70e8c0aafb)" d="M 143.81858 228.14 
L 146.862216 228.14 
L 146.862216 228.14 
L 143.81858 228.14 
z
" style="fill:#1f77b4;opacity:0.5;"/>
   </g>
   <g id="patch_28">
    <path clip-path="url(#p70e8c0aafb)" d="M 146.862216 228.14 
L 149.905852 228.14 
L 149.905852 228.14 
L 146.862216 228.14 
z
" style="fill:#1f77b4;opacity:0.5;"/>
   </g>
   <g id="patch_29">
    <path clip-path="url(#p70e8c0aafb)" d="M 149.905852 228.14 
L 152.949489 228.14 
L 152.949489 228.14 
L 149.905852 228.14 
z
" style="fill:#1f77b4;opacity:0.5;"/>
   </g>
   <g id="patch_30">
    <path clip-path="url(#p70e8c0aafb)" d="M 152.949489 228.14 
L 155.993125 228.14 
L 155.993125 228.14 
L 152.949489 228.14 
z
" style="fill:#1f77b4;opacity:0.5;"/>
   </g>
   <g id="patch_31">
    <path clip-path="url(#p70e8c0aafb)" d="M 155.993125 228.14 
L 159.036761 228.14 
L 159.036761 228.14 
L 155.993125 228.14 
z
" style="fill:#1f77b4;opacity:0.5;"/>
   </g>
   <g id="patch_32">
    <path clip-path="url(#p70e8c0aafb)" d="M 159.036761 228.14 
L 162.080398 228.14 
L 162.080398 228.14 
L 159.036761 228.14 
z
" style="fill:#1f77b4;opacity:0.5;"/>
   </g>
   <g id="patch_33">
    <path clip-path="url(#p70e8c0aafb)" d="M 162.080398 228.14 
L 165.124034 228.14 
L 165.124034 228.14 
L 162.080398 228.14 
z
" style="fill:#1f77b4;opacity:0.5;"/>
   </g>
   <g id="patch_34">
    <path clip-path="url(#p70e8c0aafb)" d="M 165.124034 228.14 
L 168.16767 228.14 
L 168.16767 228.14 
L 165.124034 228.14 
z
" style="fill:#1f77b4;opacity:0.5;"/>
   </g>
   <g id="patch_35">
    <path clip-path="url(#p70e8c0aafb)" d="M 168.16767 228.14 
L 171.211307 228.14 
L 171.211307 228.14 
L 168.16767 228.14 
z
" style="fill:#1f77b4;opacity:0.5;"/>
   </g>
   <g id="patch_36">
    <path clip-path="url(#p70e8c0aafb)" d="M 171.211307 228.14 
L 174.254943 228.14 
L 174.254943 228.14 
L 171.211307 228.14 
z
" style="fill:#1f77b4;opacity:0.5;"/>
   </g>
   <g id="patch_37">
    <path clip-path="url(#p70e8c0aafb)" d="M 174.254943 228.14 
L 177.29858 228.14 
L 177.29858 228.14 
L 174.254943 228.14 
z
" style="fill:#1f77b4;opacity:0.5;"/>
   </g>
   <g id="patch_38">
    <path clip-path="url(#p70e8c0aafb)" d="M 177.29858 228.14 
L 180.342216 228.14 
L 180.342216 228.14 
L 177.29858 228.14 
z
" style="fill:#1f77b4;opacity:0.5;"/>
   </g>
   <g id="patch_39">
    <path clip-path="url(#p70e8c0aafb)" d="M 180.342216 228.14 
L 183.385852 228.14 
L 183.385852 228.14 
L 180.342216 228.14 
z
" style="fill:#1f77b4;opacity:0.5;"/>
   </g>
   <g id="patch_40">
    <path clip-path="url(#p70e8c0aafb)" d="M 183.385852 228.14 
L 186.429489 228.14 
L 186.429489 228.14 
L 183.385852 228.14 
z
" style="fill:#1f77b4;opacity:0.5;"/>
   </g>
   <g id="patch_41">
    <path clip-path="url(#p70e8c0aafb)" d="M 186.429489 228.14 
L 189.473125 228.14 
L 189.473125 228.14 
L 186.429489 228.14 
z
" style="fill:#1f77b4;opacity:0.5;"/>
   </g>
   <g id="patch_42">
    <path clip-path="url(#p70e8c0aafb)" d="M 189.473125 228.14 
L 192.516761 228.14 
L 192.516761 228.14 
L 189.473125 228.14 
z
" style="fill:#1f77b4;opacity:0.5;"/>
   </g>
   <g id="patch_43">
    <path clip-path="url(#p70e8c0aafb)" d="M 192.516761 228.14 
L 195.560398 228.14 
L 195.560398 215.520173 
L 192.516761 215.520173 
z
" style="fill:#1f77b4;opacity:0.5;"/>
   </g>
   <g id="patch_44">
    <path clip-path="url(#p70e8c0aafb)" d="M 195.560398 228.14 
L 198.604034 228.14 
L 198.604034 228.14 
L 195.560398 228.14 
z
" style="fill:#1f77b4;opacity:0.5;"/>
   </g>
   <g id="patch_45">
    <path clip-path="url(#p70e8c0aafb)" d="M 198.604034 228.14 
L 201.64767 228.14 
L 201.64767 228.14 
L 198.604034 228.14 
z
" style="fill:#1f77b4;opacity:0.5;"/>
   </g>
   <g id="patch_46">
    <path clip-path="url(#p70e8c0aafb)" d="M 201.64767 228.14 
L 204.691307 228.14 
L 204.691307 228.14 
L 201.64767 228.14 
z
" style="fill:#1f77b4;opacity:0.5;"/>
   </g>
   <g id="patch_47">
    <path clip-path="url(#p70e8c0aafb)" d="M 204.691307 228.14 
L 207.734943 228.14 
L 207.734943 228.14 
L 204.691307 228.14 
z
" style="fill:#1f77b4;opacity:0.5;"/>
   </g>
   <g id="patch_48">
    <path clip-path="url(#p70e8c0aafb)" d="M 207.734943 228.14 
L 210.77858 228.14 
L 210.77858 228.14 
L 207.734943 228.14 
z
" style="fill:#1f77b4;opacity:0.5;"/>
   </g>
   <g id="patch_49">
    <path clip-path="url(#p70e8c0aafb)" d="M 210.77858 228.14 
L 213.822216 228.14 
L 213.822216 228.14 
L 210.77858 228.14 
z
" style="fill:#1f77b4;opacity:0.5;"/>
   </g>
   <g id="patch_50">
    <path clip-path="url(#p70e8c0aafb)" d="M 213.822216 228.14 
L 216.865852 228.14 
L 216.865852 228.14 
L 213.822216 228.14 
z
" style="fill:#1f77b4;opacity:0.5;"/>
   </g>
   <g id="patch_51">
    <path clip-path="url(#p70e8c0aafb)" d="M 216.865852 228.14 
L 219.909489 228.14 
L 219.909489 228.14 
L 216.865852 228.14 
z
" style="fill:#1f77b4;opacity:0.5;"/>
   </g>
   <g id="patch_52">
    <path clip-path="url(#p70e8c0aafb)" d="M 219.909489 228.14 
L 222.953125 228.14 
L 222.953125 228.14 
L 219.909489 228.14 
z
" style="fill:#1f77b4;opacity:0.5;"/>
   </g>
   <g id="patch_53">
    <path clip-path="url(#p70e8c0aafb)" d="M 222.953125 228.14 
L 225.996761 228.14 
L 225.996761 228.14 
L 222.953125 228.14 
z
" style="fill:#1f77b4;opacity:0.5;"/>
   </g>
   <g id="patch_54">
    <path clip-path="url(#p70e8c0aafb)" d="M 225.996761 228.14 
L 229.040398 228.14 
L 229.040398 228.14 
L 225.996761 228.14 
z
" style="fill:#1f77b4;opacity:0.5;"/>
   </g>
   <g id="patch_55">
    <path clip-path="url(#p70e8c0aafb)" d="M 229.040398 228.14 
L 232.084034 228.14 
L 232.084034 228.14 
L 229.040398 228.14 
z
" style="fill:#1f77b4;opacity:0.5;"/>
   </g>
   <g id="patch_56">
    <path clip-path="url(#p70e8c0aafb)" d="M 232.084034 228.14 
L 235.12767 228.14 
L 235.12767 228.14 
L 232.084034 228.14 
z
" style="fill:#1f77b4;opacity:0.5;"/>
   </g>
   <g id="patch_57">
    <path clip-path="url(#p70e8c0aafb)" d="M 235.12767 228.14 
L 238.171307 228.14 
L 238.171307 228.14 
L 235.12767 228.14 
z
" style="fill:#1f77b4;opacity:0.5;"/>
   </g>
   <g id="patch_58">
    <path clip-path="url(#p70e8c0aafb)" d="M 238.171307 228.14 
L 241.214943 228.14 
L 241.214943 228.14 
L 238.171307 228.14 
z
" style="fill:#1f77b4;opacity:0.5;"/>
   </g>
   <g id="patch_59">
    <path clip-path="url(#p70e8c0aafb)" d="M 241.214943 228.14 
L 244.25858 228.14 
L 244.25858 228.14 
L 241.214943 228.14 
z
" style="fill:#1f77b4;opacity:0.5;"/>
   </g>
   <g id="patch_60">
    <path clip-path="url(#p70e8c0aafb)" d="M 244.25858 228.14 
L 247.302216 228.14 
L 247.302216 228.14 
L 244.25858 228.14 
z
" style="fill:#1f77b4;opacity:0.5;"/>
   </g>
   <g id="patch_61">
    <path clip-path="url(#p70e8c0aafb)" d="M 247.302216 228.14 
L 250.345852 228.14 
L 250.345852 228.14 
L 247.302216 228.14 
z
" style="fill:#1f77b4;opacity:0.5;"/>
   </g>
   <g id="patch_62">
    <path clip-path="url(#p70e8c0aafb)" d="M 250.345852 228.14 
L 253.389489 228.14 
L 253.389489 228.14 
L 250.345852 228.14 
z
" style="fill:#1f77b4;opacity:0.5;"/>
   </g>
   <g id="patch_63">
    <path clip-path="url(#p70e8c0aafb)" d="M 253.389489 228.14 
L 256.433125 228.14 
L 256.433125 223.65979 
L 253.389489 223.65979 
z
" style="fill:#1f77b4;opacity:0.5;"/>
   </g>
   <g id="patch_64">
    <path clip-path="url(#p70e8c0aafb)" d="M 256.433125 228.14 
L 259.476761 228.14 
L 259.476761 228.14 
L 256.433125 228.14 
z
" style="fill:#1f77b4;opacity:0.5;"/>
   </g>
   <g id="patch_65">
    <path clip-path="url(#p70e8c0aafb)" d="M 259.476761 228.14 
L 262.520398 228.14 
L 262.520398 228.14 
L 259.476761 228.14 
z
" style="fill:#1f77b4;opacity:0.5;"/>
   </g>
   <g id="patch_66">
    <path clip-path="url(#p70e8c0aafb)" d="M 262.520398 228.14 
L 265.564034 228.14 
L 265.564034 228.14 
L 262.520398 228.14 
z
" style="fill:#1f77b4;opacity:0.5;"/>
   </g>
   <g id="patch_67">
    <path clip-path="url(#p70e8c0aafb)" d="M 265.564034 228.14 
L 268.60767 228.14 
L 268.60767 228.14 
L 265.564034 228.14 
z
" style="fill:#1f77b4;opacity:0.5;"/>
   </g>
   <g id="patch_68">
    <path clip-path="url(#p70e8c0aafb)" d="M 268.60767 228.14 
L 271.651307 228.14 
L 271.651307 228.14 
L 268.60767 228.14 
z
" style="fill:#1f77b4;opacity:0.5;"/>
   </g>
   <g id="patch_69">
    <path clip-path="url(#p70e8c0aafb)" d="M 271.651307 228.14 
L 274.694943 228.14 
L 274.694943 228.14 
L 271.651307 228.14 
z
" style="fill:#1f77b4;opacity:0.5;"/>
   </g>
   <g id="patch_70">
    <path clip-path="url(#p70e8c0aafb)" d="M 274.694943 228.14 
L 277.73858 228.14 
L 277.73858 228.14 
L 274.694943 228.14 
z
" style="fill:#1f77b4;opacity:0.5;"/>
   </g>
   <g id="patch_71">
    <path clip-path="url(#p70e8c0aafb)" d="M 277.73858 228.14 
L 280.782216 228.14 
L 280.782216 228.14 
L 277.73858 228.14 
z
" style="fill:#1f77b4;opacity:0.5;"/>
   </g>
   <g id="patch_72">
    <path clip-path="url(#p70e8c0aafb)" d="M 280.782216 228.14 
L 283.825852 228.14 
L 283.825852 228.14 
L 280.782216 228.14 
z
" style="fill:#1f77b4;opacity:0.5;"/>
   </g>
   <g id="patch_73">
    <path clip-path="url(#p70e8c0aafb)" d="M 283.825852 228.14 
L 286.869489 228.14 
L 286.869489 228.14 
L 283.825852 228.14 
z
" style="fill:#1f77b4;opacity:0.5;"/>
   </g>
   <g id="patch_74">
    <path clip-path="url(#p70e8c0aafb)" d="M 286.869489 228.14 
L 289.913125 228.14 
L 289.913125 228.14 
L 286.869489 228.14 
z
" style="fill:#1f77b4;opacity:0.5;"/>
   </g>
   <g id="patch_75">
    <path clip-path="url(#p70e8c0aafb)" d="M 289.913125 228.14 
L 292.956761 228.14 
L 292.956761 228.14 
L 289.913125 228.14 
z
" style="fill:#1f77b4;opacity:0.5;"/>
   </g>
   <g id="patch_76">
    <path clip-path="url(#p70e8c0aafb)" d="M 292.956761 228.14 
L 296.000398 228.14 
L 296.000398 228.14 
L 292.956761 228.14 
z
" style="fill:#1f77b4;opacity:0.5;"/>
   </g>
   <g id="patch_77">
    <path clip-path="url(#p70e8c0aafb)" d="M 296.000398 228.14 
L 299.044034 228.14 
L 299.044034 228.14 
L 296.000398 228.14 
z
" style="fill:#1f77b4;opacity:0.5;"/>
   </g>
   <g id="patch_78">
    <path clip-path="url(#p70e8c0aafb)" d="M 299.044034 228.14 
L 302.08767 228.14 
L 302.08767 228.14 
L 299.044034 228.14 
z
" style="fill:#1f77b4;opacity:0.5;"/>
   </g>
   <g id="patch_79">
    <path clip-path="url(#p70e8c0aafb)" d="M 302.08767 228.14 
L 305.131307 228.14 
L 305.131307 228.14 
L 302.08767 228.14 
z
" style="fill:#1f77b4;opacity:0.5;"/>
   </g>
   <g id="patch_80">
    <path clip-path="url(#p70e8c0aafb)" d="M 305.131307 228.14 
L 308.174943 228.14 
L 308.174943 228.14 
L 305.131307 228.14 
z
" style="fill:#1f77b4;opacity:0.5;"/>
   </g>
   <g id="patch_81">
    <path clip-path="url(#p70e8c0aafb)" d="M 308.174943 228.14 
L 311.21858 228.14 
L 311.21858 228.14 
L 308.174943 228.14 
z
" style="fill:#1f77b4;opacity:0.5;"/>
   </g>
   <g id="patch_82">
    <path clip-path="url(#p70e8c0aafb)" d="M 311.21858 228.14 
L 314.262216 228.14 
L 314.262216 228.14 
L 311.21858 228.14 
z
" style="fill:#1f77b4;opacity:0.5;"/>
   </g>
   <g id="patch_83">
    <path clip-path="url(#p70e8c0aafb)" d="M 314.262216 228.14 
L 317.305852 228.14 
L 317.305852 223.847891 
L 314.262216 223.847891 
z
" style="fill:#1f77b4;opacity:0.5;"/>
   </g>
   <g id="patch_84">
    <path clip-path="url(#p70e8c0aafb)" d="M 317.305852 228.14 
L 320.349489 228.14 
L 320.349489 228.14 
L 317.305852 228.14 
z
" style="fill:#1f77b4;opacity:0.5;"/>
   </g>
   <g id="patch_85">
    <path clip-path="url(#p70e8c0aafb)" d="M 320.349489 228.14 
L 323.393125 228.14 
L 323.393125 228.14 
L 320.349489 228.14 
z
" style="fill:#1f77b4;opacity:0.5;"/>
   </g>
   <g id="patch_86">
    <path clip-path="url(#p70e8c0aafb)" d="M 323.393125 228.14 
L 326.436761 228.14 
L 326.436761 228.14 
L 323.393125 228.14 
z
" style="fill:#1f77b4;opacity:0.5;"/>
   </g>
   <g id="patch_87">
    <path clip-path="url(#p70e8c0aafb)" d="M 326.436761 228.14 
L 329.480398 228.14 
L 329.480398 228.14 
L 326.436761 228.14 
z
" style="fill:#1f77b4;opacity:0.5;"/>
   </g>
   <g id="patch_88">
    <path clip-path="url(#p70e8c0aafb)" d="M 329.480398 228.14 
L 332.524034 228.14 
L 332.524034 228.14 
L 329.480398 228.14 
z
" style="fill:#1f77b4;opacity:0.5;"/>
   </g>
   <g id="patch_89">
    <path clip-path="url(#p70e8c0aafb)" d="M 332.524034 228.14 
L 335.56767 228.14 
L 335.56767 228.14 
L 332.524034 228.14 
z
" style="fill:#1f77b4;opacity:0.5;"/>
   </g>
   <g id="patch_90">
    <path clip-path="url(#p70e8c0aafb)" d="M 335.56767 228.14 
L 338.611307 228.14 
L 338.611307 228.14 
L 335.56767 228.14 
z
" style="fill:#1f77b4;opacity:0.5;"/>
   </g>
   <g id="patch_91">
    <path clip-path="url(#p70e8c0aafb)" d="M 338.611307 228.14 
L 341.654943 228.14 
L 341.654943 228.14 
L 338.611307 228.14 
z
" style="fill:#1f77b4;opacity:0.5;"/>
   </g>
   <g id="patch_92">
    <path clip-path="url(#p70e8c0aafb)" d="M 341.654943 228.14 
L 344.69858 228.14 
L 344.69858 228.14 
L 341.654943 228.14 
z
" style="fill:#1f77b4;opacity:0.5;"/>
   </g>
   <g id="patch_93">
    <path clip-path="url(#p70e8c0aafb)" d="M 344.69858 228.14 
L 347.742216 228.14 
L 347.742216 228.14 
L 344.69858 228.14 
z
" style="fill:#1f77b4;opacity:0.5;"/>
   </g>
   <g id="patch_94">
    <path clip-path="url(#p70e8c0aafb)" d="M 347.742216 228.14 
L 350.785852 228.14 
L 350.785852 228.14 
L 347.742216 228.14 
z
" style="fill:#1f77b4;opacity:0.5;"/>
   </g>
   <g id="patch_95">
    <path clip-path="url(#p70e8c0aafb)" d="M 350.785852 228.14 
L 353.829489 228.14 
L 353.829489 228.14 
L 350.785852 228.14 
z
" style="fill:#1f77b4;opacity:0.5;"/>
   </g>
   <g id="patch_96">
    <path clip-path="url(#p70e8c0aafb)" d="M 353.829489 228.14 
L 356.873125 228.14 
L 356.873125 228.14 
L 353.829489 228.14 
z
" style="fill:#1f77b4;opacity:0.5;"/>
   </g>
   <g id="patch_97">
    <path clip-path="url(#p70e8c0aafb)" d="M 356.873125 228.14 
L 359.916761 228.14 
L 359.916761 228.14 
L 356.873125 228.14 
z
" style="fill:#1f77b4;opacity:0.5;"/>
   </g>
   <g id="patch_98">
    <path clip-path="url(#p70e8c0aafb)" d="M 359.916761 228.14 
L 362.960398 228.14 
L 362.960398 228.14 
L 359.916761 228.14 
z
" style="fill:#1f77b4;opacity:0.5;"/>
   </g>
   <g id="patch_99">
    <path clip-path="url(#p70e8c0aafb)" d="M 362.960398 228.14 
L 366.004034 228.14 
L 366.004034 228.14 
L 362.960398 228.14 
z
" style="fill:#1f77b4;opacity:0.5;"/>
   </g>
   <g id="patch_100">
    <path clip-path="url(#p70e8c0aafb)" d="M 366.004034 228.14 
L 369.04767 228.14 
L 369.04767 228.14 
L 366.004034 228.14 
z
" style="fill:#1f77b4;opacity:0.5;"/>
   </g>
   <g id="patch_101">
    <path clip-path="url(#p70e8c0aafb)" d="M 369.04767 228.14 
L 372.091307 228.14 
L 372.091307 228.14 
L 369.04767 228.14 
z
" style="fill:#1f77b4;opacity:0.5;"/>
   </g>
   <g id="patch_102">
    <path clip-path="url(#p70e8c0aafb)" d="M 372.091307 228.14 
L 375.134943 228.14 
L 375.134943 223.971866 
L 372.091307 223.971866 
z
" style="fill:#1f77b4;opacity:0.5;"/>
   </g>
   <g id="matplotlib.axis_1">
    <g id="xtick_1">
     <g id="line2d_1">
      <defs>
       <path d="M 0 0 
L 0 3.5 
" id="md3b3d57508" style="stroke:#000000;stroke-width:0.8;"/>
      </defs>
      <g>
       <use style="stroke:#000000;stroke-width:0.8;" x="70.777394" xlink:href="#md3b3d57508" y="228.14"/>
      </g>
     </g>
     <g id="text_1">
      <!-- 0 -->
      <defs>
       <path d="M 31.78125 66.40625 
Q 24.171875 66.40625 20.328125 58.90625 
Q 16.5 51.421875 16.5 36.375 
Q 16.5 21.390625 20.328125 13.890625 
Q 24.171875 6.390625 31.78125 6.390625 
Q 39.453125 6.390625 43.28125 13.890625 
Q 47.125 21.390625 47.125 36.375 
Q 47.125 51.421875 43.28125 58.90625 
Q 39.453125 66.40625 31.78125 66.40625 
z
M 31.78125 74.21875 
Q 44.046875 74.21875 50.515625 64.515625 
Q 56.984375 54.828125 56.984375 36.375 
Q 56.984375 17.96875 50.515625 8.265625 
Q 44.046875 -1.421875 31.78125 -1.421875 
Q 19.53125 -1.421875 13.0625 8.265625 
Q 6.59375 17.96875 6.59375 36.375 
Q 6.59375 54.828125 13.0625 64.515625 
Q 19.53125 74.21875 31.78125 74.21875 
z
" id="DejaVuSans-48"/>
      </defs>
      <g transform="translate(67.596144 242.738437)scale(0.1 -0.1)">
       <use xlink:href="#DejaVuSans-48"/>
      </g>
     </g>
    </g>
    <g id="xtick_2">
     <g id="line2d_2">
      <g>
       <use style="stroke:#000000;stroke-width:0.8;" x="131.648904" xlink:href="#md3b3d57508" y="228.14"/>
      </g>
     </g>
     <g id="text_2">
      <!-- 10000 -->
      <defs>
       <path d="M 12.40625 8.296875 
L 28.515625 8.296875 
L 28.515625 63.921875 
L 10.984375 60.40625 
L 10.984375 69.390625 
L 28.421875 72.90625 
L 38.28125 72.90625 
L 38.28125 8.296875 
L 54.390625 8.296875 
L 54.390625 0 
L 12.40625 0 
z
" id="DejaVuSans-49"/>
      </defs>
      <g transform="translate(115.742654 242.738437)scale(0.1 -0.1)">
       <use xlink:href="#DejaVuSans-49"/>
       <use x="63.623047" xlink:href="#DejaVuSans-48"/>
       <use x="127.246094" xlink:href="#DejaVuSans-48"/>
       <use x="190.869141" xlink:href="#DejaVuSans-48"/>
       <use x="254.492188" xlink:href="#DejaVuSans-48"/>
      </g>
     </g>
    </g>
    <g id="xtick_3">
     <g id="line2d_3">
      <g>
       <use style="stroke:#000000;stroke-width:0.8;" x="192.520414" xlink:href="#md3b3d57508" y="228.14"/>
      </g>
     </g>
     <g id="text_3">
      <!-- 20000 -->
      <defs>
       <path d="M 19.1875 8.296875 
L 53.609375 8.296875 
L 53.609375 0 
L 7.328125 0 
L 7.328125 8.296875 
Q 12.9375 14.109375 22.625 23.890625 
Q 32.328125 33.6875 34.8125 36.53125 
Q 39.546875 41.84375 41.421875 45.53125 
Q 43.3125 49.21875 43.3125 52.78125 
Q 43.3125 58.59375 39.234375 62.25 
Q 35.15625 65.921875 28.609375 65.921875 
Q 23.96875 65.921875 18.8125 64.3125 
Q 13.671875 62.703125 7.8125 59.421875 
L 7.8125 69.390625 
Q 13.765625 71.78125 18.9375 73 
Q 24.125 74.21875 28.421875 74.21875 
Q 39.75 74.21875 46.484375 68.546875 
Q 53.21875 62.890625 53.21875 53.421875 
Q 53.21875 48.921875 51.53125 44.890625 
Q 49.859375 40.875 45.40625 35.40625 
Q 44.1875 33.984375 37.640625 27.21875 
Q 31.109375 20.453125 19.1875 8.296875 
z
" id="DejaVuSans-50"/>
      </defs>
      <g transform="translate(176.614164 242.738437)scale(0.1 -0.1)">
       <use xlink:href="#DejaVuSans-50"/>
       <use x="63.623047" xlink:href="#DejaVuSans-48"/>
       <use x="127.246094" xlink:href="#DejaVuSans-48"/>
       <use x="190.869141" xlink:href="#DejaVuSans-48"/>
       <use x="254.492188" xlink:href="#DejaVuSans-48"/>
      </g>
     </g>
    </g>
    <g id="xtick_4">
     <g id="line2d_4">
      <g>
       <use style="stroke:#000000;stroke-width:0.8;" x="253.391923" xlink:href="#md3b3d57508" y="228.14"/>
      </g>
     </g>
     <g id="text_4">
      <!-- 30000 -->
      <defs>
       <path d="M 40.578125 39.3125 
Q 47.65625 37.796875 51.625 33 
Q 55.609375 28.21875 55.609375 21.1875 
Q 55.609375 10.40625 48.1875 4.484375 
Q 40.765625 -1.421875 27.09375 -1.421875 
Q 22.515625 -1.421875 17.65625 -0.515625 
Q 12.796875 0.390625 7.625 2.203125 
L 7.625 11.71875 
Q 11.71875 9.328125 16.59375 8.109375 
Q 21.484375 6.890625 26.8125 6.890625 
Q 36.078125 6.890625 40.9375 10.546875 
Q 45.796875 14.203125 45.796875 21.1875 
Q 45.796875 27.640625 41.28125 31.265625 
Q 36.765625 34.90625 28.71875 34.90625 
L 20.21875 34.90625 
L 20.21875 43.015625 
L 29.109375 43.015625 
Q 36.375 43.015625 40.234375 45.921875 
Q 44.09375 48.828125 44.09375 54.296875 
Q 44.09375 59.90625 40.109375 62.90625 
Q 36.140625 65.921875 28.71875 65.921875 
Q 24.65625 65.921875 20.015625 65.03125 
Q 15.375 64.15625 9.8125 62.3125 
L 9.8125 71.09375 
Q 15.4375 72.65625 20.34375 73.4375 
Q 25.25 74.21875 29.59375 74.21875 
Q 40.828125 74.21875 47.359375 69.109375 
Q 53.90625 64.015625 53.90625 55.328125 
Q 53.90625 49.265625 50.4375 45.09375 
Q 46.96875 40.921875 40.578125 39.3125 
z
" id="DejaVuSans-51"/>
      </defs>
      <g transform="translate(237.485673 242.738437)scale(0.1 -0.1)">
       <use xlink:href="#DejaVuSans-51"/>
       <use x="63.623047" xlink:href="#DejaVuSans-48"/>
       <use x="127.246094" xlink:href="#DejaVuSans-48"/>
       <use x="190.869141" xlink:href="#DejaVuSans-48"/>
       <use x="254.492188" xlink:href="#DejaVuSans-48"/>
      </g>
     </g>
    </g>
    <g id="xtick_5">
     <g id="line2d_5">
      <g>
       <use style="stroke:#000000;stroke-width:0.8;" x="314.263433" xlink:href="#md3b3d57508" y="228.14"/>
      </g>
     </g>
     <g id="text_5">
      <!-- 40000 -->
      <defs>
       <path d="M 37.796875 64.3125 
L 12.890625 25.390625 
L 37.796875 25.390625 
z
M 35.203125 72.90625 
L 47.609375 72.90625 
L 47.609375 25.390625 
L 58.015625 25.390625 
L 58.015625 17.1875 
L 47.609375 17.1875 
L 47.609375 0 
L 37.796875 0 
L 37.796875 17.1875 
L 4.890625 17.1875 
L 4.890625 26.703125 
z
" id="DejaVuSans-52"/>
      </defs>
      <g transform="translate(298.357183 242.738437)scale(0.1 -0.1)">
       <use xlink:href="#DejaVuSans-52"/>
       <use x="63.623047" xlink:href="#DejaVuSans-48"/>
       <use x="127.246094" xlink:href="#DejaVuSans-48"/>
       <use x="190.869141" xlink:href="#DejaVuSans-48"/>
       <use x="254.492188" xlink:href="#DejaVuSans-48"/>
      </g>
     </g>
    </g>
    <g id="xtick_6">
     <g id="line2d_6">
      <g>
       <use style="stroke:#000000;stroke-width:0.8;" x="375.134943" xlink:href="#md3b3d57508" y="228.14"/>
      </g>
     </g>
     <g id="text_6">
      <!-- 50000 -->
      <defs>
       <path d="M 10.796875 72.90625 
L 49.515625 72.90625 
L 49.515625 64.59375 
L 19.828125 64.59375 
L 19.828125 46.734375 
Q 21.96875 47.46875 24.109375 47.828125 
Q 26.265625 48.1875 28.421875 48.1875 
Q 40.625 48.1875 47.75 41.5 
Q 54.890625 34.8125 54.890625 23.390625 
Q 54.890625 11.625 47.5625 5.09375 
Q 40.234375 -1.421875 26.90625 -1.421875 
Q 22.3125 -1.421875 17.546875 -0.640625 
Q 12.796875 0.140625 7.71875 1.703125 
L 7.71875 11.625 
Q 12.109375 9.234375 16.796875 8.0625 
Q 21.484375 6.890625 26.703125 6.890625 
Q 35.15625 6.890625 40.078125 11.328125 
Q 45.015625 15.765625 45.015625 23.390625 
Q 45.015625 31 40.078125 35.4375 
Q 35.15625 39.890625 26.703125 39.890625 
Q 22.75 39.890625 18.8125 39.015625 
Q 14.890625 38.140625 10.796875 36.28125 
z
" id="DejaVuSans-53"/>
      </defs>
      <g transform="translate(359.228693 242.738437)scale(0.1 -0.1)">
       <use xlink:href="#DejaVuSans-53"/>
       <use x="63.623047" xlink:href="#DejaVuSans-48"/>
       <use x="127.246094" xlink:href="#DejaVuSans-48"/>
       <use x="190.869141" xlink:href="#DejaVuSans-48"/>
       <use x="254.492188" xlink:href="#DejaVuSans-48"/>
      </g>
     </g>
    </g>
   </g>
   <g id="matplotlib.axis_2">
    <g id="ytick_1">
     <g id="line2d_7">
      <defs>
       <path d="M 0 0 
L -3.5 0 
" id="me55bb1dd30" style="stroke:#000000;stroke-width:0.8;"/>
      </defs>
      <g>
       <use style="stroke:#000000;stroke-width:0.8;" x="55.553125" xlink:href="#me55bb1dd30" y="228.14"/>
      </g>
     </g>
     <g id="text_7">
      <!-- 0.00000 -->
      <defs>
       <path d="M 10.6875 12.40625 
L 21 12.40625 
L 21 0 
L 10.6875 0 
z
" id="DejaVuSans-46"/>
      </defs>
      <g transform="translate(7.2 231.939219)scale(0.1 -0.1)">
       <use xlink:href="#DejaVuSans-48"/>
       <use x="63.623047" xlink:href="#DejaVuSans-46"/>
       <use x="95.410156" xlink:href="#DejaVuSans-48"/>
       <use x="159.033203" xlink:href="#DejaVuSans-48"/>
       <use x="222.65625" xlink:href="#DejaVuSans-48"/>
       <use x="286.279297" xlink:href="#DejaVuSans-48"/>
       <use x="349.902344" xlink:href="#DejaVuSans-48"/>
      </g>
     </g>
    </g>
    <g id="ytick_2">
     <g id="line2d_8">
      <g>
       <use style="stroke:#000000;stroke-width:0.8;" x="55.553125" xlink:href="#me55bb1dd30" y="199.058669"/>
      </g>
     </g>
     <g id="text_8">
      <!-- 0.00025 -->
      <g transform="translate(7.2 202.857888)scale(0.1 -0.1)">
       <use xlink:href="#DejaVuSans-48"/>
       <use x="63.623047" xlink:href="#DejaVuSans-46"/>
       <use x="95.410156" xlink:href="#DejaVuSans-48"/>
       <use x="159.033203" xlink:href="#DejaVuSans-48"/>
       <use x="222.65625" xlink:href="#DejaVuSans-48"/>
       <use x="286.279297" xlink:href="#DejaVuSans-50"/>
       <use x="349.902344" xlink:href="#DejaVuSans-53"/>
      </g>
     </g>
    </g>
    <g id="ytick_3">
     <g id="line2d_9">
      <g>
       <use style="stroke:#000000;stroke-width:0.8;" x="55.553125" xlink:href="#me55bb1dd30" y="169.977338"/>
      </g>
     </g>
     <g id="text_9">
      <!-- 0.00050 -->
      <g transform="translate(7.2 173.776557)scale(0.1 -0.1)">
       <use xlink:href="#DejaVuSans-48"/>
       <use x="63.623047" xlink:href="#DejaVuSans-46"/>
       <use x="95.410156" xlink:href="#DejaVuSans-48"/>
       <use x="159.033203" xlink:href="#DejaVuSans-48"/>
       <use x="222.65625" xlink:href="#DejaVuSans-48"/>
       <use x="286.279297" xlink:href="#DejaVuSans-53"/>
       <use x="349.902344" xlink:href="#DejaVuSans-48"/>
      </g>
     </g>
    </g>
    <g id="ytick_4">
     <g id="line2d_10">
      <g>
       <use style="stroke:#000000;stroke-width:0.8;" x="55.553125" xlink:href="#me55bb1dd30" y="140.896008"/>
      </g>
     </g>
     <g id="text_10">
      <!-- 0.00075 -->
      <defs>
       <path d="M 8.203125 72.90625 
L 55.078125 72.90625 
L 55.078125 68.703125 
L 28.609375 0 
L 18.3125 0 
L 43.21875 64.59375 
L 8.203125 64.59375 
z
" id="DejaVuSans-55"/>
      </defs>
      <g transform="translate(7.2 144.695226)scale(0.1 -0.1)">
       <use xlink:href="#DejaVuSans-48"/>
       <use x="63.623047" xlink:href="#DejaVuSans-46"/>
       <use x="95.410156" xlink:href="#DejaVuSans-48"/>
       <use x="159.033203" xlink:href="#DejaVuSans-48"/>
       <use x="222.65625" xlink:href="#DejaVuSans-48"/>
       <use x="286.279297" xlink:href="#DejaVuSans-55"/>
       <use x="349.902344" xlink:href="#DejaVuSans-53"/>
      </g>
     </g>
    </g>
    <g id="ytick_5">
     <g id="line2d_11">
      <g>
       <use style="stroke:#000000;stroke-width:0.8;" x="55.553125" xlink:href="#me55bb1dd30" y="111.814677"/>
      </g>
     </g>
     <g id="text_11">
      <!-- 0.00100 -->
      <g transform="translate(7.2 115.613896)scale(0.1 -0.1)">
       <use xlink:href="#DejaVuSans-48"/>
       <use x="63.623047" xlink:href="#DejaVuSans-46"/>
       <use x="95.410156" xlink:href="#DejaVuSans-48"/>
       <use x="159.033203" xlink:href="#DejaVuSans-48"/>
       <use x="222.65625" xlink:href="#DejaVuSans-49"/>
       <use x="286.279297" xlink:href="#DejaVuSans-48"/>
       <use x="349.902344" xlink:href="#DejaVuSans-48"/>
      </g>
     </g>
    </g>
    <g id="ytick_6">
     <g id="line2d_12">
      <g>
       <use style="stroke:#000000;stroke-width:0.8;" x="55.553125" xlink:href="#me55bb1dd30" y="82.733346"/>
      </g>
     </g>
     <g id="text_12">
      <!-- 0.00125 -->
      <g transform="translate(7.2 86.532565)scale(0.1 -0.1)">
       <use xlink:href="#DejaVuSans-48"/>
       <use x="63.623047" xlink:href="#DejaVuSans-46"/>
       <use x="95.410156" xlink:href="#DejaVuSans-48"/>
       <use x="159.033203" xlink:href="#DejaVuSans-48"/>
       <use x="222.65625" xlink:href="#DejaVuSans-49"/>
       <use x="286.279297" xlink:href="#DejaVuSans-50"/>
       <use x="349.902344" xlink:href="#DejaVuSans-53"/>
      </g>
     </g>
    </g>
    <g id="ytick_7">
     <g id="line2d_13">
      <g>
       <use style="stroke:#000000;stroke-width:0.8;" x="55.553125" xlink:href="#me55bb1dd30" y="53.652015"/>
      </g>
     </g>
     <g id="text_13">
      <!-- 0.00150 -->
      <g transform="translate(7.2 57.451234)scale(0.1 -0.1)">
       <use xlink:href="#DejaVuSans-48"/>
       <use x="63.623047" xlink:href="#DejaVuSans-46"/>
       <use x="95.410156" xlink:href="#DejaVuSans-48"/>
       <use x="159.033203" xlink:href="#DejaVuSans-48"/>
       <use x="222.65625" xlink:href="#DejaVuSans-49"/>
       <use x="286.279297" xlink:href="#DejaVuSans-53"/>
       <use x="349.902344" xlink:href="#DejaVuSans-48"/>
      </g>
     </g>
    </g>
    <g id="ytick_8">
     <g id="line2d_14">
      <g>
       <use style="stroke:#000000;stroke-width:0.8;" x="55.553125" xlink:href="#me55bb1dd30" y="24.570684"/>
      </g>
     </g>
     <g id="text_14">
      <!-- 0.00175 -->
      <g transform="translate(7.2 28.369903)scale(0.1 -0.1)">
       <use xlink:href="#DejaVuSans-48"/>
       <use x="63.623047" xlink:href="#DejaVuSans-46"/>
       <use x="95.410156" xlink:href="#DejaVuSans-48"/>
       <use x="159.033203" xlink:href="#DejaVuSans-48"/>
       <use x="222.65625" xlink:href="#DejaVuSans-49"/>
       <use x="286.279297" xlink:href="#DejaVuSans-55"/>
       <use x="349.902344" xlink:href="#DejaVuSans-53"/>
      </g>
     </g>
    </g>
   </g>
   <g id="patch_103">
    <path d="M 55.553125 228.14 
L 55.553125 10.7 
" style="fill:none;stroke:#000000;stroke-linecap:square;stroke-linejoin:miter;stroke-width:0.8;"/>
   </g>
   <g id="patch_104">
    <path d="M 390.353125 228.14 
L 390.353125 10.7 
" style="fill:none;stroke:#000000;stroke-linecap:square;stroke-linejoin:miter;stroke-width:0.8;"/>
   </g>
   <g id="patch_105">
    <path d="M 55.553125 228.14 
L 390.353125 228.14 
" style="fill:none;stroke:#000000;stroke-linecap:square;stroke-linejoin:miter;stroke-width:0.8;"/>
   </g>
   <g id="patch_106">
    <path d="M 55.553125 10.7 
L 390.353125 10.7 
" style="fill:none;stroke:#000000;stroke-linecap:square;stroke-linejoin:miter;stroke-width:0.8;"/>
   </g>
  </g>
 </g>
 <defs>
  <clipPath id="p70e8c0aafb">
   <rect height="217.44" width="334.8" x="55.553125" y="10.7"/>
  </clipPath>
 </defs>
</svg>
