<?xml version="1.0" encoding="utf-8" standalone="no"?>
<!DOCTYPE svg PUBLIC "-//W3C//DTD SVG 1.1//EN"
  "http://www.w3.org/Graphics/SVG/1.1/DTD/svg11.dtd">
<!-- Created with matplotlib (https://matplotlib.org/) -->
<svg height="252.018125pt" version="1.1" viewBox="0 0 381.965625 252.018125" width="381.965625pt" xmlns="http://www.w3.org/2000/svg" xmlns:xlink="http://www.w3.org/1999/xlink">
 <defs>
  <style type="text/css">
*{stroke-linecap:butt;stroke-linejoin:round;}
  </style>
 </defs>
 <g id="figure_1">
  <g id="patch_1">
   <path d="M 0 252.018125 
L 381.965625 252.018125 
L 381.965625 0 
L 0 0 
z
" style="fill:none;"/>
  </g>
  <g id="axes_1">
   <g id="patch_2">
    <path d="M 36.465625 228.14 
L 371.265625 228.14 
L 371.265625 10.7 
L 36.465625 10.7 
z
" style="fill:#ffffff;"/>
   </g>
   <g id="patch_3">
    <path clip-path="url(#p3d2b428114)" d="M 51.683807 228.14 
L 54.727443 228.14 
L 54.727443 211.224293 
L 51.683807 211.224293 
z
" style="fill:#1f77b4;opacity:0.5;"/>
   </g>
   <g id="patch_4">
    <path clip-path="url(#p3d2b428114)" d="M 54.727443 228.14 
L 57.77108 228.14 
L 57.77108 194.542713 
L 54.727443 194.542713 
z
" style="fill:#1f77b4;opacity:0.5;"/>
   </g>
   <g id="patch_5">
    <path clip-path="url(#p3d2b428114)" d="M 57.77108 228.14 
L 60.814716 228.14 
L 60.814716 174.934541 
L 57.77108 174.934541 
z
" style="fill:#1f77b4;opacity:0.5;"/>
   </g>
   <g id="patch_6">
    <path clip-path="url(#p3d2b428114)" d="M 60.814716 228.14 
L 63.858352 228.14 
L 63.858352 156.96526 
L 60.814716 156.96526 
z
" style="fill:#1f77b4;opacity:0.5;"/>
   </g>
   <g id="patch_7">
    <path clip-path="url(#p3d2b428114)" d="M 63.858352 228.14 
L 66.901989 228.14 
L 66.901989 120.73404 
L 63.858352 120.73404 
z
" style="fill:#1f77b4;opacity:0.5;"/>
   </g>
   <g id="patch_8">
    <path clip-path="url(#p3d2b428114)" d="M 66.901989 228.14 
L 69.945625 228.14 
L 69.945625 84.619884 
L 66.901989 84.619884 
z
" style="fill:#1f77b4;opacity:0.5;"/>
   </g>
   <g id="patch_9">
    <path clip-path="url(#p3d2b428114)" d="M 69.945625 228.14 
L 72.989261 228.14 
L 72.989261 47.686281 
L 69.945625 47.686281 
z
" style="fill:#1f77b4;opacity:0.5;"/>
   </g>
   <g id="patch_10">
    <path clip-path="url(#p3d2b428114)" d="M 72.989261 228.14 
L 76.032898 228.14 
L 76.032898 33.345976 
L 72.989261 33.345976 
z
" style="fill:#1f77b4;opacity:0.5;"/>
   </g>
   <g id="patch_11">
    <path clip-path="url(#p3d2b428114)" d="M 76.032898 228.14 
L 79.076534 228.14 
L 79.076534 21.054286 
L 76.032898 21.054286 
z
" style="fill:#1f77b4;opacity:0.5;"/>
   </g>
   <g id="patch_12">
    <path clip-path="url(#p3d2b428114)" d="M 79.076534 228.14 
L 82.12017 228.14 
L 82.12017 22.810241 
L 79.076534 22.810241 
z
" style="fill:#1f77b4;opacity:0.5;"/>
   </g>
   <g id="patch_13">
    <path clip-path="url(#p3d2b428114)" d="M 82.12017 228.14 
L 85.163807 228.14 
L 85.163807 28.604895 
L 82.12017 28.604895 
z
" style="fill:#1f77b4;opacity:0.5;"/>
   </g>
   <g id="patch_14">
    <path clip-path="url(#p3d2b428114)" d="M 85.163807 228.14 
L 88.207443 228.14 
L 88.207443 228.14 
L 85.163807 228.14 
z
" style="fill:#1f77b4;opacity:0.5;"/>
   </g>
   <g id="patch_15">
    <path clip-path="url(#p3d2b428114)" d="M 88.207443 228.14 
L 91.25108 228.14 
L 91.25108 44.467029 
L 88.207443 44.467029 
z
" style="fill:#1f77b4;opacity:0.5;"/>
   </g>
   <g id="patch_16">
    <path clip-path="url(#p3d2b428114)" d="M 91.25108 228.14 
L 94.294716 228.14 
L 94.294716 53.597999 
L 91.25108 53.597999 
z
" style="fill:#1f77b4;opacity:0.5;"/>
   </g>
   <g id="patch_17">
    <path clip-path="url(#p3d2b428114)" d="M 94.294716 228.14 
L 97.338352 228.14 
L 97.338352 76.893678 
L 94.294716 76.893678 
z
" style="fill:#1f77b4;opacity:0.5;"/>
   </g>
   <g id="patch_18">
    <path clip-path="url(#p3d2b428114)" d="M 97.338352 228.14 
L 100.381989 228.14 
L 100.381989 84.50282 
L 97.338352 84.50282 
z
" style="fill:#1f77b4;opacity:0.5;"/>
   </g>
   <g id="patch_19">
    <path clip-path="url(#p3d2b428114)" d="M 100.381989 228.14 
L 103.425625 228.14 
L 103.425625 105.340162 
L 100.381989 105.340162 
z
" style="fill:#1f77b4;opacity:0.5;"/>
   </g>
   <g id="patch_20">
    <path clip-path="url(#p3d2b428114)" d="M 103.425625 228.14 
L 106.469261 228.14 
L 106.469261 122.489996 
L 103.425625 122.489996 
z
" style="fill:#1f77b4;opacity:0.5;"/>
   </g>
   <g id="patch_21">
    <path clip-path="url(#p3d2b428114)" d="M 106.469261 228.14 
L 109.512898 228.14 
L 109.512898 130.508861 
L 106.469261 130.508861 
z
" style="fill:#1f77b4;opacity:0.5;"/>
   </g>
   <g id="patch_22">
    <path clip-path="url(#p3d2b428114)" d="M 109.512898 228.14 
L 112.556534 228.14 
L 112.556534 139.756894 
L 109.512898 139.756894 
z
" style="fill:#1f77b4;opacity:0.5;"/>
   </g>
   <g id="patch_23">
    <path clip-path="url(#p3d2b428114)" d="M 112.556534 228.14 
L 115.60017 228.14 
L 115.60017 149.121991 
L 112.556534 149.121991 
z
" style="fill:#1f77b4;opacity:0.5;"/>
   </g>
   <g id="patch_24">
    <path clip-path="url(#p3d2b428114)" d="M 115.60017 228.14 
L 118.643807 228.14 
L 118.643807 154.623986 
L 115.60017 154.623986 
z
" style="fill:#1f77b4;opacity:0.5;"/>
   </g>
   <g id="patch_25">
    <path clip-path="url(#p3d2b428114)" d="M 118.643807 228.14 
L 121.687443 228.14 
L 121.687443 228.14 
L 118.643807 228.14 
z
" style="fill:#1f77b4;opacity:0.5;"/>
   </g>
   <g id="patch_26">
    <path clip-path="url(#p3d2b428114)" d="M 121.687443 228.14 
L 124.73108 228.14 
L 124.73108 162.93551 
L 121.687443 162.93551 
z
" style="fill:#1f77b4;opacity:0.5;"/>
   </g>
   <g id="patch_27">
    <path clip-path="url(#p3d2b428114)" d="M 124.73108 228.14 
L 127.774716 228.14 
L 127.774716 171.715289 
L 124.73108 171.715289 
z
" style="fill:#1f77b4;opacity:0.5;"/>
   </g>
   <g id="patch_28">
    <path clip-path="url(#p3d2b428114)" d="M 127.774716 228.14 
L 130.818352 228.14 
L 130.818352 173.64684 
L 127.774716 173.64684 
z
" style="fill:#1f77b4;opacity:0.5;"/>
   </g>
   <g id="patch_29">
    <path clip-path="url(#p3d2b428114)" d="M 130.818352 228.14 
L 133.861989 228.14 
L 133.861989 168.496037 
L 130.818352 168.496037 
z
" style="fill:#1f77b4;opacity:0.5;"/>
   </g>
   <g id="patch_30">
    <path clip-path="url(#p3d2b428114)" d="M 133.861989 228.14 
L 136.905625 228.14 
L 136.905625 180.670663 
L 133.861989 180.670663 
z
" style="fill:#1f77b4;opacity:0.5;"/>
   </g>
   <g id="patch_31">
    <path clip-path="url(#p3d2b428114)" d="M 136.905625 228.14 
L 139.949261 228.14 
L 139.949261 188.689528 
L 136.905625 188.689528 
z
" style="fill:#1f77b4;opacity:0.5;"/>
   </g>
   <g id="patch_32">
    <path clip-path="url(#p3d2b428114)" d="M 139.949261 228.14 
L 142.992898 228.14 
L 142.992898 192.55263 
L 139.949261 192.55263 
z
" style="fill:#1f77b4;opacity:0.5;"/>
   </g>
   <g id="patch_33">
    <path clip-path="url(#p3d2b428114)" d="M 142.992898 228.14 
L 146.036534 228.14 
L 146.036534 195.654819 
L 142.992898 195.654819 
z
" style="fill:#1f77b4;opacity:0.5;"/>
   </g>
   <g id="patch_34">
    <path clip-path="url(#p3d2b428114)" d="M 146.036534 228.14 
L 149.08017 228.14 
L 149.08017 198.581412 
L 146.036534 198.581412 
z
" style="fill:#1f77b4;opacity:0.5;"/>
   </g>
   <g id="patch_35">
    <path clip-path="url(#p3d2b428114)" d="M 149.08017 228.14 
L 152.123807 228.14 
L 152.123807 201.273877 
L 149.08017 201.273877 
z
" style="fill:#1f77b4;opacity:0.5;"/>
   </g>
   <g id="patch_36">
    <path clip-path="url(#p3d2b428114)" d="M 152.123807 228.14 
L 155.167443 228.14 
L 155.167443 228.14 
L 152.123807 228.14 
z
" style="fill:#1f77b4;opacity:0.5;"/>
   </g>
   <g id="patch_37">
    <path clip-path="url(#p3d2b428114)" d="M 155.167443 228.14 
L 158.21108 228.14 
L 158.21108 202.561578 
L 155.167443 202.561578 
z
" style="fill:#1f77b4;opacity:0.5;"/>
   </g>
   <g id="patch_38">
    <path clip-path="url(#p3d2b428114)" d="M 158.21108 228.14 
L 161.254716 228.14 
L 161.254716 203.498088 
L 158.21108 203.498088 
z
" style="fill:#1f77b4;opacity:0.5;"/>
   </g>
   <g id="patch_39">
    <path clip-path="url(#p3d2b428114)" d="M 161.254716 228.14 
L 164.298352 228.14 
L 164.298352 208.2977 
L 161.254716 208.2977 
z
" style="fill:#1f77b4;opacity:0.5;"/>
   </g>
   <g id="patch_40">
    <path clip-path="url(#p3d2b428114)" d="M 164.298352 228.14 
L 167.341989 228.14 
L 167.341989 208.648891 
L 164.298352 208.648891 
z
" style="fill:#1f77b4;opacity:0.5;"/>
   </g>
   <g id="patch_41">
    <path clip-path="url(#p3d2b428114)" d="M 167.341989 228.14 
L 170.385625 228.14 
L 170.385625 214.033822 
L 167.341989 214.033822 
z
" style="fill:#1f77b4;opacity:0.5;"/>
   </g>
   <g id="patch_42">
    <path clip-path="url(#p3d2b428114)" d="M 170.385625 228.14 
L 173.429261 228.14 
L 173.429261 212.629058 
L 170.385625 212.629058 
z
" style="fill:#1f77b4;opacity:0.5;"/>
   </g>
   <g id="patch_43">
    <path clip-path="url(#p3d2b428114)" d="M 173.429261 228.14 
L 176.472898 228.14 
L 176.472898 213.097312 
L 173.429261 213.097312 
z
" style="fill:#1f77b4;opacity:0.5;"/>
   </g>
   <g id="patch_44">
    <path clip-path="url(#p3d2b428114)" d="M 176.472898 228.14 
L 179.516534 228.14 
L 179.516534 212.687589 
L 176.472898 212.687589 
z
" style="fill:#1f77b4;opacity:0.5;"/>
   </g>
   <g id="patch_45">
    <path clip-path="url(#p3d2b428114)" d="M 179.516534 228.14 
L 182.56017 228.14 
L 182.56017 213.858227 
L 179.516534 213.858227 
z
" style="fill:#1f77b4;opacity:0.5;"/>
   </g>
   <g id="patch_46">
    <path clip-path="url(#p3d2b428114)" d="M 182.56017 228.14 
L 185.603807 228.14 
L 185.603807 217.253074 
L 182.56017 217.253074 
z
" style="fill:#1f77b4;opacity:0.5;"/>
   </g>
   <g id="patch_47">
    <path clip-path="url(#p3d2b428114)" d="M 185.603807 228.14 
L 188.647443 228.14 
L 188.647443 228.14 
L 185.603807 228.14 
z
" style="fill:#1f77b4;opacity:0.5;"/>
   </g>
   <g id="patch_48">
    <path clip-path="url(#p3d2b428114)" d="M 188.647443 228.14 
L 191.69108 228.14 
L 191.69108 216.140969 
L 188.647443 216.140969 
z
" style="fill:#1f77b4;opacity:0.5;"/>
   </g>
   <g id="patch_49">
    <path clip-path="url(#p3d2b428114)" d="M 191.69108 228.14 
L 194.734716 228.14 
L 194.734716 217.311606 
L 191.69108 217.311606 
z
" style="fill:#1f77b4;opacity:0.5;"/>
   </g>
   <g id="patch_50">
    <path clip-path="url(#p3d2b428114)" d="M 194.734716 228.14 
L 197.778352 228.14 
L 197.778352 218.248116 
L 194.734716 218.248116 
z
" style="fill:#1f77b4;opacity:0.5;"/>
   </g>
   <g id="patch_51">
    <path clip-path="url(#p3d2b428114)" d="M 197.778352 228.14 
L 200.821989 228.14 
L 200.821989 218.657839 
L 197.778352 218.657839 
z
" style="fill:#1f77b4;opacity:0.5;"/>
   </g>
   <g id="patch_52">
    <path clip-path="url(#p3d2b428114)" d="M 200.821989 228.14 
L 203.865625 228.14 
L 203.865625 220.355263 
L 200.821989 220.355263 
z
" style="fill:#1f77b4;opacity:0.5;"/>
   </g>
   <g id="patch_53">
    <path clip-path="url(#p3d2b428114)" d="M 203.865625 228.14 
L 206.909261 228.14 
L 206.909261 222.052687 
L 203.865625 222.052687 
z
" style="fill:#1f77b4;opacity:0.5;"/>
   </g>
   <g id="patch_54">
    <path clip-path="url(#p3d2b428114)" d="M 206.909261 228.14 
L 209.952898 228.14 
L 209.952898 222.052687 
L 206.909261 222.052687 
z
" style="fill:#1f77b4;opacity:0.5;"/>
   </g>
   <g id="patch_55">
    <path clip-path="url(#p3d2b428114)" d="M 209.952898 228.14 
L 212.996534 228.14 
L 212.996534 222.46241 
L 209.952898 222.46241 
z
" style="fill:#1f77b4;opacity:0.5;"/>
   </g>
   <g id="patch_56">
    <path clip-path="url(#p3d2b428114)" d="M 212.996534 228.14 
L 216.04017 228.14 
L 216.04017 224.276897 
L 212.996534 224.276897 
z
" style="fill:#1f77b4;opacity:0.5;"/>
   </g>
   <g id="patch_57">
    <path clip-path="url(#p3d2b428114)" d="M 216.04017 228.14 
L 219.083807 228.14 
L 219.083807 224.745152 
L 216.04017 224.745152 
z
" style="fill:#1f77b4;opacity:0.5;"/>
   </g>
   <g id="patch_58">
    <path clip-path="url(#p3d2b428114)" d="M 219.083807 228.14 
L 222.127443 228.14 
L 222.127443 228.14 
L 219.083807 228.14 
z
" style="fill:#1f77b4;opacity:0.5;"/>
   </g>
   <g id="patch_59">
    <path clip-path="url(#p3d2b428114)" d="M 222.127443 228.14 
L 225.17108 228.14 
L 225.17108 226.384044 
L 222.127443 226.384044 
z
" style="fill:#1f77b4;opacity:0.5;"/>
   </g>
   <g id="patch_60">
    <path clip-path="url(#p3d2b428114)" d="M 225.17108 228.14 
L 228.214716 228.14 
L 228.214716 228.081468 
L 225.17108 228.081468 
z
" style="fill:#1f77b4;opacity:0.5;"/>
   </g>
   <g id="patch_61">
    <path clip-path="url(#p3d2b428114)" d="M 228.214716 228.14 
L 231.258352 228.14 
L 231.258352 228.081468 
L 228.214716 228.081468 
z
" style="fill:#1f77b4;opacity:0.5;"/>
   </g>
   <g id="patch_62">
    <path clip-path="url(#p3d2b428114)" d="M 231.258352 228.14 
L 234.301989 228.14 
L 234.301989 228.081468 
L 231.258352 228.081468 
z
" style="fill:#1f77b4;opacity:0.5;"/>
   </g>
   <g id="patch_63">
    <path clip-path="url(#p3d2b428114)" d="M 234.301989 228.14 
L 237.345625 228.14 
L 237.345625 228.081468 
L 234.301989 228.081468 
z
" style="fill:#1f77b4;opacity:0.5;"/>
   </g>
   <g id="patch_64">
    <path clip-path="url(#p3d2b428114)" d="M 237.345625 228.14 
L 240.389261 228.14 
L 240.389261 228.081468 
L 237.345625 228.081468 
z
" style="fill:#1f77b4;opacity:0.5;"/>
   </g>
   <g id="patch_65">
    <path clip-path="url(#p3d2b428114)" d="M 240.389261 228.14 
L 243.432898 228.14 
L 243.432898 228.081468 
L 240.389261 228.081468 
z
" style="fill:#1f77b4;opacity:0.5;"/>
   </g>
   <g id="patch_66">
    <path clip-path="url(#p3d2b428114)" d="M 243.432898 228.14 
L 246.476534 228.14 
L 246.476534 228.022936 
L 243.432898 228.022936 
z
" style="fill:#1f77b4;opacity:0.5;"/>
   </g>
   <g id="patch_67">
    <path clip-path="url(#p3d2b428114)" d="M 246.476534 228.14 
L 249.52017 228.14 
L 249.52017 228.081468 
L 246.476534 228.081468 
z
" style="fill:#1f77b4;opacity:0.5;"/>
   </g>
   <g id="patch_68">
    <path clip-path="url(#p3d2b428114)" d="M 249.52017 228.14 
L 252.563807 228.14 
L 252.563807 228.022936 
L 249.52017 228.022936 
z
" style="fill:#1f77b4;opacity:0.5;"/>
   </g>
   <g id="patch_69">
    <path clip-path="url(#p3d2b428114)" d="M 252.563807 228.14 
L 255.607443 228.14 
L 255.607443 228.14 
L 252.563807 228.14 
z
" style="fill:#1f77b4;opacity:0.5;"/>
   </g>
   <g id="patch_70">
    <path clip-path="url(#p3d2b428114)" d="M 255.607443 228.14 
L 258.65108 228.14 
L 258.65108 227.964404 
L 255.607443 227.964404 
z
" style="fill:#1f77b4;opacity:0.5;"/>
   </g>
   <g id="patch_71">
    <path clip-path="url(#p3d2b428114)" d="M 258.65108 228.14 
L 261.694716 228.14 
L 261.694716 227.964404 
L 258.65108 227.964404 
z
" style="fill:#1f77b4;opacity:0.5;"/>
   </g>
   <g id="patch_72">
    <path clip-path="url(#p3d2b428114)" d="M 261.694716 228.14 
L 264.738352 228.14 
L 264.738352 228.081468 
L 261.694716 228.081468 
z
" style="fill:#1f77b4;opacity:0.5;"/>
   </g>
   <g id="patch_73">
    <path clip-path="url(#p3d2b428114)" d="M 264.738352 228.14 
L 267.781989 228.14 
L 267.781989 228.081468 
L 264.738352 228.081468 
z
" style="fill:#1f77b4;opacity:0.5;"/>
   </g>
   <g id="patch_74">
    <path clip-path="url(#p3d2b428114)" d="M 267.781989 228.14 
L 270.825625 228.14 
L 270.825625 228.081468 
L 267.781989 228.081468 
z
" style="fill:#1f77b4;opacity:0.5;"/>
   </g>
   <g id="patch_75">
    <path clip-path="url(#p3d2b428114)" d="M 270.825625 228.14 
L 273.869261 228.14 
L 273.869261 228.14 
L 270.825625 228.14 
z
" style="fill:#1f77b4;opacity:0.5;"/>
   </g>
   <g id="patch_76">
    <path clip-path="url(#p3d2b428114)" d="M 273.869261 228.14 
L 276.912898 228.14 
L 276.912898 228.081468 
L 273.869261 228.081468 
z
" style="fill:#1f77b4;opacity:0.5;"/>
   </g>
   <g id="patch_77">
    <path clip-path="url(#p3d2b428114)" d="M 276.912898 228.14 
L 279.956534 228.14 
L 279.956534 228.14 
L 276.912898 228.14 
z
" style="fill:#1f77b4;opacity:0.5;"/>
   </g>
   <g id="patch_78">
    <path clip-path="url(#p3d2b428114)" d="M 279.956534 228.14 
L 283.00017 228.14 
L 283.00017 228.081468 
L 279.956534 228.081468 
z
" style="fill:#1f77b4;opacity:0.5;"/>
   </g>
   <g id="patch_79">
    <path clip-path="url(#p3d2b428114)" d="M 283.00017 228.14 
L 286.043807 228.14 
L 286.043807 228.081468 
L 283.00017 228.081468 
z
" style="fill:#1f77b4;opacity:0.5;"/>
   </g>
   <g id="patch_80">
    <path clip-path="url(#p3d2b428114)" d="M 286.043807 228.14 
L 289.087443 228.14 
L 289.087443 228.14 
L 286.043807 228.14 
z
" style="fill:#1f77b4;opacity:0.5;"/>
   </g>
   <g id="patch_81">
    <path clip-path="url(#p3d2b428114)" d="M 289.087443 228.14 
L 292.13108 228.14 
L 292.13108 228.14 
L 289.087443 228.14 
z
" style="fill:#1f77b4;opacity:0.5;"/>
   </g>
   <g id="patch_82">
    <path clip-path="url(#p3d2b428114)" d="M 292.13108 228.14 
L 295.174716 228.14 
L 295.174716 228.14 
L 292.13108 228.14 
z
" style="fill:#1f77b4;opacity:0.5;"/>
   </g>
   <g id="patch_83">
    <path clip-path="url(#p3d2b428114)" d="M 295.174716 228.14 
L 298.218352 228.14 
L 298.218352 228.081468 
L 295.174716 228.081468 
z
" style="fill:#1f77b4;opacity:0.5;"/>
   </g>
   <g id="patch_84">
    <path clip-path="url(#p3d2b428114)" d="M 298.218352 228.14 
L 301.261989 228.14 
L 301.261989 228.022936 
L 298.218352 228.022936 
z
" style="fill:#1f77b4;opacity:0.5;"/>
   </g>
   <g id="patch_85">
    <path clip-path="url(#p3d2b428114)" d="M 301.261989 228.14 
L 304.305625 228.14 
L 304.305625 228.081468 
L 301.261989 228.081468 
z
" style="fill:#1f77b4;opacity:0.5;"/>
   </g>
   <g id="patch_86">
    <path clip-path="url(#p3d2b428114)" d="M 304.305625 228.14 
L 307.349261 228.14 
L 307.349261 228.081468 
L 304.305625 228.081468 
z
" style="fill:#1f77b4;opacity:0.5;"/>
   </g>
   <g id="patch_87">
    <path clip-path="url(#p3d2b428114)" d="M 307.349261 228.14 
L 310.392898 228.14 
L 310.392898 228.14 
L 307.349261 228.14 
z
" style="fill:#1f77b4;opacity:0.5;"/>
   </g>
   <g id="patch_88">
    <path clip-path="url(#p3d2b428114)" d="M 310.392898 228.14 
L 313.436534 228.14 
L 313.436534 228.14 
L 310.392898 228.14 
z
" style="fill:#1f77b4;opacity:0.5;"/>
   </g>
   <g id="patch_89">
    <path clip-path="url(#p3d2b428114)" d="M 313.436534 228.14 
L 316.48017 228.14 
L 316.48017 228.14 
L 313.436534 228.14 
z
" style="fill:#1f77b4;opacity:0.5;"/>
   </g>
   <g id="patch_90">
    <path clip-path="url(#p3d2b428114)" d="M 316.48017 228.14 
L 319.523807 228.14 
L 319.523807 228.081468 
L 316.48017 228.081468 
z
" style="fill:#1f77b4;opacity:0.5;"/>
   </g>
   <g id="patch_91">
    <path clip-path="url(#p3d2b428114)" d="M 319.523807 228.14 
L 322.567443 228.14 
L 322.567443 228.14 
L 319.523807 228.14 
z
" style="fill:#1f77b4;opacity:0.5;"/>
   </g>
   <g id="patch_92">
    <path clip-path="url(#p3d2b428114)" d="M 322.567443 228.14 
L 325.61108 228.14 
L 325.61108 53.246808 
L 322.567443 53.246808 
z
" style="fill:#1f77b4;opacity:0.5;"/>
   </g>
   <g id="patch_93">
    <path clip-path="url(#p3d2b428114)" d="M 325.61108 228.14 
L 328.654716 228.14 
L 328.654716 228.14 
L 325.61108 228.14 
z
" style="fill:#1f77b4;opacity:0.5;"/>
   </g>
   <g id="patch_94">
    <path clip-path="url(#p3d2b428114)" d="M 328.654716 228.14 
L 331.698352 228.14 
L 331.698352 228.14 
L 328.654716 228.14 
z
" style="fill:#1f77b4;opacity:0.5;"/>
   </g>
   <g id="patch_95">
    <path clip-path="url(#p3d2b428114)" d="M 331.698352 228.14 
L 334.741989 228.14 
L 334.741989 228.14 
L 331.698352 228.14 
z
" style="fill:#1f77b4;opacity:0.5;"/>
   </g>
   <g id="patch_96">
    <path clip-path="url(#p3d2b428114)" d="M 334.741989 228.14 
L 337.785625 228.14 
L 337.785625 228.14 
L 334.741989 228.14 
z
" style="fill:#1f77b4;opacity:0.5;"/>
   </g>
   <g id="patch_97">
    <path clip-path="url(#p3d2b428114)" d="M 337.785625 228.14 
L 340.829261 228.14 
L 340.829261 228.14 
L 337.785625 228.14 
z
" style="fill:#1f77b4;opacity:0.5;"/>
   </g>
   <g id="patch_98">
    <path clip-path="url(#p3d2b428114)" d="M 340.829261 228.14 
L 343.872898 228.14 
L 343.872898 228.14 
L 340.829261 228.14 
z
" style="fill:#1f77b4;opacity:0.5;"/>
   </g>
   <g id="patch_99">
    <path clip-path="url(#p3d2b428114)" d="M 343.872898 228.14 
L 346.916534 228.14 
L 346.916534 228.14 
L 343.872898 228.14 
z
" style="fill:#1f77b4;opacity:0.5;"/>
   </g>
   <g id="patch_100">
    <path clip-path="url(#p3d2b428114)" d="M 346.916534 228.14 
L 349.96017 228.14 
L 349.96017 228.14 
L 346.916534 228.14 
z
" style="fill:#1f77b4;opacity:0.5;"/>
   </g>
   <g id="patch_101">
    <path clip-path="url(#p3d2b428114)" d="M 349.96017 228.14 
L 353.003807 228.14 
L 353.003807 228.14 
L 349.96017 228.14 
z
" style="fill:#1f77b4;opacity:0.5;"/>
   </g>
   <g id="patch_102">
    <path clip-path="url(#p3d2b428114)" d="M 353.003807 228.14 
L 356.047443 228.14 
L 356.047443 228.081468 
L 353.003807 228.081468 
z
" style="fill:#1f77b4;opacity:0.5;"/>
   </g>
   <g id="matplotlib.axis_1">
    <g id="xtick_1">
     <g id="line2d_1">
      <defs>
       <path d="M 0 0 
L 0 3.5 
" id="m479db8ca56" style="stroke:#000000;stroke-width:0.8;"/>
      </defs>
      <g>
       <use style="stroke:#000000;stroke-width:0.8;" x="58.373118" xlink:href="#m479db8ca56" y="228.14"/>
      </g>
     </g>
     <g id="text_1">
      <!-- 20 -->
      <defs>
       <path d="M 19.1875 8.296875 
L 53.609375 8.296875 
L 53.609375 0 
L 7.328125 0 
L 7.328125 8.296875 
Q 12.9375 14.109375 22.625 23.890625 
Q 32.328125 33.6875 34.8125 36.53125 
Q 39.546875 41.84375 41.421875 45.53125 
Q 43.3125 49.21875 43.3125 52.78125 
Q 43.3125 58.59375 39.234375 62.25 
Q 35.15625 65.921875 28.609375 65.921875 
Q 23.96875 65.921875 18.8125 64.3125 
Q 13.671875 62.703125 7.8125 59.421875 
L 7.8125 69.390625 
Q 13.765625 71.78125 18.9375 73 
Q 24.125 74.21875 28.421875 74.21875 
Q 39.75 74.21875 46.484375 68.546875 
Q 53.21875 62.890625 53.21875 53.421875 
Q 53.21875 48.921875 51.53125 44.890625 
Q 49.859375 40.875 45.40625 35.40625 
Q 44.1875 33.984375 37.640625 27.21875 
Q 31.109375 20.453125 19.1875 8.296875 
z
" id="DejaVuSans-50"/>
       <path d="M 31.78125 66.40625 
Q 24.171875 66.40625 20.328125 58.90625 
Q 16.5 51.421875 16.5 36.375 
Q 16.5 21.390625 20.328125 13.890625 
Q 24.171875 6.390625 31.78125 6.390625 
Q 39.453125 6.390625 43.28125 13.890625 
Q 47.125 21.390625 47.125 36.375 
Q 47.125 51.421875 43.28125 58.90625 
Q 39.453125 66.40625 31.78125 66.40625 
z
M 31.78125 74.21875 
Q 44.046875 74.21875 50.515625 64.515625 
Q 56.984375 54.828125 56.984375 36.375 
Q 56.984375 17.96875 50.515625 8.265625 
Q 44.046875 -1.421875 31.78125 -1.421875 
Q 19.53125 -1.421875 13.0625 8.265625 
Q 6.59375 17.96875 6.59375 36.375 
Q 6.59375 54.828125 13.0625 64.515625 
Q 19.53125 74.21875 31.78125 74.21875 
z
" id="DejaVuSans-48"/>
      </defs>
      <g transform="translate(52.010618 242.738437)scale(0.1 -0.1)">
       <use xlink:href="#DejaVuSans-50"/>
       <use x="63.623047" xlink:href="#DejaVuSans-48"/>
      </g>
     </g>
    </g>
    <g id="xtick_2">
     <g id="line2d_2">
      <g>
       <use style="stroke:#000000;stroke-width:0.8;" x="125.266224" xlink:href="#m479db8ca56" y="228.14"/>
      </g>
     </g>
     <g id="text_2">
      <!-- 40 -->
      <defs>
       <path d="M 37.796875 64.3125 
L 12.890625 25.390625 
L 37.796875 25.390625 
z
M 35.203125 72.90625 
L 47.609375 72.90625 
L 47.609375 25.390625 
L 58.015625 25.390625 
L 58.015625 17.1875 
L 47.609375 17.1875 
L 47.609375 0 
L 37.796875 0 
L 37.796875 17.1875 
L 4.890625 17.1875 
L 4.890625 26.703125 
z
" id="DejaVuSans-52"/>
      </defs>
      <g transform="translate(118.903724 242.738437)scale(0.1 -0.1)">
       <use xlink:href="#DejaVuSans-52"/>
       <use x="63.623047" xlink:href="#DejaVuSans-48"/>
      </g>
     </g>
    </g>
    <g id="xtick_3">
     <g id="line2d_3">
      <g>
       <use style="stroke:#000000;stroke-width:0.8;" x="192.159331" xlink:href="#m479db8ca56" y="228.14"/>
      </g>
     </g>
     <g id="text_3">
      <!-- 60 -->
      <defs>
       <path d="M 33.015625 40.375 
Q 26.375 40.375 22.484375 35.828125 
Q 18.609375 31.296875 18.609375 23.390625 
Q 18.609375 15.53125 22.484375 10.953125 
Q 26.375 6.390625 33.015625 6.390625 
Q 39.65625 6.390625 43.53125 10.953125 
Q 47.40625 15.53125 47.40625 23.390625 
Q 47.40625 31.296875 43.53125 35.828125 
Q 39.65625 40.375 33.015625 40.375 
z
M 52.59375 71.296875 
L 52.59375 62.3125 
Q 48.875 64.0625 45.09375 64.984375 
Q 41.3125 65.921875 37.59375 65.921875 
Q 27.828125 65.921875 22.671875 59.328125 
Q 17.53125 52.734375 16.796875 39.40625 
Q 19.671875 43.65625 24.015625 45.921875 
Q 28.375 48.1875 33.59375 48.1875 
Q 44.578125 48.1875 50.953125 41.515625 
Q 57.328125 34.859375 57.328125 23.390625 
Q 57.328125 12.15625 50.6875 5.359375 
Q 44.046875 -1.421875 33.015625 -1.421875 
Q 20.359375 -1.421875 13.671875 8.265625 
Q 6.984375 17.96875 6.984375 36.375 
Q 6.984375 53.65625 15.1875 63.9375 
Q 23.390625 74.21875 37.203125 74.21875 
Q 40.921875 74.21875 44.703125 73.484375 
Q 48.484375 72.75 52.59375 71.296875 
z
" id="DejaVuSans-54"/>
      </defs>
      <g transform="translate(185.796831 242.738437)scale(0.1 -0.1)">
       <use xlink:href="#DejaVuSans-54"/>
       <use x="63.623047" xlink:href="#DejaVuSans-48"/>
      </g>
     </g>
    </g>
    <g id="xtick_4">
     <g id="line2d_4">
      <g>
       <use style="stroke:#000000;stroke-width:0.8;" x="259.052438" xlink:href="#m479db8ca56" y="228.14"/>
      </g>
     </g>
     <g id="text_4">
      <!-- 80 -->
      <defs>
       <path d="M 31.78125 34.625 
Q 24.75 34.625 20.71875 30.859375 
Q 16.703125 27.09375 16.703125 20.515625 
Q 16.703125 13.921875 20.71875 10.15625 
Q 24.75 6.390625 31.78125 6.390625 
Q 38.8125 6.390625 42.859375 10.171875 
Q 46.921875 13.96875 46.921875 20.515625 
Q 46.921875 27.09375 42.890625 30.859375 
Q 38.875 34.625 31.78125 34.625 
z
M 21.921875 38.8125 
Q 15.578125 40.375 12.03125 44.71875 
Q 8.5 49.078125 8.5 55.328125 
Q 8.5 64.0625 14.71875 69.140625 
Q 20.953125 74.21875 31.78125 74.21875 
Q 42.671875 74.21875 48.875 69.140625 
Q 55.078125 64.0625 55.078125 55.328125 
Q 55.078125 49.078125 51.53125 44.71875 
Q 48 40.375 41.703125 38.8125 
Q 48.828125 37.15625 52.796875 32.3125 
Q 56.78125 27.484375 56.78125 20.515625 
Q 56.78125 9.90625 50.3125 4.234375 
Q 43.84375 -1.421875 31.78125 -1.421875 
Q 19.734375 -1.421875 13.25 4.234375 
Q 6.78125 9.90625 6.78125 20.515625 
Q 6.78125 27.484375 10.78125 32.3125 
Q 14.796875 37.15625 21.921875 38.8125 
z
M 18.3125 54.390625 
Q 18.3125 48.734375 21.84375 45.5625 
Q 25.390625 42.390625 31.78125 42.390625 
Q 38.140625 42.390625 41.71875 45.5625 
Q 45.3125 48.734375 45.3125 54.390625 
Q 45.3125 60.0625 41.71875 63.234375 
Q 38.140625 66.40625 31.78125 66.40625 
Q 25.390625 66.40625 21.84375 63.234375 
Q 18.3125 60.0625 18.3125 54.390625 
z
" id="DejaVuSans-56"/>
      </defs>
      <g transform="translate(252.689938 242.738437)scale(0.1 -0.1)">
       <use xlink:href="#DejaVuSans-56"/>
       <use x="63.623047" xlink:href="#DejaVuSans-48"/>
      </g>
     </g>
    </g>
    <g id="xtick_5">
     <g id="line2d_5">
      <g>
       <use style="stroke:#000000;stroke-width:0.8;" x="325.945545" xlink:href="#m479db8ca56" y="228.14"/>
      </g>
     </g>
     <g id="text_5">
      <!-- 100 -->
      <defs>
       <path d="M 12.40625 8.296875 
L 28.515625 8.296875 
L 28.515625 63.921875 
L 10.984375 60.40625 
L 10.984375 69.390625 
L 28.421875 72.90625 
L 38.28125 72.90625 
L 38.28125 8.296875 
L 54.390625 8.296875 
L 54.390625 0 
L 12.40625 0 
z
" id="DejaVuSans-49"/>
      </defs>
      <g transform="translate(316.401795 242.738437)scale(0.1 -0.1)">
       <use xlink:href="#DejaVuSans-49"/>
       <use x="63.623047" xlink:href="#DejaVuSans-48"/>
       <use x="127.246094" xlink:href="#DejaVuSans-48"/>
      </g>
     </g>
    </g>
   </g>
   <g id="matplotlib.axis_2">
    <g id="ytick_1">
     <g id="line2d_6">
      <defs>
       <path d="M 0 0 
L -3.5 0 
" id="m7030cf63b6" style="stroke:#000000;stroke-width:0.8;"/>
      </defs>
      <g>
       <use style="stroke:#000000;stroke-width:0.8;" x="36.465625" xlink:href="#m7030cf63b6" y="228.14"/>
      </g>
     </g>
     <g id="text_6">
      <!-- 0.00 -->
      <defs>
       <path d="M 10.6875 12.40625 
L 21 12.40625 
L 21 0 
L 10.6875 0 
z
" id="DejaVuSans-46"/>
      </defs>
      <g transform="translate(7.2 231.939219)scale(0.1 -0.1)">
       <use xlink:href="#DejaVuSans-48"/>
       <use x="63.623047" xlink:href="#DejaVuSans-46"/>
       <use x="95.410156" xlink:href="#DejaVuSans-48"/>
       <use x="159.033203" xlink:href="#DejaVuSans-48"/>
      </g>
     </g>
    </g>
    <g id="ytick_2">
     <g id="line2d_7">
      <g>
       <use style="stroke:#000000;stroke-width:0.8;" x="36.465625" xlink:href="#m7030cf63b6" y="196.211433"/>
      </g>
     </g>
     <g id="text_7">
      <!-- 0.01 -->
      <g transform="translate(7.2 200.010652)scale(0.1 -0.1)">
       <use xlink:href="#DejaVuSans-48"/>
       <use x="63.623047" xlink:href="#DejaVuSans-46"/>
       <use x="95.410156" xlink:href="#DejaVuSans-48"/>
       <use x="159.033203" xlink:href="#DejaVuSans-49"/>
      </g>
     </g>
    </g>
    <g id="ytick_3">
     <g id="line2d_8">
      <g>
       <use style="stroke:#000000;stroke-width:0.8;" x="36.465625" xlink:href="#m7030cf63b6" y="164.282867"/>
      </g>
     </g>
     <g id="text_8">
      <!-- 0.02 -->
      <g transform="translate(7.2 168.082085)scale(0.1 -0.1)">
       <use xlink:href="#DejaVuSans-48"/>
       <use x="63.623047" xlink:href="#DejaVuSans-46"/>
       <use x="95.410156" xlink:href="#DejaVuSans-48"/>
       <use x="159.033203" xlink:href="#DejaVuSans-50"/>
      </g>
     </g>
    </g>
    <g id="ytick_4">
     <g id="line2d_9">
      <g>
       <use style="stroke:#000000;stroke-width:0.8;" x="36.465625" xlink:href="#m7030cf63b6" y="132.3543"/>
      </g>
     </g>
     <g id="text_9">
      <!-- 0.03 -->
      <defs>
       <path d="M 40.578125 39.3125 
Q 47.65625 37.796875 51.625 33 
Q 55.609375 28.21875 55.609375 21.1875 
Q 55.609375 10.40625 48.1875 4.484375 
Q 40.765625 -1.421875 27.09375 -1.421875 
Q 22.515625 -1.421875 17.65625 -0.515625 
Q 12.796875 0.390625 7.625 2.203125 
L 7.625 11.71875 
Q 11.71875 9.328125 16.59375 8.109375 
Q 21.484375 6.890625 26.8125 6.890625 
Q 36.078125 6.890625 40.9375 10.546875 
Q 45.796875 14.203125 45.796875 21.1875 
Q 45.796875 27.640625 41.28125 31.265625 
Q 36.765625 34.90625 28.71875 34.90625 
L 20.21875 34.90625 
L 20.21875 43.015625 
L 29.109375 43.015625 
Q 36.375 43.015625 40.234375 45.921875 
Q 44.09375 48.828125 44.09375 54.296875 
Q 44.09375 59.90625 40.109375 62.90625 
Q 36.140625 65.921875 28.71875 65.921875 
Q 24.65625 65.921875 20.015625 65.03125 
Q 15.375 64.15625 9.8125 62.3125 
L 9.8125 71.09375 
Q 15.4375 72.65625 20.34375 73.4375 
Q 25.25 74.21875 29.59375 74.21875 
Q 40.828125 74.21875 47.359375 69.109375 
Q 53.90625 64.015625 53.90625 55.328125 
Q 53.90625 49.265625 50.4375 45.09375 
Q 46.96875 40.921875 40.578125 39.3125 
z
" id="DejaVuSans-51"/>
      </defs>
      <g transform="translate(7.2 136.153519)scale(0.1 -0.1)">
       <use xlink:href="#DejaVuSans-48"/>
       <use x="63.623047" xlink:href="#DejaVuSans-46"/>
       <use x="95.410156" xlink:href="#DejaVuSans-48"/>
       <use x="159.033203" xlink:href="#DejaVuSans-51"/>
      </g>
     </g>
    </g>
    <g id="ytick_5">
     <g id="line2d_10">
      <g>
       <use style="stroke:#000000;stroke-width:0.8;" x="36.465625" xlink:href="#m7030cf63b6" y="100.425733"/>
      </g>
     </g>
     <g id="text_10">
      <!-- 0.04 -->
      <g transform="translate(7.2 104.224952)scale(0.1 -0.1)">
       <use xlink:href="#DejaVuSans-48"/>
       <use x="63.623047" xlink:href="#DejaVuSans-46"/>
       <use x="95.410156" xlink:href="#DejaVuSans-48"/>
       <use x="159.033203" xlink:href="#DejaVuSans-52"/>
      </g>
     </g>
    </g>
    <g id="ytick_6">
     <g id="line2d_11">
      <g>
       <use style="stroke:#000000;stroke-width:0.8;" x="36.465625" xlink:href="#m7030cf63b6" y="68.497166"/>
      </g>
     </g>
     <g id="text_11">
      <!-- 0.05 -->
      <defs>
       <path d="M 10.796875 72.90625 
L 49.515625 72.90625 
L 49.515625 64.59375 
L 19.828125 64.59375 
L 19.828125 46.734375 
Q 21.96875 47.46875 24.109375 47.828125 
Q 26.265625 48.1875 28.421875 48.1875 
Q 40.625 48.1875 47.75 41.5 
Q 54.890625 34.8125 54.890625 23.390625 
Q 54.890625 11.625 47.5625 5.09375 
Q 40.234375 -1.421875 26.90625 -1.421875 
Q 22.3125 -1.421875 17.546875 -0.640625 
Q 12.796875 0.140625 7.71875 1.703125 
L 7.71875 11.625 
Q 12.109375 9.234375 16.796875 8.0625 
Q 21.484375 6.890625 26.703125 6.890625 
Q 35.15625 6.890625 40.078125 11.328125 
Q 45.015625 15.765625 45.015625 23.390625 
Q 45.015625 31 40.078125 35.4375 
Q 35.15625 39.890625 26.703125 39.890625 
Q 22.75 39.890625 18.8125 39.015625 
Q 14.890625 38.140625 10.796875 36.28125 
z
" id="DejaVuSans-53"/>
      </defs>
      <g transform="translate(7.2 72.296385)scale(0.1 -0.1)">
       <use xlink:href="#DejaVuSans-48"/>
       <use x="63.623047" xlink:href="#DejaVuSans-46"/>
       <use x="95.410156" xlink:href="#DejaVuSans-48"/>
       <use x="159.033203" xlink:href="#DejaVuSans-53"/>
      </g>
     </g>
    </g>
    <g id="ytick_7">
     <g id="line2d_12">
      <g>
       <use style="stroke:#000000;stroke-width:0.8;" x="36.465625" xlink:href="#m7030cf63b6" y="36.5686"/>
      </g>
     </g>
     <g id="text_12">
      <!-- 0.06 -->
      <g transform="translate(7.2 40.367818)scale(0.1 -0.1)">
       <use xlink:href="#DejaVuSans-48"/>
       <use x="63.623047" xlink:href="#DejaVuSans-46"/>
       <use x="95.410156" xlink:href="#DejaVuSans-48"/>
       <use x="159.033203" xlink:href="#DejaVuSans-54"/>
      </g>
     </g>
    </g>
   </g>
   <g id="patch_103">
    <path d="M 36.465625 228.14 
L 36.465625 10.7 
" style="fill:none;stroke:#000000;stroke-linecap:square;stroke-linejoin:miter;stroke-width:0.8;"/>
   </g>
   <g id="patch_104">
    <path d="M 371.265625 228.14 
L 371.265625 10.7 
" style="fill:none;stroke:#000000;stroke-linecap:square;stroke-linejoin:miter;stroke-width:0.8;"/>
   </g>
   <g id="patch_105">
    <path d="M 36.465625 228.14 
L 371.265625 228.14 
" style="fill:none;stroke:#000000;stroke-linecap:square;stroke-linejoin:miter;stroke-width:0.8;"/>
   </g>
   <g id="patch_106">
    <path d="M 36.465625 10.7 
L 371.265625 10.7 
" style="fill:none;stroke:#000000;stroke-linecap:square;stroke-linejoin:miter;stroke-width:0.8;"/>
   </g>
  </g>
 </g>
 <defs>
  <clipPath id="p3d2b428114">
   <rect height="217.44" width="334.8" x="36.465625" y="10.7"/>
  </clipPath>
 </defs>
</svg>
