<?xml version="1.0" encoding="utf-8" standalone="no"?>
<!DOCTYPE svg PUBLIC "-//W3C//DTD SVG 1.1//EN"
  "http://www.w3.org/Graphics/SVG/1.1/DTD/svg11.dtd">
<!-- Created with matplotlib (https://matplotlib.org/) -->
<svg height="252.018125pt" version="1.1" viewBox="0 0 381.965625 252.018125" width="381.965625pt" xmlns="http://www.w3.org/2000/svg" xmlns:xlink="http://www.w3.org/1999/xlink">
 <defs>
  <style type="text/css">
*{stroke-linecap:butt;stroke-linejoin:round;}
  </style>
 </defs>
 <g id="figure_1">
  <g id="patch_1">
   <path d="M 0 252.018125 
L 381.965625 252.018125 
L 381.965625 0 
L 0 0 
z
" style="fill:none;"/>
  </g>
  <g id="axes_1">
   <g id="patch_2">
    <path d="M 36.465625 228.14 
L 371.265625 228.14 
L 371.265625 10.7 
L 36.465625 10.7 
z
" style="fill:#ffffff;"/>
   </g>
   <g id="patch_3">
    <path clip-path="url(#pb8e2f8d5a6)" d="M 51.683807 228.14 
L 59.292898 228.14 
L 59.292898 228.119456 
L 51.683807 228.119456 
z
" style="fill:#1f77b4;opacity:0.5;"/>
   </g>
   <g id="patch_4">
    <path clip-path="url(#pb8e2f8d5a6)" d="M 59.292898 228.14 
L 66.901989 228.14 
L 66.901989 228.14 
L 59.292898 228.14 
z
" style="fill:#1f77b4;opacity:0.5;"/>
   </g>
   <g id="patch_5">
    <path clip-path="url(#pb8e2f8d5a6)" d="M 66.901989 228.14 
L 74.51108 228.14 
L 74.51108 228.119456 
L 66.901989 228.119456 
z
" style="fill:#1f77b4;opacity:0.5;"/>
   </g>
   <g id="patch_6">
    <path clip-path="url(#pb8e2f8d5a6)" d="M 74.51108 228.14 
L 82.12017 228.14 
L 82.12017 228.119456 
L 74.51108 228.119456 
z
" style="fill:#1f77b4;opacity:0.5;"/>
   </g>
   <g id="patch_7">
    <path clip-path="url(#pb8e2f8d5a6)" d="M 82.12017 228.14 
L 89.729261 228.14 
L 89.729261 228.14 
L 82.12017 228.14 
z
" style="fill:#1f77b4;opacity:0.5;"/>
   </g>
   <g id="patch_8">
    <path clip-path="url(#pb8e2f8d5a6)" d="M 89.729261 228.14 
L 97.338352 228.14 
L 97.338352 228.14 
L 89.729261 228.14 
z
" style="fill:#1f77b4;opacity:0.5;"/>
   </g>
   <g id="patch_9">
    <path clip-path="url(#pb8e2f8d5a6)" d="M 97.338352 228.14 
L 104.947443 228.14 
L 104.947443 228.14 
L 97.338352 228.14 
z
" style="fill:#1f77b4;opacity:0.5;"/>
   </g>
   <g id="patch_10">
    <path clip-path="url(#pb8e2f8d5a6)" d="M 104.947443 228.14 
L 112.556534 228.14 
L 112.556534 228.14 
L 104.947443 228.14 
z
" style="fill:#1f77b4;opacity:0.5;"/>
   </g>
   <g id="patch_11">
    <path clip-path="url(#pb8e2f8d5a6)" d="M 112.556534 228.14 
L 120.165625 228.14 
L 120.165625 228.14 
L 112.556534 228.14 
z
" style="fill:#1f77b4;opacity:0.5;"/>
   </g>
   <g id="patch_12">
    <path clip-path="url(#pb8e2f8d5a6)" d="M 120.165625 228.14 
L 127.774716 228.14 
L 127.774716 228.14 
L 120.165625 228.14 
z
" style="fill:#1f77b4;opacity:0.5;"/>
   </g>
   <g id="patch_13">
    <path clip-path="url(#pb8e2f8d5a6)" d="M 127.774716 228.14 
L 135.383807 228.14 
L 135.383807 228.119456 
L 127.774716 228.119456 
z
" style="fill:#1f77b4;opacity:0.5;"/>
   </g>
   <g id="patch_14">
    <path clip-path="url(#pb8e2f8d5a6)" d="M 135.383807 228.14 
L 142.992898 228.14 
L 142.992898 228.14 
L 135.383807 228.14 
z
" style="fill:#1f77b4;opacity:0.5;"/>
   </g>
   <g id="patch_15">
    <path clip-path="url(#pb8e2f8d5a6)" d="M 142.992898 228.14 
L 150.601989 228.14 
L 150.601989 228.14 
L 142.992898 228.14 
z
" style="fill:#1f77b4;opacity:0.5;"/>
   </g>
   <g id="patch_16">
    <path clip-path="url(#pb8e2f8d5a6)" d="M 150.601989 228.14 
L 158.21108 228.14 
L 158.21108 228.14 
L 150.601989 228.14 
z
" style="fill:#1f77b4;opacity:0.5;"/>
   </g>
   <g id="patch_17">
    <path clip-path="url(#pb8e2f8d5a6)" d="M 158.21108 228.14 
L 165.82017 228.14 
L 165.82017 228.016736 
L 158.21108 228.016736 
z
" style="fill:#1f77b4;opacity:0.5;"/>
   </g>
   <g id="patch_18">
    <path clip-path="url(#pb8e2f8d5a6)" d="M 165.82017 228.14 
L 173.429261 228.14 
L 173.429261 228.119456 
L 165.82017 228.119456 
z
" style="fill:#1f77b4;opacity:0.5;"/>
   </g>
   <g id="patch_19">
    <path clip-path="url(#pb8e2f8d5a6)" d="M 173.429261 228.14 
L 181.038352 228.14 
L 181.038352 228.14 
L 173.429261 228.14 
z
" style="fill:#1f77b4;opacity:0.5;"/>
   </g>
   <g id="patch_20">
    <path clip-path="url(#pb8e2f8d5a6)" d="M 181.038352 228.14 
L 188.647443 228.14 
L 188.647443 228.119456 
L 181.038352 228.119456 
z
" style="fill:#1f77b4;opacity:0.5;"/>
   </g>
   <g id="patch_21">
    <path clip-path="url(#pb8e2f8d5a6)" d="M 188.647443 228.14 
L 196.256534 228.14 
L 196.256534 228.14 
L 188.647443 228.14 
z
" style="fill:#1f77b4;opacity:0.5;"/>
   </g>
   <g id="patch_22">
    <path clip-path="url(#pb8e2f8d5a6)" d="M 196.256534 228.14 
L 203.865625 228.14 
L 203.865625 228.119456 
L 196.256534 228.119456 
z
" style="fill:#1f77b4;opacity:0.5;"/>
   </g>
   <g id="patch_23">
    <path clip-path="url(#pb8e2f8d5a6)" d="M 203.865625 228.14 
L 211.474716 228.14 
L 211.474716 228.078368 
L 203.865625 228.078368 
z
" style="fill:#1f77b4;opacity:0.5;"/>
   </g>
   <g id="patch_24">
    <path clip-path="url(#pb8e2f8d5a6)" d="M 211.474716 228.14 
L 219.083807 228.14 
L 219.083807 228.14 
L 211.474716 228.14 
z
" style="fill:#1f77b4;opacity:0.5;"/>
   </g>
   <g id="patch_25">
    <path clip-path="url(#pb8e2f8d5a6)" d="M 219.083807 228.14 
L 226.692898 228.14 
L 226.692898 228.03728 
L 219.083807 228.03728 
z
" style="fill:#1f77b4;opacity:0.5;"/>
   </g>
   <g id="patch_26">
    <path clip-path="url(#pb8e2f8d5a6)" d="M 226.692898 228.14 
L 234.301989 228.14 
L 234.301989 228.119456 
L 226.692898 228.119456 
z
" style="fill:#1f77b4;opacity:0.5;"/>
   </g>
   <g id="patch_27">
    <path clip-path="url(#pb8e2f8d5a6)" d="M 234.301989 228.14 
L 241.91108 228.14 
L 241.91108 227.996193 
L 234.301989 227.996193 
z
" style="fill:#1f77b4;opacity:0.5;"/>
   </g>
   <g id="patch_28">
    <path clip-path="url(#pb8e2f8d5a6)" d="M 241.91108 228.14 
L 249.52017 228.14 
L 249.52017 225.83908 
L 241.91108 225.83908 
z
" style="fill:#1f77b4;opacity:0.5;"/>
   </g>
   <g id="patch_29">
    <path clip-path="url(#pb8e2f8d5a6)" d="M 249.52017 228.14 
L 257.129261 228.14 
L 257.129261 217.518789 
L 249.52017 217.518789 
z
" style="fill:#1f77b4;opacity:0.5;"/>
   </g>
   <g id="patch_30">
    <path clip-path="url(#pb8e2f8d5a6)" d="M 257.129261 228.14 
L 264.738352 228.14 
L 264.738352 181.135492 
L 257.129261 181.135492 
z
" style="fill:#1f77b4;opacity:0.5;"/>
   </g>
   <g id="patch_31">
    <path clip-path="url(#pb8e2f8d5a6)" d="M 264.738352 228.14 
L 272.347443 228.14 
L 272.347443 22.474733 
L 264.738352 22.474733 
z
" style="fill:#1f77b4;opacity:0.5;"/>
   </g>
   <g id="patch_32">
    <path clip-path="url(#pb8e2f8d5a6)" d="M 272.347443 228.14 
L 279.956534 228.14 
L 279.956534 27.89833 
L 272.347443 27.89833 
z
" style="fill:#1f77b4;opacity:0.5;"/>
   </g>
   <g id="patch_33">
    <path clip-path="url(#pb8e2f8d5a6)" d="M 279.956534 228.14 
L 287.565625 228.14 
L 287.565625 66.192212 
L 279.956534 66.192212 
z
" style="fill:#1f77b4;opacity:0.5;"/>
   </g>
   <g id="patch_34">
    <path clip-path="url(#pb8e2f8d5a6)" d="M 287.565625 228.14 
L 295.174716 228.14 
L 295.174716 132.076591 
L 287.565625 132.076591 
z
" style="fill:#1f77b4;opacity:0.5;"/>
   </g>
   <g id="patch_35">
    <path clip-path="url(#pb8e2f8d5a6)" d="M 295.174716 228.14 
L 302.783807 228.14 
L 302.783807 219.758077 
L 295.174716 219.758077 
z
" style="fill:#1f77b4;opacity:0.5;"/>
   </g>
   <g id="patch_36">
    <path clip-path="url(#pb8e2f8d5a6)" d="M 302.783807 228.14 
L 310.392898 228.14 
L 310.392898 226.41431 
L 302.783807 226.41431 
z
" style="fill:#1f77b4;opacity:0.5;"/>
   </g>
   <g id="patch_37">
    <path clip-path="url(#pb8e2f8d5a6)" d="M 310.392898 228.14 
L 318.001989 228.14 
L 318.001989 227.441506 
L 310.392898 227.441506 
z
" style="fill:#1f77b4;opacity:0.5;"/>
   </g>
   <g id="patch_38">
    <path clip-path="url(#pb8e2f8d5a6)" d="M 318.001989 228.14 
L 325.61108 228.14 
L 325.61108 227.955105 
L 318.001989 227.955105 
z
" style="fill:#1f77b4;opacity:0.5;"/>
   </g>
   <g id="patch_39">
    <path clip-path="url(#pb8e2f8d5a6)" d="M 325.61108 228.14 
L 333.22017 228.14 
L 333.22017 228.119456 
L 325.61108 228.119456 
z
" style="fill:#1f77b4;opacity:0.5;"/>
   </g>
   <g id="patch_40">
    <path clip-path="url(#pb8e2f8d5a6)" d="M 333.22017 228.14 
L 340.829261 228.14 
L 340.829261 228.057824 
L 333.22017 228.057824 
z
" style="fill:#1f77b4;opacity:0.5;"/>
   </g>
   <g id="patch_41">
    <path clip-path="url(#pb8e2f8d5a6)" d="M 340.829261 228.14 
L 348.438352 228.14 
L 348.438352 228.03728 
L 340.829261 228.03728 
z
" style="fill:#1f77b4;opacity:0.5;"/>
   </g>
   <g id="patch_42">
    <path clip-path="url(#pb8e2f8d5a6)" d="M 348.438352 228.14 
L 356.047443 228.14 
L 356.047443 227.790753 
L 348.438352 227.790753 
z
" style="fill:#1f77b4;opacity:0.5;"/>
   </g>
   <g id="patch_43">
    <path clip-path="url(#pb8e2f8d5a6)" d="M 61.39754 228.14 
L 68.763787 228.14 
L 68.763787 228.076951 
L 61.39754 228.076951 
z
" style="fill:#ff7f0e;opacity:0.5;"/>
   </g>
   <g id="patch_44">
    <path clip-path="url(#pb8e2f8d5a6)" d="M 68.763787 228.14 
L 76.130035 228.14 
L 76.130035 228.14 
L 68.763787 228.14 
z
" style="fill:#ff7f0e;opacity:0.5;"/>
   </g>
   <g id="patch_45">
    <path clip-path="url(#pb8e2f8d5a6)" d="M 76.130035 228.14 
L 83.496283 228.14 
L 83.496283 228.14 
L 76.130035 228.14 
z
" style="fill:#ff7f0e;opacity:0.5;"/>
   </g>
   <g id="patch_46">
    <path clip-path="url(#pb8e2f8d5a6)" d="M 83.496283 228.14 
L 90.86253 228.14 
L 90.86253 228.14 
L 83.496283 228.14 
z
" style="fill:#ff7f0e;opacity:0.5;"/>
   </g>
   <g id="patch_47">
    <path clip-path="url(#pb8e2f8d5a6)" d="M 90.86253 228.14 
L 98.228778 228.14 
L 98.228778 228.14 
L 90.86253 228.14 
z
" style="fill:#ff7f0e;opacity:0.5;"/>
   </g>
   <g id="patch_48">
    <path clip-path="url(#pb8e2f8d5a6)" d="M 98.228778 228.14 
L 105.595025 228.14 
L 105.595025 228.14 
L 98.228778 228.14 
z
" style="fill:#ff7f0e;opacity:0.5;"/>
   </g>
   <g id="patch_49">
    <path clip-path="url(#pb8e2f8d5a6)" d="M 105.595025 228.14 
L 112.961273 228.14 
L 112.961273 228.14 
L 105.595025 228.14 
z
" style="fill:#ff7f0e;opacity:0.5;"/>
   </g>
   <g id="patch_50">
    <path clip-path="url(#pb8e2f8d5a6)" d="M 112.961273 228.14 
L 120.327521 228.14 
L 120.327521 228.108475 
L 112.961273 228.108475 
z
" style="fill:#ff7f0e;opacity:0.5;"/>
   </g>
   <g id="patch_51">
    <path clip-path="url(#pb8e2f8d5a6)" d="M 120.327521 228.14 
L 127.693768 228.14 
L 127.693768 228.14 
L 120.327521 228.14 
z
" style="fill:#ff7f0e;opacity:0.5;"/>
   </g>
   <g id="patch_52">
    <path clip-path="url(#pb8e2f8d5a6)" d="M 127.693768 228.14 
L 135.060016 228.14 
L 135.060016 228.14 
L 127.693768 228.14 
z
" style="fill:#ff7f0e;opacity:0.5;"/>
   </g>
   <g id="patch_53">
    <path clip-path="url(#pb8e2f8d5a6)" d="M 135.060016 228.14 
L 142.426263 228.14 
L 142.426263 228.14 
L 135.060016 228.14 
z
" style="fill:#ff7f0e;opacity:0.5;"/>
   </g>
   <g id="patch_54">
    <path clip-path="url(#pb8e2f8d5a6)" d="M 142.426263 228.14 
L 149.792511 228.14 
L 149.792511 228.14 
L 142.426263 228.14 
z
" style="fill:#ff7f0e;opacity:0.5;"/>
   </g>
   <g id="patch_55">
    <path clip-path="url(#pb8e2f8d5a6)" d="M 149.792511 228.14 
L 157.158758 228.14 
L 157.158758 228.14 
L 149.792511 228.14 
z
" style="fill:#ff7f0e;opacity:0.5;"/>
   </g>
   <g id="patch_56">
    <path clip-path="url(#pb8e2f8d5a6)" d="M 157.158758 228.14 
L 164.525006 228.14 
L 164.525006 228.14 
L 157.158758 228.14 
z
" style="fill:#ff7f0e;opacity:0.5;"/>
   </g>
   <g id="patch_57">
    <path clip-path="url(#pb8e2f8d5a6)" d="M 164.525006 228.14 
L 171.891254 228.14 
L 171.891254 228.045426 
L 164.525006 228.045426 
z
" style="fill:#ff7f0e;opacity:0.5;"/>
   </g>
   <g id="patch_58">
    <path clip-path="url(#pb8e2f8d5a6)" d="M 171.891254 228.14 
L 179.257501 228.14 
L 179.257501 228.14 
L 171.891254 228.14 
z
" style="fill:#ff7f0e;opacity:0.5;"/>
   </g>
   <g id="patch_59">
    <path clip-path="url(#pb8e2f8d5a6)" d="M 179.257501 228.14 
L 186.623749 228.14 
L 186.623749 228.108475 
L 179.257501 228.108475 
z
" style="fill:#ff7f0e;opacity:0.5;"/>
   </g>
   <g id="patch_60">
    <path clip-path="url(#pb8e2f8d5a6)" d="M 186.623749 228.14 
L 193.989996 228.14 
L 193.989996 228.108475 
L 186.623749 228.108475 
z
" style="fill:#ff7f0e;opacity:0.5;"/>
   </g>
   <g id="patch_61">
    <path clip-path="url(#pb8e2f8d5a6)" d="M 193.989996 228.14 
L 201.356244 228.14 
L 201.356244 228.14 
L 193.989996 228.14 
z
" style="fill:#ff7f0e;opacity:0.5;"/>
   </g>
   <g id="patch_62">
    <path clip-path="url(#pb8e2f8d5a6)" d="M 201.356244 228.14 
L 208.722492 228.14 
L 208.722492 228.076951 
L 201.356244 228.076951 
z
" style="fill:#ff7f0e;opacity:0.5;"/>
   </g>
   <g id="patch_63">
    <path clip-path="url(#pb8e2f8d5a6)" d="M 208.722492 228.14 
L 216.088739 228.14 
L 216.088739 228.108475 
L 208.722492 228.108475 
z
" style="fill:#ff7f0e;opacity:0.5;"/>
   </g>
   <g id="patch_64">
    <path clip-path="url(#pb8e2f8d5a6)" d="M 216.088739 228.14 
L 223.454987 228.14 
L 223.454987 227.982377 
L 216.088739 227.982377 
z
" style="fill:#ff7f0e;opacity:0.5;"/>
   </g>
   <g id="patch_65">
    <path clip-path="url(#pb8e2f8d5a6)" d="M 223.454987 228.14 
L 230.821234 228.14 
L 230.821234 227.761704 
L 223.454987 227.761704 
z
" style="fill:#ff7f0e;opacity:0.5;"/>
   </g>
   <g id="patch_66">
    <path clip-path="url(#pb8e2f8d5a6)" d="M 230.821234 228.14 
L 238.187482 228.14 
L 238.187482 226.05937 
L 230.821234 226.05937 
z
" style="fill:#ff7f0e;opacity:0.5;"/>
   </g>
   <g id="patch_67">
    <path clip-path="url(#pb8e2f8d5a6)" d="M 238.187482 228.14 
L 245.553729 228.14 
L 245.553729 197.592572 
L 238.187482 197.592572 
z
" style="fill:#ff7f0e;opacity:0.5;"/>
   </g>
   <g id="patch_68">
    <path clip-path="url(#pb8e2f8d5a6)" d="M 245.553729 228.14 
L 252.919977 228.14 
L 252.919977 42.648701 
L 245.553729 42.648701 
z
" style="fill:#ff7f0e;opacity:0.5;"/>
   </g>
   <g id="patch_69">
    <path clip-path="url(#pb8e2f8d5a6)" d="M 252.919977 228.14 
L 260.286225 228.14 
L 260.286225 21.054286 
L 252.919977 21.054286 
z
" style="fill:#ff7f0e;opacity:0.5;"/>
   </g>
   <g id="patch_70">
    <path clip-path="url(#pb8e2f8d5a6)" d="M 260.286225 228.14 
L 267.652472 228.14 
L 267.652472 40.063676 
L 260.286225 40.063676 
z
" style="fill:#ff7f0e;opacity:0.5;"/>
   </g>
   <g id="patch_71">
    <path clip-path="url(#pb8e2f8d5a6)" d="M 267.652472 228.14 
L 275.01872 228.14 
L 275.01872 127.765375 
L 267.652472 127.765375 
z
" style="fill:#ff7f0e;opacity:0.5;"/>
   </g>
   <g id="patch_72">
    <path clip-path="url(#pb8e2f8d5a6)" d="M 275.01872 228.14 
L 282.384967 228.14 
L 282.384967 185.707762 
L 275.01872 185.707762 
z
" style="fill:#ff7f0e;opacity:0.5;"/>
   </g>
   <g id="patch_73">
    <path clip-path="url(#pb8e2f8d5a6)" d="M 282.384967 228.14 
L 289.751215 228.14 
L 289.751215 225.744123 
L 282.384967 225.744123 
z
" style="fill:#ff7f0e;opacity:0.5;"/>
   </g>
   <g id="patch_74">
    <path clip-path="url(#pb8e2f8d5a6)" d="M 289.751215 228.14 
L 297.117463 228.14 
L 297.117463 227.730179 
L 289.751215 227.730179 
z
" style="fill:#ff7f0e;opacity:0.5;"/>
   </g>
   <g id="patch_75">
    <path clip-path="url(#pb8e2f8d5a6)" d="M 297.117463 228.14 
L 304.48371 228.14 
L 304.48371 228.013901 
L 297.117463 228.013901 
z
" style="fill:#ff7f0e;opacity:0.5;"/>
   </g>
   <g id="patch_76">
    <path clip-path="url(#pb8e2f8d5a6)" d="M 304.48371 228.14 
L 311.849958 228.14 
L 311.849958 228.14 
L 304.48371 228.14 
z
" style="fill:#ff7f0e;opacity:0.5;"/>
   </g>
   <g id="patch_77">
    <path clip-path="url(#pb8e2f8d5a6)" d="M 311.849958 228.14 
L 319.216205 228.14 
L 319.216205 228.14 
L 311.849958 228.14 
z
" style="fill:#ff7f0e;opacity:0.5;"/>
   </g>
   <g id="patch_78">
    <path clip-path="url(#pb8e2f8d5a6)" d="M 319.216205 228.14 
L 326.582453 228.14 
L 326.582453 228.108475 
L 319.216205 228.108475 
z
" style="fill:#ff7f0e;opacity:0.5;"/>
   </g>
   <g id="patch_79">
    <path clip-path="url(#pb8e2f8d5a6)" d="M 326.582453 228.14 
L 333.9487 228.14 
L 333.9487 228.108475 
L 326.582453 228.108475 
z
" style="fill:#ff7f0e;opacity:0.5;"/>
   </g>
   <g id="patch_80">
    <path clip-path="url(#pb8e2f8d5a6)" d="M 333.9487 228.14 
L 341.314948 228.14 
L 341.314948 228.14 
L 333.9487 228.14 
z
" style="fill:#ff7f0e;opacity:0.5;"/>
   </g>
   <g id="patch_81">
    <path clip-path="url(#pb8e2f8d5a6)" d="M 341.314948 228.14 
L 348.681196 228.14 
L 348.681196 228.076951 
L 341.314948 228.076951 
z
" style="fill:#ff7f0e;opacity:0.5;"/>
   </g>
   <g id="patch_82">
    <path clip-path="url(#pb8e2f8d5a6)" d="M 348.681196 228.14 
L 356.047443 228.14 
L 356.047443 227.919327 
L 348.681196 227.919327 
z
" style="fill:#ff7f0e;opacity:0.5;"/>
   </g>
   <g id="matplotlib.axis_1">
    <g id="xtick_1">
     <g id="line2d_1">
      <defs>
       <path d="M 0 0 
L 0 3.5 
" id="mf6c6145d3f" style="stroke:#000000;stroke-width:0.8;"/>
      </defs>
      <g>
       <use style="stroke:#000000;stroke-width:0.8;" x="48.445896" xlink:href="#mf6c6145d3f" y="228.14"/>
      </g>
     </g>
     <g id="text_1">
      <!-- 0 -->
      <defs>
       <path d="M 31.78125 66.40625 
Q 24.171875 66.40625 20.328125 58.90625 
Q 16.5 51.421875 16.5 36.375 
Q 16.5 21.390625 20.328125 13.890625 
Q 24.171875 6.390625 31.78125 6.390625 
Q 39.453125 6.390625 43.28125 13.890625 
Q 47.125 21.390625 47.125 36.375 
Q 47.125 51.421875 43.28125 58.90625 
Q 39.453125 66.40625 31.78125 66.40625 
z
M 31.78125 74.21875 
Q 44.046875 74.21875 50.515625 64.515625 
Q 56.984375 54.828125 56.984375 36.375 
Q 56.984375 17.96875 50.515625 8.265625 
Q 44.046875 -1.421875 31.78125 -1.421875 
Q 19.53125 -1.421875 13.0625 8.265625 
Q 6.59375 17.96875 6.59375 36.375 
Q 6.59375 54.828125 13.0625 64.515625 
Q 19.53125 74.21875 31.78125 74.21875 
z
" id="DejaVuSans-48"/>
      </defs>
      <g transform="translate(45.264646 242.738437)scale(0.1 -0.1)">
       <use xlink:href="#DejaVuSans-48"/>
      </g>
     </g>
    </g>
    <g id="xtick_2">
     <g id="line2d_2">
      <g>
       <use style="stroke:#000000;stroke-width:0.8;" x="113.204116" xlink:href="#mf6c6145d3f" y="228.14"/>
      </g>
     </g>
     <g id="text_2">
      <!-- 20 -->
      <defs>
       <path d="M 19.1875 8.296875 
L 53.609375 8.296875 
L 53.609375 0 
L 7.328125 0 
L 7.328125 8.296875 
Q 12.9375 14.109375 22.625 23.890625 
Q 32.328125 33.6875 34.8125 36.53125 
Q 39.546875 41.84375 41.421875 45.53125 
Q 43.3125 49.21875 43.3125 52.78125 
Q 43.3125 58.59375 39.234375 62.25 
Q 35.15625 65.921875 28.609375 65.921875 
Q 23.96875 65.921875 18.8125 64.3125 
Q 13.671875 62.703125 7.8125 59.421875 
L 7.8125 69.390625 
Q 13.765625 71.78125 18.9375 73 
Q 24.125 74.21875 28.421875 74.21875 
Q 39.75 74.21875 46.484375 68.546875 
Q 53.21875 62.890625 53.21875 53.421875 
Q 53.21875 48.921875 51.53125 44.890625 
Q 49.859375 40.875 45.40625 35.40625 
Q 44.1875 33.984375 37.640625 27.21875 
Q 31.109375 20.453125 19.1875 8.296875 
z
" id="DejaVuSans-50"/>
      </defs>
      <g transform="translate(106.841616 242.738437)scale(0.1 -0.1)">
       <use xlink:href="#DejaVuSans-50"/>
       <use x="63.623047" xlink:href="#DejaVuSans-48"/>
      </g>
     </g>
    </g>
    <g id="xtick_3">
     <g id="line2d_3">
      <g>
       <use style="stroke:#000000;stroke-width:0.8;" x="177.962337" xlink:href="#mf6c6145d3f" y="228.14"/>
      </g>
     </g>
     <g id="text_3">
      <!-- 40 -->
      <defs>
       <path d="M 37.796875 64.3125 
L 12.890625 25.390625 
L 37.796875 25.390625 
z
M 35.203125 72.90625 
L 47.609375 72.90625 
L 47.609375 25.390625 
L 58.015625 25.390625 
L 58.015625 17.1875 
L 47.609375 17.1875 
L 47.609375 0 
L 37.796875 0 
L 37.796875 17.1875 
L 4.890625 17.1875 
L 4.890625 26.703125 
z
" id="DejaVuSans-52"/>
      </defs>
      <g transform="translate(171.599837 242.738437)scale(0.1 -0.1)">
       <use xlink:href="#DejaVuSans-52"/>
       <use x="63.623047" xlink:href="#DejaVuSans-48"/>
      </g>
     </g>
    </g>
    <g id="xtick_4">
     <g id="line2d_4">
      <g>
       <use style="stroke:#000000;stroke-width:0.8;" x="242.720557" xlink:href="#mf6c6145d3f" y="228.14"/>
      </g>
     </g>
     <g id="text_4">
      <!-- 60 -->
      <defs>
       <path d="M 33.015625 40.375 
Q 26.375 40.375 22.484375 35.828125 
Q 18.609375 31.296875 18.609375 23.390625 
Q 18.609375 15.53125 22.484375 10.953125 
Q 26.375 6.390625 33.015625 6.390625 
Q 39.65625 6.390625 43.53125 10.953125 
Q 47.40625 15.53125 47.40625 23.390625 
Q 47.40625 31.296875 43.53125 35.828125 
Q 39.65625 40.375 33.015625 40.375 
z
M 52.59375 71.296875 
L 52.59375 62.3125 
Q 48.875 64.0625 45.09375 64.984375 
Q 41.3125 65.921875 37.59375 65.921875 
Q 27.828125 65.921875 22.671875 59.328125 
Q 17.53125 52.734375 16.796875 39.40625 
Q 19.671875 43.65625 24.015625 45.921875 
Q 28.375 48.1875 33.59375 48.1875 
Q 44.578125 48.1875 50.953125 41.515625 
Q 57.328125 34.859375 57.328125 23.390625 
Q 57.328125 12.15625 50.6875 5.359375 
Q 44.046875 -1.421875 33.015625 -1.421875 
Q 20.359375 -1.421875 13.671875 8.265625 
Q 6.984375 17.96875 6.984375 36.375 
Q 6.984375 53.65625 15.1875 63.9375 
Q 23.390625 74.21875 37.203125 74.21875 
Q 40.921875 74.21875 44.703125 73.484375 
Q 48.484375 72.75 52.59375 71.296875 
z
" id="DejaVuSans-54"/>
      </defs>
      <g transform="translate(236.358057 242.738437)scale(0.1 -0.1)">
       <use xlink:href="#DejaVuSans-54"/>
       <use x="63.623047" xlink:href="#DejaVuSans-48"/>
      </g>
     </g>
    </g>
    <g id="xtick_5">
     <g id="line2d_5">
      <g>
       <use style="stroke:#000000;stroke-width:0.8;" x="307.478778" xlink:href="#mf6c6145d3f" y="228.14"/>
      </g>
     </g>
     <g id="text_5">
      <!-- 80 -->
      <defs>
       <path d="M 31.78125 34.625 
Q 24.75 34.625 20.71875 30.859375 
Q 16.703125 27.09375 16.703125 20.515625 
Q 16.703125 13.921875 20.71875 10.15625 
Q 24.75 6.390625 31.78125 6.390625 
Q 38.8125 6.390625 42.859375 10.171875 
Q 46.921875 13.96875 46.921875 20.515625 
Q 46.921875 27.09375 42.890625 30.859375 
Q 38.875 34.625 31.78125 34.625 
z
M 21.921875 38.8125 
Q 15.578125 40.375 12.03125 44.71875 
Q 8.5 49.078125 8.5 55.328125 
Q 8.5 64.0625 14.71875 69.140625 
Q 20.953125 74.21875 31.78125 74.21875 
Q 42.671875 74.21875 48.875 69.140625 
Q 55.078125 64.0625 55.078125 55.328125 
Q 55.078125 49.078125 51.53125 44.71875 
Q 48 40.375 41.703125 38.8125 
Q 48.828125 37.15625 52.796875 32.3125 
Q 56.78125 27.484375 56.78125 20.515625 
Q 56.78125 9.90625 50.3125 4.234375 
Q 43.84375 -1.421875 31.78125 -1.421875 
Q 19.734375 -1.421875 13.25 4.234375 
Q 6.78125 9.90625 6.78125 20.515625 
Q 6.78125 27.484375 10.78125 32.3125 
Q 14.796875 37.15625 21.921875 38.8125 
z
M 18.3125 54.390625 
Q 18.3125 48.734375 21.84375 45.5625 
Q 25.390625 42.390625 31.78125 42.390625 
Q 38.140625 42.390625 41.71875 45.5625 
Q 45.3125 48.734375 45.3125 54.390625 
Q 45.3125 60.0625 41.71875 63.234375 
Q 38.140625 66.40625 31.78125 66.40625 
Q 25.390625 66.40625 21.84375 63.234375 
Q 18.3125 60.0625 18.3125 54.390625 
z
" id="DejaVuSans-56"/>
      </defs>
      <g transform="translate(301.116278 242.738437)scale(0.1 -0.1)">
       <use xlink:href="#DejaVuSans-56"/>
       <use x="63.623047" xlink:href="#DejaVuSans-48"/>
      </g>
     </g>
    </g>
   </g>
   <g id="matplotlib.axis_2">
    <g id="ytick_1">
     <g id="line2d_6">
      <defs>
       <path d="M 0 0 
L -3.5 0 
" id="mdf260b2058" style="stroke:#000000;stroke-width:0.8;"/>
      </defs>
      <g>
       <use style="stroke:#000000;stroke-width:0.8;" x="36.465625" xlink:href="#mdf260b2058" y="228.14"/>
      </g>
     </g>
     <g id="text_6">
      <!-- 0.00 -->
      <defs>
       <path d="M 10.6875 12.40625 
L 21 12.40625 
L 21 0 
L 10.6875 0 
z
" id="DejaVuSans-46"/>
      </defs>
      <g transform="translate(7.2 231.939219)scale(0.1 -0.1)">
       <use xlink:href="#DejaVuSans-48"/>
       <use x="63.623047" xlink:href="#DejaVuSans-46"/>
       <use x="95.410156" xlink:href="#DejaVuSans-48"/>
       <use x="159.033203" xlink:href="#DejaVuSans-48"/>
      </g>
     </g>
    </g>
    <g id="ytick_2">
     <g id="line2d_7">
      <g>
       <use style="stroke:#000000;stroke-width:0.8;" x="36.465625" xlink:href="#mdf260b2058" y="193.548647"/>
      </g>
     </g>
     <g id="text_7">
      <!-- 0.02 -->
      <g transform="translate(7.2 197.347866)scale(0.1 -0.1)">
       <use xlink:href="#DejaVuSans-48"/>
       <use x="63.623047" xlink:href="#DejaVuSans-46"/>
       <use x="95.410156" xlink:href="#DejaVuSans-48"/>
       <use x="159.033203" xlink:href="#DejaVuSans-50"/>
      </g>
     </g>
    </g>
    <g id="ytick_3">
     <g id="line2d_8">
      <g>
       <use style="stroke:#000000;stroke-width:0.8;" x="36.465625" xlink:href="#mdf260b2058" y="158.957294"/>
      </g>
     </g>
     <g id="text_8">
      <!-- 0.04 -->
      <g transform="translate(7.2 162.756513)scale(0.1 -0.1)">
       <use xlink:href="#DejaVuSans-48"/>
       <use x="63.623047" xlink:href="#DejaVuSans-46"/>
       <use x="95.410156" xlink:href="#DejaVuSans-48"/>
       <use x="159.033203" xlink:href="#DejaVuSans-52"/>
      </g>
     </g>
    </g>
    <g id="ytick_4">
     <g id="line2d_9">
      <g>
       <use style="stroke:#000000;stroke-width:0.8;" x="36.465625" xlink:href="#mdf260b2058" y="124.365941"/>
      </g>
     </g>
     <g id="text_9">
      <!-- 0.06 -->
      <g transform="translate(7.2 128.16516)scale(0.1 -0.1)">
       <use xlink:href="#DejaVuSans-48"/>
       <use x="63.623047" xlink:href="#DejaVuSans-46"/>
       <use x="95.410156" xlink:href="#DejaVuSans-48"/>
       <use x="159.033203" xlink:href="#DejaVuSans-54"/>
      </g>
     </g>
    </g>
    <g id="ytick_5">
     <g id="line2d_10">
      <g>
       <use style="stroke:#000000;stroke-width:0.8;" x="36.465625" xlink:href="#mdf260b2058" y="89.774588"/>
      </g>
     </g>
     <g id="text_10">
      <!-- 0.08 -->
      <g transform="translate(7.2 93.573806)scale(0.1 -0.1)">
       <use xlink:href="#DejaVuSans-48"/>
       <use x="63.623047" xlink:href="#DejaVuSans-46"/>
       <use x="95.410156" xlink:href="#DejaVuSans-48"/>
       <use x="159.033203" xlink:href="#DejaVuSans-56"/>
      </g>
     </g>
    </g>
    <g id="ytick_6">
     <g id="line2d_11">
      <g>
       <use style="stroke:#000000;stroke-width:0.8;" x="36.465625" xlink:href="#mdf260b2058" y="55.183235"/>
      </g>
     </g>
     <g id="text_11">
      <!-- 0.10 -->
      <defs>
       <path d="M 12.40625 8.296875 
L 28.515625 8.296875 
L 28.515625 63.921875 
L 10.984375 60.40625 
L 10.984375 69.390625 
L 28.421875 72.90625 
L 38.28125 72.90625 
L 38.28125 8.296875 
L 54.390625 8.296875 
L 54.390625 0 
L 12.40625 0 
z
" id="DejaVuSans-49"/>
      </defs>
      <g transform="translate(7.2 58.982453)scale(0.1 -0.1)">
       <use xlink:href="#DejaVuSans-48"/>
       <use x="63.623047" xlink:href="#DejaVuSans-46"/>
       <use x="95.410156" xlink:href="#DejaVuSans-49"/>
       <use x="159.033203" xlink:href="#DejaVuSans-48"/>
      </g>
     </g>
    </g>
    <g id="ytick_7">
     <g id="line2d_12">
      <g>
       <use style="stroke:#000000;stroke-width:0.8;" x="36.465625" xlink:href="#mdf260b2058" y="20.591882"/>
      </g>
     </g>
     <g id="text_12">
      <!-- 0.12 -->
      <g transform="translate(7.2 24.3911)scale(0.1 -0.1)">
       <use xlink:href="#DejaVuSans-48"/>
       <use x="63.623047" xlink:href="#DejaVuSans-46"/>
       <use x="95.410156" xlink:href="#DejaVuSans-49"/>
       <use x="159.033203" xlink:href="#DejaVuSans-50"/>
      </g>
     </g>
    </g>
   </g>
   <g id="patch_83">
    <path d="M 36.465625 228.14 
L 36.465625 10.7 
" style="fill:none;stroke:#000000;stroke-linecap:square;stroke-linejoin:miter;stroke-width:0.8;"/>
   </g>
   <g id="patch_84">
    <path d="M 371.265625 228.14 
L 371.265625 10.7 
" style="fill:none;stroke:#000000;stroke-linecap:square;stroke-linejoin:miter;stroke-width:0.8;"/>
   </g>
   <g id="patch_85">
    <path d="M 36.465625 228.14 
L 371.265625 228.14 
" style="fill:none;stroke:#000000;stroke-linecap:square;stroke-linejoin:miter;stroke-width:0.8;"/>
   </g>
   <g id="patch_86">
    <path d="M 36.465625 10.7 
L 371.265625 10.7 
" style="fill:none;stroke:#000000;stroke-linecap:square;stroke-linejoin:miter;stroke-width:0.8;"/>
   </g>
   <g id="legend_1">
    <g id="patch_87">
     <path d="M 294.035937 48.05625 
L 364.265625 48.05625 
Q 366.265625 48.05625 366.265625 46.05625 
L 366.265625 17.7 
Q 366.265625 15.7 364.265625 15.7 
L 294.035937 15.7 
Q 292.035937 15.7 292.035937 17.7 
L 292.035937 46.05625 
Q 292.035937 48.05625 294.035937 48.05625 
z
" style="fill:#ffffff;opacity:0.8;stroke:#cccccc;stroke-linejoin:miter;"/>
    </g>
    <g id="patch_88">
     <path d="M 296.035937 27.298437 
L 316.035937 27.298437 
L 316.035937 20.298437 
L 296.035937 20.298437 
z
" style="fill:#1f77b4;opacity:0.5;"/>
    </g>
    <g id="text_13">
     <!-- Men -->
     <defs>
      <path d="M 9.8125 72.90625 
L 24.515625 72.90625 
L 43.109375 23.296875 
L 61.8125 72.90625 
L 76.515625 72.90625 
L 76.515625 0 
L 66.890625 0 
L 66.890625 64.015625 
L 48.09375 14.015625 
L 38.1875 14.015625 
L 19.390625 64.015625 
L 19.390625 0 
L 9.8125 0 
z
" id="DejaVuSans-77"/>
      <path d="M 56.203125 29.59375 
L 56.203125 25.203125 
L 14.890625 25.203125 
Q 15.484375 15.921875 20.484375 11.0625 
Q 25.484375 6.203125 34.421875 6.203125 
Q 39.59375 6.203125 44.453125 7.46875 
Q 49.3125 8.734375 54.109375 11.28125 
L 54.109375 2.78125 
Q 49.265625 0.734375 44.1875 -0.34375 
Q 39.109375 -1.421875 33.890625 -1.421875 
Q 20.796875 -1.421875 13.15625 6.1875 
Q 5.515625 13.8125 5.515625 26.8125 
Q 5.515625 40.234375 12.765625 48.109375 
Q 20.015625 56 32.328125 56 
Q 43.359375 56 49.78125 48.890625 
Q 56.203125 41.796875 56.203125 29.59375 
z
M 47.21875 32.234375 
Q 47.125 39.59375 43.09375 43.984375 
Q 39.0625 48.390625 32.421875 48.390625 
Q 24.90625 48.390625 20.390625 44.140625 
Q 15.875 39.890625 15.1875 32.171875 
z
" id="DejaVuSans-101"/>
      <path d="M 54.890625 33.015625 
L 54.890625 0 
L 45.90625 0 
L 45.90625 32.71875 
Q 45.90625 40.484375 42.875 44.328125 
Q 39.84375 48.1875 33.796875 48.1875 
Q 26.515625 48.1875 22.3125 43.546875 
Q 18.109375 38.921875 18.109375 30.90625 
L 18.109375 0 
L 9.078125 0 
L 9.078125 54.6875 
L 18.109375 54.6875 
L 18.109375 46.1875 
Q 21.34375 51.125 25.703125 53.5625 
Q 30.078125 56 35.796875 56 
Q 45.21875 56 50.046875 50.171875 
Q 54.890625 44.34375 54.890625 33.015625 
z
" id="DejaVuSans-110"/>
     </defs>
     <g transform="translate(324.035937 27.298437)scale(0.1 -0.1)">
      <use xlink:href="#DejaVuSans-77"/>
      <use x="86.279297" xlink:href="#DejaVuSans-101"/>
      <use x="147.802734" xlink:href="#DejaVuSans-110"/>
     </g>
    </g>
    <g id="patch_89">
     <path d="M 296.035937 41.976562 
L 316.035937 41.976562 
L 316.035937 34.976562 
L 296.035937 34.976562 
z
" style="fill:#ff7f0e;opacity:0.5;"/>
    </g>
    <g id="text_14">
     <!-- Women -->
     <defs>
      <path d="M 3.328125 72.90625 
L 13.28125 72.90625 
L 28.609375 11.28125 
L 43.890625 72.90625 
L 54.984375 72.90625 
L 70.3125 11.28125 
L 85.59375 72.90625 
L 95.609375 72.90625 
L 77.296875 0 
L 64.890625 0 
L 49.515625 63.28125 
L 33.984375 0 
L 21.578125 0 
z
" id="DejaVuSans-87"/>
      <path d="M 30.609375 48.390625 
Q 23.390625 48.390625 19.1875 42.75 
Q 14.984375 37.109375 14.984375 27.296875 
Q 14.984375 17.484375 19.15625 11.84375 
Q 23.34375 6.203125 30.609375 6.203125 
Q 37.796875 6.203125 41.984375 11.859375 
Q 46.1875 17.53125 46.1875 27.296875 
Q 46.1875 37.015625 41.984375 42.703125 
Q 37.796875 48.390625 30.609375 48.390625 
z
M 30.609375 56 
Q 42.328125 56 49.015625 48.375 
Q 55.71875 40.765625 55.71875 27.296875 
Q 55.71875 13.875 49.015625 6.21875 
Q 42.328125 -1.421875 30.609375 -1.421875 
Q 18.84375 -1.421875 12.171875 6.21875 
Q 5.515625 13.875 5.515625 27.296875 
Q 5.515625 40.765625 12.171875 48.375 
Q 18.84375 56 30.609375 56 
z
" id="DejaVuSans-111"/>
      <path d="M 52 44.1875 
Q 55.375 50.25 60.0625 53.125 
Q 64.75 56 71.09375 56 
Q 79.640625 56 84.28125 50.015625 
Q 88.921875 44.046875 88.921875 33.015625 
L 88.921875 0 
L 79.890625 0 
L 79.890625 32.71875 
Q 79.890625 40.578125 77.09375 44.375 
Q 74.3125 48.1875 68.609375 48.1875 
Q 61.625 48.1875 57.5625 43.546875 
Q 53.515625 38.921875 53.515625 30.90625 
L 53.515625 0 
L 44.484375 0 
L 44.484375 32.71875 
Q 44.484375 40.625 41.703125 44.40625 
Q 38.921875 48.1875 33.109375 48.1875 
Q 26.21875 48.1875 22.15625 43.53125 
Q 18.109375 38.875 18.109375 30.90625 
L 18.109375 0 
L 9.078125 0 
L 9.078125 54.6875 
L 18.109375 54.6875 
L 18.109375 46.1875 
Q 21.1875 51.21875 25.484375 53.609375 
Q 29.78125 56 35.6875 56 
Q 41.65625 56 45.828125 52.96875 
Q 50 49.953125 52 44.1875 
z
" id="DejaVuSans-109"/>
     </defs>
     <g transform="translate(324.035937 41.976562)scale(0.1 -0.1)">
      <use xlink:href="#DejaVuSans-87"/>
      <use x="98.798828" xlink:href="#DejaVuSans-111"/>
      <use x="159.980469" xlink:href="#DejaVuSans-109"/>
      <use x="257.392578" xlink:href="#DejaVuSans-101"/>
      <use x="318.916016" xlink:href="#DejaVuSans-110"/>
     </g>
    </g>
   </g>
  </g>
 </g>
 <defs>
  <clipPath id="pb8e2f8d5a6">
   <rect height="217.44" width="334.8" x="36.465625" y="10.7"/>
  </clipPath>
 </defs>
</svg>
